<svg id="Слой_1" data-name="Слой 1" xmlns="http://www.w3.org/2000/svg" viewBox="0 0 140 342"><defs><style>.cls-1{fill:#ffd1af;}.cls-2{fill:#eaaca5;}.cls-3{fill:#ffe5db;}.cls-4{fill:#cb4043;}.cls-5{fill:#b73d37;opacity:0.42;}.cls-6,.cls-7,.cls-9{fill:#e46c4e;}.cls-6{opacity:0.44;}.cls-8{fill:#ffffa2;}.cls-8,.cls-9{opacity:0.54;}.cls-10{fill:#daf0ff;}.cls-11{fill:#f5c0ad;}.cls-12{fill:#c88696;}</style></defs><title>Монтажная область 2</title><rect class="cls-1" x="69.35" y="163.65" width="25.16" height="178.67"/><rect class="cls-2" x="44.19" y="163.65" width="25.16" height="178.67"/><rect class="cls-2" x="23.03" y="210.17" width="10.29" height="24.85" rx="5" transform="translate(56.35 445.19) rotate(180)"/><path class="cls-1" d="M16.06,88.5h.78a13.62,13.62,0,0,1,13.62,13.62v124a6.74,6.74,0,0,1-6.74,6.74H9.18a6.74,6.74,0,0,1-6.74-6.74v-124A13.62,13.62,0,0,1,16.06,88.5Z" transform="translate(32.9 321.33) rotate(-180)"/><rect class="cls-1" x="21.23" y="202.94" width="9.23" height="39.65" rx="4.3" transform="translate(51.69 445.53) rotate(180)"/><rect class="cls-1" x="12" y="199.35" width="9.23" height="39.65" rx="4.18" transform="translate(33.23 438.35) rotate(-180)"/><rect class="cls-3" x="5.87" y="164.87" width="5.72" height="35.59" rx="2.78" transform="translate(17.46 365.33) rotate(180)"/><rect class="cls-2" x="106.53" y="210.17" width="10.29" height="24.85" rx="5"/><path class="cls-1" d="M116.13,88.5h14.55a6.74,6.74,0,0,1,6.74,6.74v124a13.62,13.62,0,0,1-13.62,13.62H123a13.62,13.62,0,0,1-13.62-13.62v-124a6.74,6.74,0,0,1,6.74-6.74Z"/><rect class="cls-1" x="109.39" y="202.94" width="9.31" height="39.65" rx="4.32"/><rect class="cls-1" x="118.69" y="199.35" width="9.31" height="39.65" rx="4.2"/><rect class="cls-3" x="128.26" y="164.87" width="5.72" height="35.59" rx="2.78"/><ellipse class="cls-2" cx="114.54" cy="102.97" rx="25.74" ry="25.05"/><ellipse class="cls-2" cx="25.32" cy="102.97" rx="25.74" ry="25.05"/><ellipse class="cls-2" cx="71.07" cy="117.45" rx="54.91" ry="53.44"/><rect class="cls-2" x="50.93" y="34.96" width="39.59" height="44.64"/><ellipse class="cls-2" cx="50.93" cy="33.81" rx="2.74" ry="2.63"/><ellipse class="cls-2" cx="90.52" cy="33.81" rx="2.74" ry="2.63"/><path class="cls-4" d="M66.7,10h23.9a0,0,0,0,1,0,0V38.29a7,7,0,0,1-7,7H57.85a7,7,0,0,1-7-7V25.86A15.85,15.85,0,0,1,66.7,10Z"/><path class="cls-4" d="M55.84,37.12h30a2,2,0,0,1,2,2V57.5a16,16,0,0,1-16,16H69.87a16,16,0,0,1-16-16V39.11A2,2,0,0,1,55.84,37.12Z"/><path class="cls-1" d="M61.82,20.27H79.64a8.06,8.06,0,0,1,8.06,8.06v6.07a5.93,5.93,0,0,1-5.93,5.93H59.7a5.93,5.93,0,0,1-5.93-5.93V28.33a8.06,8.06,0,0,1,8.06-8.06Z"/><ellipse class="cls-1" cx="70.64" cy="39.39" rx="5.06" ry="4.43"/><rect class="cls-5" x="56.42" y="28.39" width="8.91" height="2.63" rx="1.26"/><rect class="cls-5" x="76.47" y="28.39" width="8.91" height="2.63" rx="1.26"/><rect x="60.53" y="30.35" width="2.91" height="5.42" rx="1.42"/><rect x="78.18" y="30.35" width="2.91" height="5.42" rx="1.42"/><rect class="cls-4" x="56.42" y="26.58" width="8.91" height="2.63" rx="1.26"/><rect class="cls-4" x="76.47" y="26.58" width="8.91" height="2.63" rx="1.26"/><path class="cls-6" d="M85.28,22.59a23.63,23.63,0,0,1-11.16,2.78H54.31a8.19,8.19,0,0,1,7.62-5.1H79.52A8.26,8.26,0,0,1,85.28,22.59Z"/><path class="cls-7" d="M75.38,0H95.66a0,0,0,0,1,0,0V1.12a22,22,0,0,1-22,22H55.56a0,0,0,0,1,0,0V19.82A19.82,19.82,0,0,1,75.38,0Z"/><rect class="cls-8" x="76.47" y="2.46" width="14.22" height="2.95" rx="1.41"/><rect class="cls-9" x="56.42" y="52.02" width="4.11" height="6.56" rx="2"/><rect class="cls-9" x="74.93" y="62.04" width="2.06" height="4.43" rx="0.8"/><rect class="cls-9" x="79.73" y="55.14" width="2.4" height="5.25" rx="1.17"/><path class="cls-1" d="M99.67,160.86V167c0,1.13-.06,2.24-.17,3.34-1.59,15.89-14.41,28.38-29.86,28.38s-28.27-12.49-29.86-28.38c-.11-1.1-.17-2.21-.17-3.34v-6.13a33.15,33.15,0,0,1,.26-4.12c1.92-15.52,14.57-27.6,29.77-27.6a29.17,29.17,0,0,1,21.21,9.31,32.47,32.47,0,0,1,8.56,18.29A33.15,33.15,0,0,1,99.67,160.86Z"/><path class="cls-10" d="M99.5,170.33c-1.59,15.89-14.41,28.38-29.86,28.38s-28.27-12.49-29.86-28.38Z"/><path class="cls-11" d="M131.69,102.47v3.79c0,10.44-8.77,19-19.5,19H27.09c-10.73,0-19.5-8.54-19.5-19v-3.79a16.53,16.53,0,0,1,.11-2,19.37,19.37,0,0,1,19.39-17h85.1a19.37,19.37,0,0,1,19.39,17A16.53,16.53,0,0,1,131.69,102.47Z"/><path class="cls-1" d="M131.58,100.47a19.37,19.37,0,0,1-19.39,17H27.09a19.37,19.37,0,0,1-19.39-17,19.37,19.37,0,0,1,19.39-17h85.1A19.37,19.37,0,0,1,131.58,100.47Z"/><rect class="cls-2" x="28.75" y="111.88" width="6.29" height="2.78" rx="1.39"/><rect class="cls-2" x="101.38" y="110.77" width="6.29" height="2.78" rx="1.39"/><rect class="cls-3" x="93.38" y="89.06" width="21.16" height="3.9" rx="1.95"/><rect class="cls-3" x="83.65" y="243.8" width="6.86" height="40.08" rx="3.34"/><rect class="cls-1" x="50.48" y="243.8" width="6.86" height="40.08" rx="3.34"/><path class="cls-2" d="M117.4,341.65c0,.23,0,.45,0,.67H75.08c0-.22,0-.44,0-.67a15.26,15.26,0,0,1,2.75-9,8.33,8.33,0,0,1,6.6-3.73h23.63C113.19,329,117.4,334.67,117.4,341.65Z"/><path class="cls-12" d="M63.64,341.65c0,.23,0,.45,0,.67H21.32c0-.22,0-.44,0-.67a15.26,15.26,0,0,1,2.75-9,8.31,8.31,0,0,1,6.6-3.73H54.28C59.43,329,63.64,334.67,63.64,341.65Z"/></svg>