<svg id="Слой_1" data-name="Слой 1" xmlns="http://www.w3.org/2000/svg" viewBox="0 0 244 473"><defs><style>.cls-1{fill:#00031e;}.cls-1,.cls-20{opacity:0.46;}.cls-2{fill:#ffd1af;}.cls-3{fill:#eaaca5;}.cls-4{fill:#ffe5db;}.cls-5{fill:#cb4043;}.cls-6{fill:#b73d37;opacity:0.42;}.cls-10,.cls-7,.cls-8{fill:#e46c4e;}.cls-7{opacity:0.44;}.cls-9{fill:#ffffa2;}.cls-10,.cls-9{opacity:0.54;}.cls-11{fill:#daf0ff;}.cls-12{fill:#f5c0ad;}.cls-13{fill:#c88696;}.cls-14{fill:#c239ae;}.cls-15{fill:#9539ae;}.cls-16{fill:#b623ae;}.cls-17{fill:#ffb0db;}.cls-18{fill:#867bff;}.cls-19{fill:#7a5cff;}.cls-20{fill:#bfe5db;}.cls-21{fill:#520047;}.cls-22{fill:#c30242;}.cls-23{fill:#980242;}.cls-24{fill:#ffe1d8;}</style></defs><title>Качок</title><rect class="cls-1" y="463.95" width="244" height="9.05" rx="3.34"/><rect class="cls-2" x="117.29" y="221.79" width="37.67" height="242.16"/><rect class="cls-3" x="79.62" y="221.79" width="37.67" height="242.16"/><rect class="cls-3" x="47.94" y="284.85" width="15.41" height="33.68" rx="5" transform="translate(111.3 603.37) rotate(180)"/><path class="cls-2" d="M30.74,119.95H45.45a13.62,13.62,0,0,1,13.62,13.62V308.81a6.74,6.74,0,0,1-6.74,6.74H23.86a6.74,6.74,0,0,1-6.74-6.74V133.57a13.62,13.62,0,0,1,13.62-13.62Z" transform="translate(76.2 435.49) rotate(-180)"/><rect class="cls-2" x="45.25" y="276.4" width="13.82" height="53.74" rx="4.62" transform="translate(104.33 606.54) rotate(180)"/><rect class="cls-2" x="31.44" y="271.53" width="13.82" height="53.74" rx="4.62" transform="translate(76.69 596.8) rotate(180)"/><rect class="cls-4" x="22.26" y="223.45" width="8.56" height="48.24" rx="2.78" transform="translate(53.08 495.14) rotate(180)"/><rect class="cls-3" x="172.94" y="284.85" width="15.41" height="33.68" rx="5"/><path class="cls-2" d="M184,119.95h28.47a6.74,6.74,0,0,1,6.74,6.74V301.93a13.62,13.62,0,0,1-13.62,13.62H190.84a13.62,13.62,0,0,1-13.62-13.62V126.69a6.74,6.74,0,0,1,6.74-6.74Z"/><rect class="cls-2" x="177.22" y="276.4" width="13.93" height="53.74" rx="4.63"/><rect class="cls-2" x="191.15" y="271.53" width="13.93" height="53.74" rx="4.63"/><rect class="cls-4" x="205.47" y="223.45" width="8.56" height="48.24" rx="2.78"/><ellipse class="cls-3" cx="184.93" cy="139.56" rx="38.53" ry="33.95"/><ellipse class="cls-3" cx="51.37" cy="139.56" rx="38.53" ry="33.95"/><ellipse class="cls-3" cx="119.86" cy="159.18" rx="82.19" ry="72.42"/><rect class="cls-3" x="89.72" y="47.38" width="59.26" height="60.5"/><ellipse class="cls-3" cx="89.72" cy="45.82" rx="4.1" ry="3.56"/><ellipse class="cls-3" cx="148.98" cy="45.82" rx="4.1" ry="3.56"/><path class="cls-5" d="M105.44,13.57h43.66a0,0,0,0,1,0,0V54.39a7,7,0,0,1-7,7H96.59a7,7,0,0,1-7-7v-25A15.85,15.85,0,0,1,105.44,13.57Z"/><path class="cls-5" d="M96.07,50.3h46.81a2,2,0,0,1,2,2V83.62a16,16,0,0,1-16,16H110.1a16,16,0,0,1-16-16V52.29A2,2,0,0,1,96.07,50.3Z"/><path class="cls-2" d="M102,27.47h34.68a8.06,8.06,0,0,1,8.06,8.06V48.72a5.93,5.93,0,0,1-5.93,5.93H99.88A5.93,5.93,0,0,1,94,48.72V35.53A8.06,8.06,0,0,1,102,27.47Z"/><ellipse class="cls-2" cx="119.22" cy="53.38" rx="7.57" ry="6.01"/><rect class="cls-6" x="97.93" y="38.47" width="13.34" height="3.56" rx="1.26"/><rect class="cls-6" x="127.94" y="38.47" width="13.34" height="3.56" rx="1.26"/><rect x="104.08" y="41.14" width="4.36" height="7.34" rx="1.42"/><rect x="130.51" y="41.14" width="4.36" height="7.34" rx="1.42"/><rect class="cls-5" x="97.93" y="36.02" width="13.34" height="3.56" rx="1.26"/><rect class="cls-5" x="127.94" y="36.02" width="13.34" height="3.56" rx="1.26"/><path class="cls-7" d="M141.13,30.62a38.32,38.32,0,0,1-16.71,3.76H94.77a12.33,12.33,0,0,1,11.41-6.91h26.33A13,13,0,0,1,141.13,30.62Z"/><path class="cls-8" d="M116.46,0h40.21a0,0,0,0,1,0,0V9.34a22,22,0,0,1-22,22h-38a0,0,0,0,1,0,0V19.82A19.82,19.82,0,0,1,116.46,0Z"/><rect class="cls-9" x="127.94" y="3.34" width="21.29" height="4" rx="1.41"/><rect class="cls-10" x="97.93" y="70.51" width="6.16" height="8.9" rx="2"/><rect class="cls-10" x="125.63" y="84.08" width="3.08" height="6.01" rx="0.8"/><rect class="cls-10" x="132.82" y="74.74" width="3.59" height="7.12" rx="1.17"/><path class="cls-2" d="M162.67,218v8.3a39.62,39.62,0,0,1-.26,4.52c-2.38,21.55-21.56,38.48-44.69,38.48S75.41,252.39,73,230.84a42.06,42.06,0,0,1-.25-4.52V218a41.07,41.07,0,0,1,.38-5.58C76,191.4,95,175,117.72,175a45.86,45.86,0,0,1,31.75,12.63,42.34,42.34,0,0,1,12.82,24.79A41.07,41.07,0,0,1,162.67,218Z"/><path class="cls-11" d="M162.41,230.84c-2.38,21.55-21.56,38.48-44.69,38.48S75.41,252.39,73,230.84Z"/><path class="cls-12" d="M210.61,138.88V144c0,14.15-13.13,25.73-29.19,25.73H54C38,169.74,24.83,158.16,24.83,144v-5.13a20.23,20.23,0,0,1,.17-2.71c1.54-12.9,14-23,29-23h127.4c15,0,27.48,10.11,29,23A20.23,20.23,0,0,1,210.61,138.88Z"/><path class="cls-2" d="M210.44,136.17c-1.54,12.89-14,23-29,23H54c-15,0-27.48-10.12-29-23,1.54-12.9,14-23,29-23h127.4C196.43,113.16,208.9,123.27,210.44,136.17Z"/><rect class="cls-3" x="56.51" y="151.63" width="9.42" height="3.77" rx="1.39"/><rect class="cls-3" x="165.24" y="150.12" width="9.42" height="3.77" rx="1.39"/><rect class="cls-4" x="153.25" y="120.7" width="31.68" height="5.28" rx="1.95"/><rect class="cls-4" x="138.69" y="330.42" width="10.27" height="54.32" rx="3.34"/><rect class="cls-2" x="89.04" y="330.42" width="10.27" height="54.32" rx="3.34"/><path class="cls-3" d="M189.21,463c0,.31,0,.61,0,.91H125.87c0-.3,0-.6,0-.91A19.36,19.36,0,0,1,130,450.89a12.84,12.84,0,0,1,9.89-5.05h35.36C182.91,445.84,189.21,453.58,189.21,463Z"/><path class="cls-13" d="M108.73,463c0,.31,0,.61,0,.91H45.39c0-.3,0-.6,0-.91a19.31,19.31,0,0,1,4.11-12.15,12.82,12.82,0,0,1,9.88-5.05H94.73C102.43,445.84,108.73,453.58,108.73,463Z"/><path class="cls-14" d="M59.07,129.09v68.56H17.12V129.09c0-5,4.68-9.14,10.38-9.14H48.7C54.4,120,59.07,124.07,59.07,129.09Z"/><path class="cls-14" d="M219.17,129.09v68.56H177.22V129.09c0-5,4.68-9.14,10.38-9.14h21.2C214.5,120,219.17,124.07,219.17,129.09Z"/><ellipse class="cls-15" cx="184.93" cy="139.56" rx="38.53" ry="33.95"/><ellipse class="cls-15" cx="51.37" cy="139.56" rx="38.53" ry="33.95"/><path class="cls-15" d="M202.05,159.18c0,40-36.8,72.42-82.19,72.42s-82.19-32.43-82.19-72.42c0-28.11,18.18-52.49,44.74-64.49,7.66,10.22,20.81,17,35.74,17,15.47,0,29-7.24,36.55-18.08C182.67,105.12,202.05,130.15,202.05,159.18Z"/><path class="cls-14" d="M162.67,218v8.3a39.62,39.62,0,0,1-.26,4.52c-2.38,21.55-21.56,38.48-44.69,38.48S75.41,252.39,73,230.84a42.06,42.06,0,0,1-.25-4.52V218a41.07,41.07,0,0,1,.38-5.58C76,191.4,95,175,117.72,175a45.86,45.86,0,0,1,31.75,12.63,42.34,42.34,0,0,1,12.82,24.79A41.07,41.07,0,0,1,162.67,218Z"/><path class="cls-16" d="M210.61,138.88V144c0,14.15-13.13,25.73-29.19,25.73H54C38,169.74,24.83,158.16,24.83,144v-5.13a20.23,20.23,0,0,1,.17-2.71c1.54-12.9,14-23,29-23h127.4c15,0,27.48,10.11,29,23A20.23,20.23,0,0,1,210.61,138.88Z"/><path class="cls-14" d="M210.44,136.17c-1.54,12.89-14,23-29,23H54c-15,0-27.48-10.12-29-23,1.54-12.9,14-23,29-23h127.4C196.43,113.16,208.9,123.27,210.44,136.17Z"/><rect class="cls-17" x="153.25" y="120.7" width="31.68" height="5.28" rx="1.95"/><rect class="cls-18" x="117.29" y="230.84" width="37.67" height="233.11"/><rect class="cls-19" x="79.62" y="230.84" width="37.67" height="233.11"/><path class="cls-18" d="M162.42,230.84a40.77,40.77,0,0,1-2.06,9,42.26,42.26,0,0,1-5.4,10.42,45.55,45.55,0,0,1-37.24,19h-.43a45.5,45.5,0,0,1-37.67-20.25,41.64,41.64,0,0,1-4.53-9.17,40.23,40.23,0,0,1-2.07-9Z"/><rect class="cls-20" x="138.69" y="330.42" width="10.27" height="54.32" rx="3.34"/><rect class="cls-18" x="89.04" y="330.42" width="10.27" height="54.32" rx="3.34"/><path class="cls-21" d="M162.42,230.84a40.77,40.77,0,0,1-2.06,9H75.09a40.23,40.23,0,0,1-2.07-9Z"/><path class="cls-18" d="M84.76,230.84v9.43a2,2,0,0,1-2.14,1.89,2.32,2.32,0,0,1-1.52-.55,1.81,1.81,0,0,1-.62-1.34v-9.43Z"/><path class="cls-18" d="M153.25,230.84v9.43a2,2,0,0,1-2.14,1.89,2.32,2.32,0,0,1-1.52-.55,1.81,1.81,0,0,1-.62-1.34v-9.43Z"/><path class="cls-18" d="M102.74,230.84v9.43a2,2,0,0,1-2.14,1.89,2.32,2.32,0,0,1-1.52-.55,1.81,1.81,0,0,1-.62-1.34v-9.43Z"/><path class="cls-18" d="M136.13,230.84v9.43a2,2,0,0,1-2.14,1.89,2.32,2.32,0,0,1-1.52-.55,1.81,1.81,0,0,1-.62-1.34v-9.43Z"/><path class="cls-22" d="M189.21,463c0,.31,0,.61,0,.91H125.87c0-.3,0-.6,0-.91a20.48,20.48,0,0,1,.32-3.62A18.61,18.61,0,0,1,130,450.9a12.84,12.84,0,0,1,9.89-5.06h35.36c6.69,0,12.32,5.84,13.68,13.58A20.48,20.48,0,0,1,189.21,463Z"/><path class="cls-23" d="M108.73,463c0,.31,0,.61,0,.91H45.39c0-.3,0-.6,0-.91a21.47,21.47,0,0,1,.31-3.62,18.72,18.72,0,0,1,3.79-8.52,12.84,12.84,0,0,1,9.89-5.06H94.73c6.69,0,12.32,5.84,13.68,13.58A20.48,20.48,0,0,1,108.73,463Z"/><path class="cls-24" d="M108.41,459.42a20.48,20.48,0,0,1,.32,3.62c0,.31,0,.61,0,.91H45.39c0-.3,0-.6,0-.91a21.47,21.47,0,0,1,.31-3.62Z"/><path class="cls-24" d="M189.21,463c0,.31,0,.61,0,.91H125.87c0-.3,0-.6,0-.91a20.48,20.48,0,0,1,.32-3.62h62.72A20.48,20.48,0,0,1,189.21,463Z"/><rect class="cls-24" x="67.57" y="442.82" width="4.35" height="7.54" rx="1.41"/><rect class="cls-24" x="72.71" y="442.82" width="4.35" height="7.54" rx="1.41"/><rect class="cls-24" x="62.5" y="442.82" width="4.35" height="7.54" rx="1.41"/><rect class="cls-24" x="164.31" y="442.82" width="4.35" height="7.54" rx="1.41"/><rect class="cls-24" x="169.45" y="442.82" width="4.35" height="7.54" rx="1.41"/><rect class="cls-24" x="159.24" y="442.82" width="4.35" height="7.54" rx="1.41"/></svg>