<svg id="Слой_1" data-name="Слой 1" xmlns="http://www.w3.org/2000/svg" viewBox="0 0 89 170"><defs><style>.cls-1{fill:#ffc5af;}.cls-2{fill:#eaaca5;}.cls-3{fill:#ffd1af;}.cls-4{fill:#ffe5db;}.cls-5{fill:#c88696;}.cls-6{fill:#daf0ff;}.cls-7,.cls-9{fill:#fff;}.cls-8{fill:#e24478;}.cls-9{opacity:0.51;}.cls-10{fill:#e46c4e;}.cls-11{fill:#ffffa2;opacity:0.54;}</style></defs><title>Мелкий</title><rect class="cls-1" x="62.93" y="107.99" width="21.63" height="31.55" rx="10.71" transform="translate(147.49 247.53) rotate(180)"/><path class="cls-2" d="M61.58,138.36c0,7.41,5.75,13.42,12.84,13.42s12.84-6,12.84-13.42a14,14,0,0,0-.91-5,12.87,12.87,0,0,0-11.93-8.43A13.1,13.1,0,0,0,61.6,137.69C61.58,137.92,61.58,138.14,61.58,138.36Z"/><path class="cls-1" d="M61.6,137.69a12.85,12.85,0,0,0,11.92,8.44,13.11,13.11,0,0,0,12.83-12.76,12.87,12.87,0,0,0-11.93-8.43A13.1,13.1,0,0,0,61.6,137.69Z"/><rect class="cls-2" x="80.96" y="120.23" width="5.41" height="2.35" rx="1.14" transform="translate(167.32 242.82) rotate(180)"/><rect class="cls-2" x="80.96" y="123.53" width="5.41" height="2.35" rx="1.14" transform="translate(167.32 249.41) rotate(180)"/><rect class="cls-2" x="80.96" y="126.82" width="5.41" height="2.35" rx="1.14" transform="translate(167.32 256) rotate(180)"/><rect class="cls-1" x="2.84" y="107.99" width="21.63" height="31.55" rx="10.71"/><path class="cls-2" d="M25.82,138.36c0,7.41-5.75,13.42-12.84,13.42S.14,145.77.14,138.36a13.74,13.74,0,0,1,.92-5A12.85,12.85,0,0,1,13,124.94a13.11,13.11,0,0,1,12.83,12.75C25.82,137.92,25.82,138.14,25.82,138.36Z"/><path class="cls-1" d="M25.81,137.69a12.87,12.87,0,0,1-11.93,8.44A13.11,13.11,0,0,1,1.06,133.37,12.85,12.85,0,0,1,13,124.94,13.11,13.11,0,0,1,25.81,137.69Z"/><rect class="cls-2" x="1.04" y="120.23" width="5.41" height="2.35" rx="1.14"/><rect class="cls-2" x="1.04" y="123.53" width="5.41" height="2.35" rx="1.14"/><rect class="cls-2" x="1.04" y="126.82" width="5.41" height="2.35" rx="1.14"/><path class="cls-3" d="M52,145.78v13.3c0,5.39,2.63,9.78,5.85,9.78h2.91c3.22,0,5.85-4.39,5.85-9.78v-13.3q0-.69-.06-1.35c-.4-4.76-2.85-8.43-5.79-8.43H57.86c-2.94,0-5.4,3.67-5.79,8.43Q52,145.09,52,145.78Z"/><path class="cls-3" d="M49.49,167.22v2.71h27.7v-2.71c0-3.21-2-5.83-4.46-5.83H54C51.5,161.39,49.49,164,49.49,167.22Z"/><path class="cls-3" d="M59.06,166.89v3H74.67v-3c0-3-1.89-5.5-4.21-5.5H63.28C61,161.39,59.06,163.87,59.06,166.89Z"/><path class="cls-3" d="M61.58,166.89v3H77.19v-3c0-3-1.9-5.5-4.21-5.5H65.8C63.48,161.39,61.58,163.87,61.58,166.89Z"/><rect class="cls-4" x="56.04" y="157.12" width="7.55" height="2.14" rx="1.04" transform="translate(119.64 316.37) rotate(-180)"/><rect class="cls-4" x="64.6" y="162.46" width="10.58" height="2.67" rx="1.3" transform="translate(139.78 327.58) rotate(-180)"/><path class="cls-3" d="M33.88,145.78v13.3c0,5.39-2.63,9.78-5.85,9.78H25.12c-3.21,0-5.84-4.39-5.84-9.78v-13.3c0-.46,0-.91,0-1.35.4-4.76,2.85-8.43,5.79-8.43H28c2.95,0,5.4,3.67,5.8,8.43C33.86,144.87,33.88,145.32,33.88,145.78Z"/><path class="cls-3" d="M36.4,167.22v2.71H8.7v-2.71c0-3.21,2-5.83,4.47-5.83H31.93C34.39,161.39,36.4,164,36.4,167.22Z"/><path class="cls-3" d="M26.83,166.89v3H11.22v-3c0-3,1.9-5.5,4.21-5.5h7.18C24.93,161.39,26.83,163.87,26.83,166.89Z"/><path class="cls-3" d="M24.31,166.89v3H8.7v-3c0-3,1.9-5.5,4.22-5.5h7.17C22.41,161.39,24.31,163.87,24.31,166.89Z"/><rect class="cls-4" x="22.3" y="157.12" width="7.55" height="2.14" rx="1.04"/><rect class="cls-4" x="10.71" y="162.46" width="10.58" height="2.67" rx="1.3"/><path class="cls-5" d="M22.8,47.65V62.07H7.44c-4.31,0-7.8-3.23-7.8-7.21a6.53,6.53,0,0,1,.15-1.4,7,7,0,0,1,2.13-3.7,8.14,8.14,0,0,1,5.52-2.11Z"/><path class="cls-2" d="M22.8,47.65V59.28H7.44A7.66,7.66,0,0,1-.21,53.46a7,7,0,0,1,2.13-3.7,8.14,8.14,0,0,1,5.52-2.11Z"/><path class="cls-5" d="M4,56.48H4a1.58,1.58,0,0,1,0-2.13l3.78-3.83a1.36,1.36,0,0,1,2,0h0a1.57,1.57,0,0,1,0,2.13L6,56.52A1.37,1.37,0,0,1,4,56.48Z"/><path class="cls-5" d="M9.58,56.38l-.07.07a1.4,1.4,0,0,1-2.06-.05l-3.2-3.54a1.63,1.63,0,0,1,0-2.2l.07-.07a1.42,1.42,0,0,1,2.07,0l3.2,3.55A1.62,1.62,0,0,1,9.58,56.38Z"/><path class="cls-5" d="M65.61,47.65V62.07H81c4.31,0,7.81-3.23,7.81-7.21a6,6,0,0,0-.16-1.4,7,7,0,0,0-2.13-3.7A8.13,8.13,0,0,0,81,47.65Z"/><path class="cls-2" d="M65.61,47.65V59.28H81a7.66,7.66,0,0,0,7.65-5.82,7,7,0,0,0-2.13-3.7A8.13,8.13,0,0,0,81,47.65Z"/><path class="cls-5" d="M84.39,56.48h0a1.59,1.59,0,0,0,0-2.13l-3.78-3.83a1.36,1.36,0,0,0-2,0h0a1.57,1.57,0,0,0,0,2.13l3.77,3.82A1.38,1.38,0,0,0,84.39,56.48Z"/><path class="cls-5" d="M78.83,56.38l.07.07A1.41,1.41,0,0,0,81,56.4l3.19-3.54a1.63,1.63,0,0,0,0-2.2l-.07-.07a1.42,1.42,0,0,0-2.07,0l-3.2,3.55A1.63,1.63,0,0,0,78.83,56.38Z"/><path class="cls-6" d="M78,137a11.49,11.49,0,0,1-11,8.9H21A11.49,11.49,0,0,1,10,137Z"/><rect class="cls-3" x="12.23" y="1.66" width="63.46" height="108.93"/><path class="cls-2" d="M12.23,7.66H75.68a0,0,0,0,1,0,0V61.9A31.73,31.73,0,0,1,44,93.63h0A31.73,31.73,0,0,1,12.23,61.9V7.66a0,0,0,0,1,0,0Z"/><path class="cls-3" d="M12.23.66H75.68a0,0,0,0,1,0,0V54.9A31.73,31.73,0,0,1,44,86.63h0A31.73,31.73,0,0,1,12.23,54.9V.66a0,0,0,0,1,0,0Z"/><path d="M72.16,47.65A30.06,30.06,0,0,1,62.5,69.93a26.51,26.51,0,0,1-35.76.3,30,30,0,0,1-10-22.58Z"/><path class="cls-7" d="M67.12,47.65v4.54a3.38,3.38,0,0,1-3.27,3.47H25.07a3.38,3.38,0,0,1-3.28-3.47V47.65Z"/><path class="cls-8" d="M62.5,69.93a26.51,26.51,0,0,1-35.76.3,20.31,20.31,0,0,1,35.76-.3Z"/><rect class="cls-9" x="36.4" y="63.14" width="16.62" height="5.87" rx="2.85"/><path class="cls-2" d="M19.31,24.42a17.32,17.32,0,0,1-.58,4.49,16.47,16.47,0,0,1-1.2,3.17,14.24,14.24,0,0,1-5.3,5.86v-27a13.58,13.58,0,0,1,3.62,3.21,16,16,0,0,1,1.23,1.81A16.77,16.77,0,0,1,19.15,22,19,19,0,0,1,19.31,24.42Z"/><path class="cls-2" d="M40,23.62A16.71,16.71,0,0,1,39.43,28,15.63,15.63,0,0,1,38.29,31C36.13,35.2,32.14,38,27.59,38a12,12,0,0,1-10.06-6,14.89,14.89,0,0,1-1.32-2.65,16.47,16.47,0,0,1-1.05-5.81,15.76,15.76,0,0,1,.18-2.4,15.41,15.41,0,0,1,1.74-5.29,13.93,13.93,0,0,1,1.29-2A11.71,11.71,0,0,1,27.59,9.2a11.83,11.83,0,0,1,9.56,5.21,14.56,14.56,0,0,1,1.14,1.87A16.6,16.6,0,0,1,40,23.62Z"/><path class="cls-2" d="M61.41,23.62a16.31,16.31,0,0,1-.78,5,15.65,15.65,0,0,1-1.28,2.92A12.08,12.08,0,0,1,49,38C44.43,38,40.45,35.2,38.29,31A15,15,0,0,1,37.15,28a16.31,16.31,0,0,1-.59-4.41,17.16,17.16,0,0,1,.17-2.4,15.44,15.44,0,0,1,1.56-4.94,12.61,12.61,0,0,1,1.14-1.87,11.33,11.33,0,0,1,18.63-.63,14.85,14.85,0,0,1,1.29,1.88,15.51,15.51,0,0,1,1.88,5.56A15.76,15.76,0,0,1,61.41,23.62Z"/><path class="cls-2" d="M75.68,11V36.26a11.06,11.06,0,0,1-6,1.78,12.05,12.05,0,0,1-10.36-6.46,15,15,0,0,1-1.29-2.92,16.62,16.62,0,0,1-.78-5,16.44,16.44,0,0,1,2.07-8,13.69,13.69,0,0,1,1.29-1.89A11.68,11.68,0,0,1,69.7,9.2,11.06,11.06,0,0,1,75.68,11Z"/><path class="cls-2" d="M19.31,19.62a19.09,19.09,0,0,1-.16,2.4,17.29,17.29,0,0,1-1.62,5.25,14.33,14.33,0,0,1-1.32,2.16,13.46,13.46,0,0,1-4,3.7V10.91a13.58,13.58,0,0,1,3.62,3.21,16,16,0,0,1,1.23,1.81,14.8,14.8,0,0,1,1.28-2A17.19,17.19,0,0,1,19.31,19.62Z"/><path class="cls-2" d="M40,18.82a15.86,15.86,0,0,1-.18,2.4,15.63,15.63,0,0,1-1.55,4.93A14.68,14.68,0,0,1,37.15,28a11.82,11.82,0,0,1-9.56,5.2,11.61,11.61,0,0,1-8.86-4.31,13.13,13.13,0,0,1-1.2-1.65,15.39,15.39,0,0,1-2.19-6.05,15.86,15.86,0,0,1-.18-2.4,16.5,16.5,0,0,1,.68-4.71,15.73,15.73,0,0,1,1.24,1.82,13.93,13.93,0,0,1,1.29-2A11.71,11.71,0,0,1,27.59,9.2a11.83,11.83,0,0,1,9.56,5.21,14.56,14.56,0,0,1,1.14,1.87,12.61,12.61,0,0,1,1.14-1.87A16.71,16.71,0,0,1,40,18.82Z"/><path class="cls-2" d="M61.41,18.82a15.86,15.86,0,0,1-.18,2.4,15.57,15.57,0,0,1-1.88,5.56,16.43,16.43,0,0,1-1.29,1.88A11.34,11.34,0,0,1,39.43,28a12.71,12.71,0,0,1-1.14-1.88,15.39,15.39,0,0,1-1.56-4.93,17.27,17.27,0,0,1-.17-2.4,16.31,16.31,0,0,1,.59-4.41,14.56,14.56,0,0,1,1.14,1.87,12.61,12.61,0,0,1,1.14-1.87,11.33,11.33,0,0,1,18.63-.63,14.85,14.85,0,0,1,1.29,1.88,12.21,12.21,0,0,1,1.28-1.88A16.31,16.31,0,0,1,61.41,18.82Z"/><path class="cls-2" d="M75.68,11V31.45a11,11,0,0,1-6,1.78,11.65,11.65,0,0,1-9.07-4.57,14.22,14.22,0,0,1-1.29-1.88,16.44,16.44,0,0,1-2.07-8,16.63,16.63,0,0,1,.78-5.05,13.69,13.69,0,0,1,1.29,1.89,13.69,13.69,0,0,1,1.29-1.89A11.68,11.68,0,0,1,69.7,9.2,11.06,11.06,0,0,1,75.68,11Z"/><rect class="cls-2" x="18.77" y="37.5" width="49.86" height="7.48" rx="3.63"/><path class="cls-7" d="M24.82,36.44h8.06a0,0,0,0,1,0,0v6.41a3.74,3.74,0,0,1-3.74,3.74h-.58a3.74,3.74,0,0,1-3.74-3.74V36.44A0,0,0,0,1,24.82,36.44Z"/><path d="M27.3,38.57h3.1a0,0,0,0,1,0,0v3.37A1.44,1.44,0,0,1,29,43.38h-.22a1.44,1.44,0,0,1-1.44-1.44V38.57a0,0,0,0,1,0,0Z"/><path class="cls-7" d="M55,36.44h8.06a0,0,0,0,1,0,0v6.41a3.74,3.74,0,0,1-3.74,3.74h-.58A3.74,3.74,0,0,1,55,42.84V36.44A0,0,0,0,1,55,36.44Z"/><path d="M57.51,38.57h3.1a0,0,0,0,1,0,0v3.37a1.44,1.44,0,0,1-1.44,1.44H59a1.44,1.44,0,0,1-1.44-1.44V38.57A0,0,0,0,1,57.51,38.57Z"/><rect class="cls-10" x="19.28" y="30.03" width="49.86" height="9.08" rx="4.41"/><rect class="cls-11" x="22.8" y="31.63" width="21.15" height="3.74" rx="1.82"/><path class="cls-3" d="M23.45,99.45H64.55A13.45,13.45,0,0,1,78,112.9v7.91a0,0,0,0,1,0,0H10a0,0,0,0,1,0,0V112.9A13.45,13.45,0,0,1,23.45,99.45Z"/><rect class="cls-3" x="10" y="118" width="68" height="19"/><rect class="cls-2" x="41" y="134" width="6" height="2" rx="1"/><rect class="cls-2" x="17" y="107" width="54" height="14" rx="7"/><rect class="cls-3" x="17" y="104" width="54" height="14" rx="7"/><rect class="cls-2" x="22" y="113" width="4" height="2" rx="1"/><rect class="cls-2" x="62" y="113" width="4" height="2" rx="1"/></svg>