<svg id="Слой_1" data-name="Слой 1" xmlns="http://www.w3.org/2000/svg" viewBox="0 0 201 305"><defs><style>.cls-1{fill:#cb4043;}.cls-2{fill:#e46c4e;}.cls-3{fill:#9f4043;}.cls-4{fill:#ffd1af;}.cls-5{fill:#eaaca5;}.cls-6{fill:#7a5cff;}.cls-7{fill:#ffe5db;}.cls-8{fill:#c88696;}.cls-11,.cls-9{fill:#fff;}.cls-10{fill:#e24478;}.cls-11{opacity:0.51;}.cls-12{fill:#c239ae;}.cls-13{fill:#b623ae;}.cls-14{fill:#9539ae;}.cls-15{fill:#867bff;}.cls-16{fill:#f26ee3;}.cls-17{fill:#ffffa2;opacity:0.54;}.cls-18{fill:#00031e;opacity:0.46;}</style></defs><title>Мелкий</title><path class="cls-1" d="M198,123.65a12.54,12.54,0,0,1-12.2,11.42,12.43,12.43,0,0,1,2.71,12.86,12.58,12.58,0,0,1-14.76,7.9,12.4,12.4,0,0,1-.72,13.11,12.6,12.6,0,0,1-16.3,3.83,12.51,12.51,0,0,1-9.47,15.11,12.33,12.33,0,0,1-6.28-.2,12.48,12.48,0,0,1-5.11-2.93A12.57,12.57,0,0,1,112.57,191a12.56,12.56,0,0,1-7.87,8.23,11.64,11.64,0,0,1-2,.52,13,13,0,0,1-2.22.2,12.57,12.57,0,0,1-12-9,2.51,2.51,0,0,1-.2.29,12.27,12.27,0,0,1-4.87,4.36,12.58,12.58,0,0,1-16.58-5,12.76,12.76,0,0,1-1.19-2.88,12.49,12.49,0,0,1-.42-2.94,12.46,12.46,0,0,1-5.1,2.94l-.49.13a12.45,12.45,0,0,1-5.73.09,13.2,13.2,0,0,1-1.6-.46,12.47,12.47,0,0,1-7.94-14.68A12.59,12.59,0,0,1,31.18,172a12.44,12.44,0,0,1-3.85-16.21,12.6,12.6,0,0,1-12.55-4.1,12.45,12.45,0,0,1,.5-16.65A12.49,12.49,0,0,1,9,111.93,12.48,12.48,0,0,1,9,88,12.47,12.47,0,0,1,3.09,76.28a0,0,0,0,1,0,0A12.54,12.54,0,0,1,15.28,64.83a12.51,12.51,0,0,1,12-20.76A12.42,12.42,0,0,1,28.06,31a12.6,12.6,0,0,1,16.3-3.83,12.43,12.43,0,0,1,4.11-12.47,12.6,12.6,0,0,1,16.74.49A12.57,12.57,0,0,1,88.48,9a12.58,12.58,0,0,1,24.09,0,12.57,12.57,0,0,1,23.26,6.2,12.56,12.56,0,0,1,20.87,12,12.61,12.61,0,0,1,13.17.73,12.45,12.45,0,0,1,3.85,16.21,12.65,12.65,0,0,1,12.55,4.1,12.45,12.45,0,0,1-.51,16.66A12.53,12.53,0,0,1,198,76.25h0A12.46,12.46,0,0,1,192,88a12.48,12.48,0,0,1,0,24A12.48,12.48,0,0,1,198,123.65Z"/><path class="cls-2" d="M198,76.25h0a12.55,12.55,0,0,1-12.2,11.43,12.41,12.41,0,0,1,2.71,12.85,12.57,12.57,0,0,1-14.76,7.9,12.4,12.4,0,0,1-.72,13.11,12.6,12.6,0,0,1-16.3,3.83,12.4,12.4,0,0,1-.35,7,11.72,11.72,0,0,1-1.83,3.43,12.08,12.08,0,0,1-1,1.22,8.18,8.18,0,0,1-.68.63l-.21.19a12.54,12.54,0,0,1-3.14,1.93,12.64,12.64,0,0,1-6.56.91,12.73,12.73,0,0,1-7-3.33,12.47,12.47,0,0,1-3.6,8.44,12,12,0,0,1-2.57,2,10.57,10.57,0,0,1-1,.56l-.65.28a12.6,12.6,0,0,1-15.39-5.07,12.36,12.36,0,0,1-1.92,3.84,12.56,12.56,0,0,1-7.92,4.91,12.61,12.61,0,0,1-11.47-3.85,12.32,12.32,0,0,1-2.78-4.91,12.54,12.54,0,0,1-11.78,5.93,12.33,12.33,0,0,1-3.19-.69,12.73,12.73,0,0,1-4.69-3l-.09-.1c-.14-.14-.27-.28-.41-.44,0,0,0,0,0,0a12.41,12.41,0,0,1-3.1-7.91,12.51,12.51,0,0,1-5.59,3.06,11.8,11.8,0,0,1-2.91.39,12.21,12.21,0,0,1-3.52-.46c-.3-.08-.6-.17-.9-.28s-.62-.24-.92-.37a12.56,12.56,0,0,1-1.9-1.07,12.35,12.35,0,0,1-2.61-2.38,12,12,0,0,1-1.55-2.38,12.37,12.37,0,0,1-1-8.49,12.59,12.59,0,0,1-13.18-.72,12.43,12.43,0,0,1-3.85-16.2,12.63,12.63,0,0,1-12.55-4.11,12.45,12.45,0,0,1,.5-16.65A12.55,12.55,0,0,1,3.09,76.28a0,0,0,0,1,0,0A12.54,12.54,0,0,1,15.28,64.83a12.51,12.51,0,0,1,12-20.76A12.42,12.42,0,0,1,28.06,31a12.6,12.6,0,0,1,16.3-3.83,12.43,12.43,0,0,1,4.11-12.47,12.6,12.6,0,0,1,16.74.49A12.57,12.57,0,0,1,88.48,9a12.58,12.58,0,0,1,24.09,0,12.57,12.57,0,0,1,23.26,6.2,12.56,12.56,0,0,1,20.87,12,12.61,12.61,0,0,1,13.17.73,12.45,12.45,0,0,1,3.85,16.21,12.65,12.65,0,0,1,12.55,4.1,12.45,12.45,0,0,1-.51,16.66A12.53,12.53,0,0,1,198,76.25Z"/><path class="cls-3" d="M68.73,136.23v20H47.48c-6,0-10.8-4.48-10.8-10a8.78,8.78,0,0,1,.21-1.93,9.8,9.8,0,0,1,3-5.14,11.28,11.28,0,0,1,7.64-2.93Z"/><path class="cls-3" d="M128,136.23v20h21.25c6,0,10.8-4.48,10.8-10a8.78,8.78,0,0,0-.21-1.93,9.8,9.8,0,0,0-3-5.14,11.28,11.28,0,0,0-7.64-2.93Z"/><path class="cls-4" d="M154.52,222.12v21.07a10.73,10.73,0,0,1-10.08,10.68l-.63,0h-7a10.72,10.72,0,0,1-6.49-2.21,10.1,10.1,0,0,1-1.55-1.44,10.57,10.57,0,0,1-2.62-6.08,7.78,7.78,0,0,1,0-1V222.12a10.77,10.77,0,0,1,8.48-10.47,10.23,10.23,0,0,1,2.23-.24h7a10.23,10.23,0,0,1,2.36.27A10.74,10.74,0,0,1,154.52,222.12Z"/><path class="cls-5" d="M158.06,252.31c0,10-7.54,18.07-16.84,18.07a15.76,15.76,0,0,1-6.94-1.6,17.35,17.35,0,0,1-7-6.31,19,19,0,0,1-2.91-10.16c0-.21,0-.42,0-.63a2.17,2.17,0,0,1,0-.26c0-.4,0-.79.09-1.18a18.86,18.86,0,0,1,1.7-6.08,16.74,16.74,0,0,1,15-9.92,15.79,15.79,0,0,1,4.92.79h0a16.4,16.4,0,0,1,4.05,2,17.88,17.88,0,0,1,3.29,2.92c.35.41.7.84,1,1.28a18.26,18.26,0,0,1,2.34,4.36A19.12,19.12,0,0,1,158.06,252.31Z"/><path class="cls-4" d="M156.86,245.59c-.44,9.57-7.8,17.18-16.83,17.18a15.69,15.69,0,0,1-5-.81q-.37-.12-.75-.27a17.47,17.47,0,0,1-9.78-10c0-.09-.07-.17-.1-.26,0-.4,0-.79.09-1.18a18.86,18.86,0,0,1,1.7-6.08,16.74,16.74,0,0,1,15-9.92,15.79,15.79,0,0,1,4.92.79h0a16.4,16.4,0,0,1,4.05,2,17.88,17.88,0,0,1,3.29,2.92c.35.41.7.84,1,1.28A18.26,18.26,0,0,1,156.86,245.59Z"/><path class="cls-5" d="M156.88,229v.89a1.15,1.15,0,0,1-1.14,1.14h-4.81a1.15,1.15,0,0,1-1.14-1.14V229a1.14,1.14,0,0,1,1.14-1.14h4.81A1.14,1.14,0,0,1,156.88,229Z"/><path class="cls-5" d="M156.88,233.48v.88a1.15,1.15,0,0,1-1.14,1.15h-4.81a1.15,1.15,0,0,1-1.14-1.15v-.88a1.14,1.14,0,0,1,1.14-1.14h4.81A1.14,1.14,0,0,1,156.88,233.48Z"/><path class="cls-5" d="M156.88,237.92v.88a1.15,1.15,0,0,1-1.14,1.15h-4.81a1.15,1.15,0,0,1-1.14-1.15v-.88a1.14,1.14,0,0,1,.43-.89,1.1,1.1,0,0,1,.71-.25h4.81A1.14,1.14,0,0,1,156.88,237.92Z"/><path class="cls-4" d="M75.7,222.12v21.07a7.78,7.78,0,0,1,0,1A10.57,10.57,0,0,1,73,250.24a10.1,10.1,0,0,1-1.55,1.44,10.62,10.62,0,0,1-5.9,2.2H58a10.72,10.72,0,0,1-10.7-10.7V222.12a10.75,10.75,0,0,1,9-10.58,11.82,11.82,0,0,1,1.7-.13H65.1a10.59,10.59,0,0,1,6.31,2.16A10.71,10.71,0,0,1,75.7,222.12Z"/><path class="cls-5" d="M77.47,252.31A18.94,18.94,0,0,1,74.85,262c-.09.16-.19.32-.29.48a17.67,17.67,0,0,1-5.14,5.26,16.42,16.42,0,0,1-3.84,1.86,16,16,0,0,1-5,.79c-9.3,0-16.84-8.09-16.84-18.07A18.9,18.9,0,0,1,45,245.59a18.33,18.33,0,0,1,2.34-4.37c.31-.44.65-.86,1-1.27A17.88,17.88,0,0,1,51.62,237a16.2,16.2,0,0,1,4.71-2.19h0a15.56,15.56,0,0,1,4.27-.59,16.74,16.74,0,0,1,15,9.92,18.62,18.62,0,0,1,1.71,6.08c0,.39.07.78.09,1.18,0,.08,0,.17,0,.26S77.47,252.1,77.47,252.31Z"/><path class="cls-4" d="M77.45,251.42c0,.09-.07.17-.1.26a17.4,17.4,0,0,1-10.23,10.17,13,13,0,0,1-1.54.46,15.63,15.63,0,0,1-3.77.46c-9,0-16.39-7.61-16.82-17.18a18.33,18.33,0,0,1,2.34-4.37c.31-.44.65-.86,1-1.27A17.88,17.88,0,0,1,51.62,237a16.2,16.2,0,0,1,4.71-2.19h0a15.56,15.56,0,0,1,4.27-.59,16.74,16.74,0,0,1,15,9.92,18.62,18.62,0,0,1,1.71,6.08C77.4,250.63,77.43,251,77.45,251.42Z"/><path class="cls-5" d="M52.05,229v.89a1.15,1.15,0,0,1-1.14,1.14H46.1A1.15,1.15,0,0,1,45,229.93V229a1.15,1.15,0,0,1,1.14-1.14h4.81A1.14,1.14,0,0,1,52.05,229Z"/><path class="cls-5" d="M52.05,233.48v.88a1.15,1.15,0,0,1-1.14,1.15H46.1A1.15,1.15,0,0,1,45,234.36v-.88a1.15,1.15,0,0,1,1.14-1.14h4.81A1.14,1.14,0,0,1,52.05,233.48Z"/><path class="cls-5" d="M52.05,237.92v.88A1.15,1.15,0,0,1,50.91,240H46.1A1.15,1.15,0,0,1,45,238.8v-.88a1.15,1.15,0,0,1,1.14-1.14h4.81a1.1,1.1,0,0,1,.71.25A1.14,1.14,0,0,1,52.05,237.92Z"/><path class="cls-4" d="M131,271.17V284c0,.27,0,.53,0,.79a11,11,0,0,1-.86,3.6,8,8,0,0,1-5.72,4.94,6.15,6.15,0,0,1-1.06.09h-3.82c-4.18,0-7.61-4.16-7.67-9.29V271.17c0-.45,0-.88.07-1.31a9.34,9.34,0,0,1,4.68-7.39,6.28,6.28,0,0,1,2.92-.72h3.82a6.28,6.28,0,0,1,2.92.72,9.34,9.34,0,0,1,4.67,7.39A11.24,11.24,0,0,1,131,271.17Z"/><path class="cls-5" d="M131,270.89v6H111.82v-6a8.76,8.76,0,0,1,.07-1h19A7,7,0,0,1,131,270.89Z"/><path class="cls-4" d="M144.85,291.17v3.66H108.52v-3.66a8.46,8.46,0,0,1,3.3-7.07,4.67,4.67,0,0,1,2.56-.78H139C142.21,283.32,144.85,286.85,144.85,291.17Z"/><path class="cls-6" d="M141.55,290.73v4.1H121.07v-4.1c0-4.07,2.49-7.41,5.53-7.41H136a4.62,4.62,0,0,1,3.25,1.44,7.56,7.56,0,0,1,2,3.55A9.55,9.55,0,0,1,141.55,290.73Z"/><path class="cls-4" d="M144.85,290.73v4.1H124.37v-4.1c0-4.07,2.49-7.41,5.54-7.41h9.41C142.36,283.32,144.85,286.66,144.85,290.73Z"/><rect class="cls-6" x="105.21" y="294.83" width="42.94" height="1.44"/><rect class="cls-7" x="117.1" y="277.57" width="9.91" height="2.88" rx="1.04" transform="translate(244.12 558.02) rotate(-180)"/><rect class="cls-7" x="128.34" y="284.76" width="13.87" height="3.6" rx="1.3" transform="translate(270.54 573.12) rotate(-180)"/><path class="cls-4" d="M88,271.17V284.1c-.06,5.13-3.49,9.29-7.67,9.29H76.55a6.15,6.15,0,0,1-1.06-.09,8,8,0,0,1-5.72-4.94,11,11,0,0,1-.86-3.6c0-.26,0-.52,0-.79v-12.8c0-.45,0-.88.07-1.31a11.19,11.19,0,0,1,.47-2.13,8.79,8.79,0,0,1,4.21-5.26,6.07,6.07,0,0,1,1.22-.48,6,6,0,0,1,1.7-.24h3.82a6.28,6.28,0,0,1,2.92.72A9.37,9.37,0,0,1,88,269.86C88,270.29,88,270.72,88,271.17Z"/><path class="cls-5" d="M88,270.89v6H68.88v-6a8.76,8.76,0,0,1,.07-1H88A8.76,8.76,0,0,1,88,270.89Z"/><path class="cls-4" d="M91.34,291.17v3.66H55v-3.66c0-4.32,2.64-7.85,5.86-7.85H85.48a4.67,4.67,0,0,1,2.56.78A8.46,8.46,0,0,1,91.34,291.17Z"/><path class="cls-6" d="M78.79,290.73v4.1H58.31v-4.1a9.55,9.55,0,0,1,.31-2.42,7.56,7.56,0,0,1,2-3.55,4.62,4.62,0,0,1,3.25-1.44h9.41C76.3,283.32,78.79,286.66,78.79,290.73Z"/><path class="cls-4" d="M75.49,290.73v4.1H55v-4.1c0-4.07,2.49-7.41,5.53-7.41H70C73,283.32,75.49,286.66,75.49,290.73Z"/><rect class="cls-6" x="51.71" y="294.83" width="42.93" height="1.44"/><rect class="cls-7" x="72.85" y="277.57" width="9.91" height="2.88" rx="1.04"/><rect class="cls-7" x="57.65" y="284.76" width="13.87" height="3.6" rx="1.3"/><rect class="cls-6" x="65.58" y="251.68" width="25.76" height="20.86"/><rect class="cls-6" x="108.52" y="251.68" width="25.76" height="20.86"/><path class="cls-8" d="M73.51,130.16v19.41H53.36a10,10,0,0,1-10.24-9.71,8.39,8.39,0,0,1,.2-1.88,9.45,9.45,0,0,1,2.8-5,10.51,10.51,0,0,1,7.24-2.84Z"/><path class="cls-5" d="M73.51,130.16v15.65H53.36a10.1,10.1,0,0,1-10-7.83,9.45,9.45,0,0,1,2.8-5,10.51,10.51,0,0,1,7.24-2.84Z"/><path class="cls-8" d="M48.88,142h0a2.15,2.15,0,0,1,.06-2.86l5-5.15a1.76,1.76,0,0,1,2.63.06h0a2.16,2.16,0,0,1-.06,2.86l-5,5.16A1.75,1.75,0,0,1,48.88,142Z"/><path class="cls-8" d="M56.17,141.92l-.09.09a1.82,1.82,0,0,1-2.72-.06l-4.19-4.78a2.23,2.23,0,0,1,.06-2.95l.09-.1a1.82,1.82,0,0,1,2.71.07l4.2,4.77A2.24,2.24,0,0,1,56.17,141.92Z"/><path class="cls-8" d="M129.66,130.16v19.41H149.8A10,10,0,0,0,160,139.86a9,9,0,0,0-.19-1.88,9.54,9.54,0,0,0-2.81-5,10.51,10.51,0,0,0-7.24-2.84Z"/><path class="cls-5" d="M129.66,130.16v15.65H149.8a10.11,10.11,0,0,0,10-7.83,9.54,9.54,0,0,0-2.81-5,10.51,10.51,0,0,0-7.24-2.84Z"/><path class="cls-8" d="M154.28,142h0a2.16,2.16,0,0,0-.05-2.86l-5-5.15a1.75,1.75,0,0,0-2.62.06h0a2.16,2.16,0,0,0,0,2.86l5,5.16A1.75,1.75,0,0,0,154.28,142Z"/><path class="cls-8" d="M147,141.92l.09.09a1.81,1.81,0,0,0,2.71-.06l4.2-4.78a2.23,2.23,0,0,0-.07-2.95l-.09-.1a1.82,1.82,0,0,0-2.71.07l-4.2,4.77A2.24,2.24,0,0,0,147,141.92Z"/><rect class="cls-5" x="59.63" y="66.88" width="83.23" height="146.7"/><path class="cls-4" d="M59.63,66.88h83.23a0,0,0,0,1,0,0v84a31.73,31.73,0,0,1-31.73,31.73H91.36a31.73,31.73,0,0,1-31.73-31.73v-84a0,0,0,0,1,0,0Z"/><path d="M138.24,130.16a40.94,40.94,0,0,1-12.66,30,34.1,34.1,0,0,1-46.9.41,40.93,40.93,0,0,1-13.1-30.41Z"/><path class="cls-9" d="M131.64,130.16v6.11a4.49,4.49,0,0,1-4.3,4.67H76.48a4.5,4.5,0,0,1-4.3-4.67v-6.11Z"/><path class="cls-10" d="M125.58,160.16a34.1,34.1,0,0,1-46.9.41C83.45,151.83,92.22,146,102.24,146S120.76,151.65,125.58,160.16Z"/><rect class="cls-11" x="91.34" y="151.01" width="21.8" height="7.91" rx="2.85"/><rect class="cls-12" x="56.33" y="199.91" width="89.84" height="28.76"/><rect class="cls-13" x="56.33" y="199.19" width="89.84" height="10.07"/><path class="cls-14" d="M151.46,193.39v4.41a5.71,5.71,0,0,1-5.29,5.68l-.42,0H55.43a5.72,5.72,0,0,1-5.71-5.7v-4.41a5.7,5.7,0,0,1,4.18-5.49,5.15,5.15,0,0,1,1.53-.22h90.32a5.49,5.49,0,0,1,1.47.2A5.72,5.72,0,0,1,151.46,193.39Z"/><path class="cls-6" d="M146.17,228.67v17.62a17.16,17.16,0,0,1-1.73,7.58A15.13,15.13,0,0,1,135,262l-.75.19a13.86,13.86,0,0,1-3,.32H71.19a14.2,14.2,0,0,1-5.61-1.19,15.44,15.44,0,0,1-7.51-7.39,17.22,17.22,0,0,1-1.74-7.6V228.67Z"/><path class="cls-15" d="M146.17,228.67v5.4c0,8.93-6.65,16.17-14.86,16.17H71.19c-8.21,0-14.86-7.24-14.86-16.17v-5.4Z"/><rect class="cls-16" x="56.33" y="190.56" width="32.37" height="5.03" rx="1.82"/><rect class="cls-16" x="60.29" y="210.69" width="5.28" height="14.38" rx="2.01"/><rect class="cls-16" x="80.77" y="214.29" width="6.61" height="12.22" rx="2.14"/><rect class="cls-16" x="133.62" y="211.41" width="5.28" height="12.22" rx="1.91"/><rect class="cls-16" x="110.5" y="213.57" width="3.3" height="13.66" rx="1.26"/><rect class="cls-16" x="104.55" y="212.85" width="3.3" height="8.63" rx="1.26"/><path class="cls-5" d="M68.92,98.88a23.91,23.91,0,0,1-.76,6,22.85,22.85,0,0,1-1.57,4.27,19,19,0,0,1-7,7.89V80.68A18,18,0,0,1,64.38,85,20.25,20.25,0,0,1,66,87.44a22.74,22.74,0,0,1,2.71,8.2A24.72,24.72,0,0,1,68.92,98.88Z"/><path class="cls-5" d="M96.09,97.8a22.52,22.52,0,0,1-.78,5.93,21.19,21.19,0,0,1-1.49,4c-2.84,5.7-8.06,9.53-14,9.53-5.43,0-10.24-3.16-13.2-8a20,20,0,0,1-1.73-3.57,22.7,22.7,0,0,1-1.37-7.82,23,23,0,0,1,.23-3.24A21.33,21.33,0,0,1,66,87.44a18.38,18.38,0,0,1,1.69-2.65,15.23,15.23,0,0,1,12.1-6.41,15.39,15.39,0,0,1,12.53,7,18.13,18.13,0,0,1,1.5,2.53,21.44,21.44,0,0,1,2,6.64A23,23,0,0,1,96.09,97.8Z"/><path class="cls-5" d="M124.15,97.8a22.43,22.43,0,0,1-1,6.78,20.67,20.67,0,0,1-1.68,3.94c-2.92,5.24-7.92,8.69-13.59,8.69-6,0-11.2-3.83-14-9.53a21.21,21.21,0,0,1-1.5-4,22.52,22.52,0,0,1-.77-5.93,23,23,0,0,1,.23-3.24,21.44,21.44,0,0,1,2-6.64,19.11,19.11,0,0,1,1.49-2.53c3-4.28,7.49-7,12.54-7a15.18,15.18,0,0,1,11.9,6.16,18.37,18.37,0,0,1,1.69,2.54,21.57,21.57,0,0,1,2.48,7.48A23,23,0,0,1,124.15,97.8Z"/><path class="cls-5" d="M142.87,80.78v34a14.21,14.21,0,0,1-7.85,2.4c-5.67,0-10.67-3.45-13.58-8.69a20.08,20.08,0,0,1-1.69-3.94,22.47,22.47,0,0,1-1-6.78,22.88,22.88,0,0,1,.23-3.24,21.38,21.38,0,0,1,2.49-7.48,18.31,18.31,0,0,1,1.68-2.54A15.16,15.16,0,0,1,135,78.38,14.21,14.21,0,0,1,142.87,80.78Z"/><path class="cls-5" d="M68.92,92.4a24.72,24.72,0,0,1-.21,3.24,23.32,23.32,0,0,1-2.12,7.08,21.5,21.5,0,0,1-1.72,2.9,18,18,0,0,1-5.24,5V80.68A18,18,0,0,1,64.38,85,20.25,20.25,0,0,1,66,87.44a19.28,19.28,0,0,1,1.69-2.65A23.66,23.66,0,0,1,68.92,92.4Z"/><path class="cls-5" d="M96.09,91.32a22.88,22.88,0,0,1-.23,3.24,21.5,21.5,0,0,1-2,6.65,18.61,18.61,0,0,1-1.5,2.52,15.39,15.39,0,0,1-12.53,7,15.08,15.08,0,0,1-11.63-5.81,18.35,18.35,0,0,1-1.57-2.21,21.28,21.28,0,0,1-2.87-8.16,22.88,22.88,0,0,1-.23-3.24A22.57,22.57,0,0,1,64.38,85,22.1,22.1,0,0,1,66,87.44a18.38,18.38,0,0,1,1.69-2.65,15.23,15.23,0,0,1,12.1-6.41,15.39,15.39,0,0,1,12.53,7,18.13,18.13,0,0,1,1.5,2.53,19.11,19.11,0,0,1,1.49-2.53A22.52,22.52,0,0,1,96.09,91.32Z"/><path class="cls-5" d="M124.15,91.32a22.88,22.88,0,0,1-.23,3.24,21.7,21.7,0,0,1-2.48,7.49,18.89,18.89,0,0,1-1.69,2.53,15.18,15.18,0,0,1-11.9,6.16c-5,0-9.55-2.73-12.54-7a19.65,19.65,0,0,1-1.49-2.52,21.5,21.5,0,0,1-2-6.65,22.88,22.88,0,0,1-.23-3.24,22.52,22.52,0,0,1,.77-5.93,18.13,18.13,0,0,1,1.5,2.53,19.11,19.11,0,0,1,1.49-2.53c3-4.28,7.49-7,12.54-7a15.18,15.18,0,0,1,11.9,6.16,18.37,18.37,0,0,1,1.69,2.54,17.45,17.45,0,0,1,1.68-2.54A22.43,22.43,0,0,1,124.15,91.32Z"/><path class="cls-5" d="M142.87,80.78v27.56a14.21,14.21,0,0,1-7.85,2.4,15.16,15.16,0,0,1-11.9-6.16,18.82,18.82,0,0,1-1.68-2.53A21.5,21.5,0,0,1,119,94.56a22.88,22.88,0,0,1-.23-3.24,22.43,22.43,0,0,1,1-6.78,19.32,19.32,0,0,1,1.69,2.54,18.31,18.31,0,0,1,1.68-2.54A15.16,15.16,0,0,1,135,78.38,14.21,14.21,0,0,1,142.87,80.78Z"/><rect class="cls-5" x="68.22" y="116.49" width="65.4" height="10.07" rx="3.63"/><path class="cls-9" d="M76.15,115.06H86.72a0,0,0,0,1,0,0V125A3.74,3.74,0,0,1,83,128.72H79.89A3.74,3.74,0,0,1,76.15,125v-9.92A0,0,0,0,1,76.15,115.06Z"/><path d="M79.4,117.93h4.07a0,0,0,0,1,0,0v5A1.44,1.44,0,0,1,82,124.4H80.84A1.44,1.44,0,0,1,79.4,123v-5A0,0,0,0,1,79.4,117.93Z"/><path class="cls-9" d="M115.78,115.06h10.57a0,0,0,0,1,0,0V125a3.74,3.74,0,0,1-3.74,3.74h-3.09a3.74,3.74,0,0,1-3.74-3.74v-9.92A0,0,0,0,1,115.78,115.06Z"/><path d="M119,117.93h4.07a0,0,0,0,1,0,0v5a1.44,1.44,0,0,1-1.44,1.44h-1.19A1.44,1.44,0,0,1,119,123v-5A0,0,0,0,1,119,117.93Z"/><rect class="cls-2" x="68.88" y="106.43" width="65.4" height="12.22" rx="4.41"/><rect class="cls-17" x="73.51" y="108.58" width="27.74" height="5.03" rx="1.82"/><ellipse class="cls-1" cx="59.3" cy="82.34" rx="20.15" ry="21.93"/><ellipse class="cls-1" cx="89.03" cy="80.9" rx="20.15" ry="21.93"/><ellipse class="cls-1" cx="112.81" cy="80.9" rx="20.15" ry="21.93"/><ellipse class="cls-1" cx="143.2" cy="80.9" rx="20.15" ry="21.93"/><ellipse class="cls-2" cx="59.3" cy="73.71" rx="20.15" ry="21.93"/><ellipse class="cls-2" cx="89.03" cy="72.27" rx="20.15" ry="21.93"/><ellipse class="cls-2" cx="112.81" cy="72.27" rx="20.15" ry="21.93"/><ellipse class="cls-2" cx="143.2" cy="72.27" rx="20.15" ry="21.93"/><ellipse class="cls-17" cx="127.01" cy="32.36" rx="9.25" ry="10.07"/><ellipse class="cls-17" cx="59.63" cy="56.81" rx="9.25" ry="10.07"/><ellipse class="cls-3" cx="170.94" cy="142.02" rx="7.6" ry="8.27"/><ellipse class="cls-17" cx="163.02" cy="56.45" rx="7.6" ry="8.27"/><ellipse class="cls-17" cx="112.48" cy="70.47" rx="5.28" ry="5.75"/><ellipse class="cls-3" cx="27.26" cy="135.91" rx="5.28" ry="5.75"/><ellipse class="cls-17" cx="27.26" cy="72.63" rx="5.28" ry="5.75"/><ellipse class="cls-17" cx="134.61" cy="52.85" rx="0.99" ry="1.08"/><ellipse class="cls-3" cx="185.48" cy="121.17" rx="0.99" ry="1.08"/><ellipse class="cls-3" cx="38.49" cy="161.08" rx="2.64" ry="2.88"/><ellipse class="cls-17" cx="94.64" cy="34.52" rx="1.98" ry="2.16"/><rect class="cls-18" x="14" y="296" width="165" height="9" rx="3.34"/></svg>