<svg id="Слой_1" data-name="Слой 1" xmlns="http://www.w3.org/2000/svg" viewBox="0 0 181 469"><defs><style>.cls-1{fill:#eaaca5;}.cls-2{fill:#ffc5af;}.cls-3{fill:#ffe5db;}.cls-4{fill:#ffd1af;}.cls-5{fill:#fff;}.cls-6,.cls-8{fill:#ff9f7d;}.cls-6{opacity:0.3;}.cls-7{opacity:0.7;}.cls-9{fill:#f5c0ad;}.cls-10{fill:#daf0ff;}.cls-11{fill:#c88696;}.cls-12{fill:#e66a75;}.cls-13{fill:#00031e;}.cls-13,.cls-16{opacity:0.46;}.cls-14{fill:#7a5cff;}.cls-15{fill:#867bff;}.cls-16{fill:#bfe5db;}.cls-17{fill:#9539ae;}.cls-18{fill:#c239ae;}.cls-19{fill:#b623ae;}.cls-20{fill:#f26ee3;}.cls-21{fill:#c30242;}.cls-22{fill:#980242;}.cls-23{fill:#ffe1d8;}</style></defs><title>Середняк</title><path class="cls-1" d="M129.23,287v22.89a.76.76,0,0,1,0,.15,3.26,3.26,0,0,1-3.25,3.11h-1.69a3.19,3.19,0,0,1-1-.15,3.28,3.28,0,0,1-1.21-.71,3.21,3.21,0,0,1-1.07-2.4V287a3.25,3.25,0,0,1,1.07-2.41,3.4,3.4,0,0,1,1.21-.7,3.19,3.19,0,0,1,1-.15H126A3.26,3.26,0,0,1,129.23,287Z"/><path class="cls-2" d="M145.66,144.08V301.64a8.92,8.92,0,0,1-7.63,8.79,8.66,8.66,0,0,1-1.25.09h-4.6a8.4,8.4,0,0,1-1.51-.13,9.63,9.63,0,0,1-1.45-.38,8.93,8.93,0,0,1-5.92-8.37V144.08a4.41,4.41,0,0,1,4.4-4.4h13.56a4.42,4.42,0,0,1,4.31,3.52s0,0,0,.05A4.58,4.58,0,0,1,145.66,144.08Z"/><path class="cls-2" d="M130.67,278.07v41.09a2.93,2.93,0,0,1-2.93,2.92h-1.51a2.93,2.93,0,0,1-2.93-2.92V278.07a2.93,2.93,0,0,1,2.93-2.92h1.51A2.93,2.93,0,0,1,130.67,278.07Z"/><path class="cls-2" d="M138,273.82V314.9a2.93,2.93,0,0,1-2.92,2.93h-1.52a2.93,2.93,0,0,1-2.92-2.93V273.82a2.93,2.93,0,0,1,2.92-2.93h1.52A2.93,2.93,0,0,1,138,273.82Z"/><rect class="cls-3" x="138.36" y="230.08" width="4.56" height="42.13" rx="1.81"/><path class="cls-1" d="M62.12,287v22.89A3.29,3.29,0,0,1,59.84,313a3.19,3.19,0,0,1-1,.15H57.17A3.26,3.26,0,0,1,53.92,310a.76.76,0,0,1,0-.15V287a3.26,3.26,0,0,1,3.26-3.26h1.69a3.19,3.19,0,0,1,1,.15A3.28,3.28,0,0,1,62.12,287Z"/><path class="cls-2" d="M59.84,144.08V301.64A8.93,8.93,0,0,1,53.92,310a9.63,9.63,0,0,1-1.45.38,8.4,8.4,0,0,1-1.51.13h-4.6a8.66,8.66,0,0,1-1.25-.09,8.91,8.91,0,0,1-7.62-8.79V144.08a4.24,4.24,0,0,1,.09-.88,4.41,4.41,0,0,1,4.3-3.52H55.45A4.41,4.41,0,0,1,59.84,144.08Z"/><path class="cls-2" d="M59.84,278.07v41.09a2.93,2.93,0,0,1-2.93,2.92H55.4a2.93,2.93,0,0,1-2.93-2.92V278.07a2.93,2.93,0,0,1,2.93-2.92h1.51A2.93,2.93,0,0,1,59.84,278.07Z"/><path class="cls-2" d="M52.47,273.82V314.9a2.93,2.93,0,0,1-2.92,2.93H48a2.94,2.94,0,0,1-2.92-2.93V273.82A2.94,2.94,0,0,1,48,270.89h1.52A2.93,2.93,0,0,1,52.47,273.82Z"/><rect class="cls-3" x="40.22" y="230.08" width="4.56" height="42.13" rx="1.81" transform="translate(85.01 502.29) rotate(-180)"/><path class="cls-2" d="M145.66,145.46a31.84,31.84,0,0,1-12.86,25.92,27.83,27.83,0,0,1-9.5,4.43,25.47,25.47,0,0,1-2.63.52,27.09,27.09,0,0,1-3.74.29h-.19a28.23,28.23,0,0,1-23.28-12.69,6.51,6.51,0,0,1-.43-.64,31.09,31.09,0,0,1-3.55-7.44A33.22,33.22,0,0,1,93,127.62a30,30,0,0,1,6.94-7.56c.53-.4,1.07-.79,1.62-1.16a27.2,27.2,0,0,1,19.68-4.23c13.14,2.23,23.35,14,24.3,28.53,0,0,0,0,0,.05,0,.3,0,.6,0,.9S145.66,145,145.66,145.46Z"/><path class="cls-2" d="M98.53,145.46a31.59,31.59,0,0,1-1.74,10.39A30.6,30.6,0,0,1,93,163.29a6.62,6.62,0,0,1-.44.64A30.25,30.25,0,0,1,68,176.62a29.94,29.94,0,0,1-13.39-3.15,31.22,31.22,0,0,1-17.13-28c0-.44,0-.88,0-1.31s0-.64.06-1c1.09-15.66,13.5-28.11,28.93-28.87.5,0,1,0,1.5,0a30,30,0,0,1,16,4.61c.58.37,1.15.76,1.71,1.16A30.76,30.76,0,0,1,93,127.62,31.4,31.4,0,0,1,98.53,145.46Z"/><rect class="cls-1" x="64.26" y="252.82" width="28.92" height="206.64"/><rect class="cls-4" x="93.18" y="252.82" width="28.91" height="206.64"/><path class="cls-4" d="M132.8,142.57v95.82a39,39,0,0,1-9.5,25.76c-.39.44-.8.88-1.21,1.32A33.44,33.44,0,0,1,98,275.9H89.43a33.57,33.57,0,0,1-25.17-11.59,37.64,37.64,0,0,1-4.42-6.15,39.52,39.52,0,0,1-5.22-19.77V142.57c0-1,0-1.93.1-2.89a39.28,39.28,0,0,1,6-18.37c.32-.5.66-1,1-1.48a37.66,37.66,0,0,1,4.78-5.5A34.36,34.36,0,0,1,75.92,108a32.5,32.5,0,0,1,13.51-2.93H98a32.43,32.43,0,0,1,11.24,2,34.21,34.21,0,0,1,12,7.62,36.85,36.85,0,0,1,4.78,5.69c.35.52.69,1,1,1.58a39.23,39.23,0,0,1,5.63,17.74C132.77,140.64,132.8,141.6,132.8,142.57Z"/><rect class="cls-1" x="75.92" y="59.64" width="33.32" height="48.87"/><path class="cls-1" d="M71.34,46.23a7,7,0,0,1-6.75,7.22,6.19,6.19,0,0,1-1.93-.3,7.37,7.37,0,0,1,0-13.84A5.91,5.91,0,0,1,64.59,39,7,7,0,0,1,71.34,46.23Z"/><path class="cls-1" d="M127.45,46.23a7.17,7.17,0,0,1-4.61,6.84,6.1,6.1,0,0,1-2.14.38A7,7,0,0,1,114,46.23c0-.11,0-.22,0-.33a7.5,7.5,0,0,1,.82-3.15A6.69,6.69,0,0,1,120.7,39a6.1,6.1,0,0,1,2.14.38A7.19,7.19,0,0,1,127.45,46.23Z"/><path class="cls-4" d="M122.84,28.1V72.35a21.95,21.95,0,0,1-22,22H84.62a22,22,0,0,1-22-22V28.1A28.17,28.17,0,0,1,90.75,0h4A28.18,28.18,0,0,1,122.84,28.1Z"/><ellipse class="cls-5" cx="108.05" cy="42.43" rx="6.75" ry="7.22"/><ellipse cx="108.24" cy="42.22" rx="3.09" ry="3.3"/><rect x="99.75" y="29.84" width="16.2" height="7.43" rx="3.22"/><ellipse class="cls-5" cx="79.59" cy="42.43" rx="6.75" ry="7.22"/><ellipse cx="79.78" cy="42.22" rx="3.09" ry="3.3"/><rect x="70.91" y="22.41" width="16.2" height="7.43" rx="3.22"/><rect class="cls-6" x="91.57" y="82.67" width="3.47" height="8.67" rx="1.62"/><g class="cls-7"><path class="cls-8" d="M99.5,73.41h0a1.22,1.22,0,0,1-.46.94,1.74,1.74,0,0,1-.92.38H88.58A1.46,1.46,0,0,1,87,73.42a1.24,1.24,0,0,1,.46-.94,1.69,1.69,0,0,1,1.1-.39h9.36A1.46,1.46,0,0,1,99.5,73.41Z"/><path class="cls-8" d="M100.67,70.25v2.52a.52.52,0,0,1,0,.18,1.26,1.26,0,0,1-1.15.79h-.19c-.75,0-1.37-.44-1.37-1V70.25c0-.55.62-1,1.37-1a1.63,1.63,0,0,1,1,.29A.88.88,0,0,1,100.67,70.25Z"/><path class="cls-8" d="M100.67,72.76a2.19,2.19,0,0,1-2.34,2h-.21a2.16,2.16,0,0,1-2.13-2,1.67,1.67,0,0,1,.14-.67h1.81v-1.3a2.56,2.56,0,0,1,.39,0,2.25,2.25,0,0,1,2.32,1.72A1.27,1.27,0,0,1,100.67,72.76Z"/></g><path class="cls-4" d="M109.24,99.66v14.63H75.92V98.21a30.61,30.61,0,0,0,33.32,1.45Z"/><path class="cls-9" d="M139.23,142a22.73,22.73,0,0,1-6,15.49,19.57,19.57,0,0,1-14.37,6.45H67.47c-11.19,0-20.35-9.87-20.35-21.94a23.11,23.11,0,0,1,6-15.49,19.59,19.59,0,0,1,14.37-6.44h51.41c9.91,0,18.23,7.74,20,17.89A23.52,23.52,0,0,1,139.23,142Z"/><path class="cls-4" d="M138.88,137.38a23.58,23.58,0,0,1-5.63,11.82,19.33,19.33,0,0,1-14.37,6.65H67.47c-9.9,0-18.23-8-20-18.47a23.56,23.56,0,0,1,5.62-11.83,19.33,19.33,0,0,1,14.37-6.65h51.41C128.79,118.9,137.11,126.9,138.88,137.38Z"/><rect class="cls-1" x="57.83" y="146.61" width="7.5" height="2.31" rx="1"/><rect class="cls-1" x="122.09" y="146.61" width="7.5" height="2.31" rx="1"/><rect class="cls-3" x="109.24" y="124.68" width="18.21" height="3.46" rx="1.5"/><path class="cls-10" d="M132.8,233.19v5.2a39,39,0,0,1-9.5,25.76c-.39.44-.8.88-1.21,1.32A33.44,33.44,0,0,1,98,275.9H89.43a33.57,33.57,0,0,1-25.17-11.59,37.64,37.64,0,0,1-4.42-6.15,39.52,39.52,0,0,1-5.22-19.77v-5.2Z"/><rect class="cls-3" x="113.53" y="334.78" width="5.36" height="41.56" rx="2.5"/><rect class="cls-4" x="67.47" y="334.78" width="5.36" height="41.56" rx="2.5"/><rect class="cls-3" x="116.74" y="175.47" width="4.28" height="19.63" rx="2"/><rect class="cls-1" x="91.04" y="226.26" width="7.5" height="2.31" rx="1"/><path class="cls-1" d="M143.94,458.66c0,.27,0,.53,0,.8H98.54c0-.27,0-.53,0-.8a19.59,19.59,0,0,1,3-10.7c1.81-2.74,4.33-4.45,7.08-4.45h25.35C139.43,443.51,143.94,450.33,143.94,458.66Z"/><path class="cls-11" d="M86.75,458.66c0,.27,0,.53,0,.8H41c0-.24,0-.46,0-.7v-.05c0-.28,0-.55,0-.83s0-.55.05-.82c0-.54.09-1.07.17-1.59,0-.26.08-.52.13-.78s.06-.35.1-.52A17.72,17.72,0,0,1,44,448c1.83-2.74,4.36-4.45,7.13-4.45H76.65a8.39,8.39,0,0,1,6.4,3.44c.17.22.34.46.51.7A19.17,19.17,0,0,1,86.75,458.66Z"/><rect class="cls-12" x="88.89" y="36.94" width="9.64" height="27.71" rx="4.5"/><path class="cls-13" d="M181,464.46a5,5,0,0,1-5,5H5a5,5,0,0,1,0-10H176A5,5,0,0,1,181,464.46Z"/><rect class="cls-14" x="64.26" y="252.82" width="28.92" height="206.64"/><rect class="cls-15" x="93.18" y="252.82" width="28.91" height="206.64"/><path class="cls-15" d="M132.8,233.19v5.2a39,39,0,0,1-9.5,25.76c-.39.44-.8.88-1.21,1.32A33.44,33.44,0,0,1,98,275.9H89.43a33.57,33.57,0,0,1-25.17-11.59,37.64,37.64,0,0,1-4.42-6.15,39.52,39.52,0,0,1-5.22-19.77v-5.2Z"/><rect class="cls-16" x="113.53" y="334.78" width="5.36" height="41.56" rx="2.5"/><rect class="cls-15" x="67.47" y="334.78" width="5.36" height="41.56" rx="2.5"/><path class="cls-17" d="M145.66,144.75V278.21H123.3V144.75a4.93,4.93,0,0,1,4.71-5.07h13a4.88,4.88,0,0,1,4.67,4.47Q145.66,144.45,145.66,144.75Z"/><path class="cls-17" d="M59.84,144.75V278.21H37.49V144.75q0-.3,0-.6a4.88,4.88,0,0,1,4.67-4.47h13A4.92,4.92,0,0,1,59.84,144.75Z"/><path class="cls-17" d="M145.66,145.46a31.84,31.84,0,0,1-12.86,25.92,27.83,27.83,0,0,1-9.5,4.43,25.47,25.47,0,0,1-2.63.52,27.09,27.09,0,0,1-3.74.29h-.19a28.23,28.23,0,0,1-23.28-12.69,6.51,6.51,0,0,1-.43-.64,31.09,31.09,0,0,1-3.55-7.44A33.22,33.22,0,0,1,93,127.62a30,30,0,0,1,6.94-7.56c.53-.4,1.07-.79,1.62-1.16a27.2,27.2,0,0,1,19.68-4.23c13.14,2.23,23.35,14,24.3,28.53,0,0,0,0,0,.05,0,.3,0,.6,0,.9S145.66,145,145.66,145.46Z"/><path class="cls-17" d="M98.53,145.46a31.59,31.59,0,0,1-1.74,10.39A30.6,30.6,0,0,1,93,163.29a6.62,6.62,0,0,1-.44.64A30.25,30.25,0,0,1,68,176.62a29.94,29.94,0,0,1-13.39-3.15,31.22,31.22,0,0,1-17.13-28c0-.44,0-.88,0-1.31s0-.64.06-1c1.09-15.66,13.5-28.11,28.93-28.87.5,0,1,0,1.5,0a30,30,0,0,1,16,4.61c.58.37,1.15.76,1.71,1.16A30.76,30.76,0,0,1,93,127.62,31.4,31.4,0,0,1,98.53,145.46Z"/><path class="cls-18" d="M132.8,142.57v95.82a39,39,0,0,1-9.5,25.76c-.39.44-.8.88-1.21,1.32A33.44,33.44,0,0,1,98,275.9H89.43a33.57,33.57,0,0,1-25.17-11.59,37.64,37.64,0,0,1-4.42-6.15,39.52,39.52,0,0,1-5.22-19.77V142.57c0-1,0-1.93.1-2.89a39.28,39.28,0,0,1,6-18.37c.32-.5.66-1,1-1.48a37.66,37.66,0,0,1,4.78-5.5A34.36,34.36,0,0,1,75.92,108a32.5,32.5,0,0,1,13.51-2.93H98a32.43,32.43,0,0,1,11.24,2,34.21,34.21,0,0,1,12,7.62,36.85,36.85,0,0,1,4.78,5.69c.35.52.69,1,1,1.58a39.23,39.23,0,0,1,5.63,17.74C132.77,140.64,132.8,141.6,132.8,142.57Z"/><path class="cls-19" d="M139.23,142a22.73,22.73,0,0,1-6,15.49,19.57,19.57,0,0,1-14.37,6.45H67.47c-11.19,0-20.35-9.87-20.35-21.94a23.11,23.11,0,0,1,6-15.49,19.59,19.59,0,0,1,14.37-6.44h51.41c9.91,0,18.23,7.74,20,17.89A23.52,23.52,0,0,1,139.23,142Z"/><path class="cls-18" d="M138.88,137.38a23.58,23.58,0,0,1-5.63,11.82,19.33,19.33,0,0,1-14.37,6.65H67.47c-9.9,0-18.23-8-20-18.47a23.56,23.56,0,0,1,5.62-11.83,19.33,19.33,0,0,1,14.37-6.65h51.41C128.79,118.9,137.11,126.9,138.88,137.38Z"/><rect class="cls-20" x="109.24" y="124.68" width="18.21" height="3.46" rx="1.5"/><path class="cls-18" d="M109.24,99.66v14.63H75.92V98.21a30.61,30.61,0,0,0,33.32,1.45Z"/><path class="cls-21" d="M144.59,458.71c0,.25,0,.5,0,.75v.05H99v-.05c0-.25,0-.5,0-.75a22.78,22.78,0,0,1,.23-3.24,18.8,18.8,0,0,1,2.73-7.63,10.51,10.51,0,0,1,4.35-3.93,7,7,0,0,1,2.77-.59h25.46c4.81,0,8.87,5.22,9.85,12.15A22.67,22.67,0,0,1,144.59,458.71Z"/><path class="cls-22" d="M86.65,458.71c0,.25,0,.5,0,.75v.05H41.05v-.05c0-.24,0-.46,0-.7v-.05c0-.28,0-.55,0-.83s0-.55.05-.82c0-.54.09-1.07.17-1.59,0-.26.08-.52.13-.78s.06-.35.1-.52a18,18,0,0,1,2.5-6.33c1.83-2.79,4.35-4.52,7.12-4.52H76.57A8.34,8.34,0,0,1,83.05,447c.17.22.34.46.51.7a18.67,18.67,0,0,1,2.86,7.82A22.67,22.67,0,0,1,86.65,458.71Z"/><path class="cls-23" d="M86.65,458.71c0,.25,0,.5,0,.75v.05H41.05v-.05c0-.24,0-.46,0-.7v-.05c0-.28,0-.55,0-.83s0-.55.05-.82c0-.54.09-1.07.17-1.59H86.42A22.67,22.67,0,0,1,86.65,458.71Z"/><path class="cls-23" d="M144.59,458.71c0,.25,0,.5,0,.75v.05H99v-.05c0-.25,0-.5,0-.75a22.78,22.78,0,0,1,.23-3.24h45.16A22.67,22.67,0,0,1,144.59,458.71Z"/><path class="cls-23" d="M60.14,442V446a1.41,1.41,0,0,1-1.41,1.41h-.31A1.42,1.42,0,0,1,57,446V442a1.42,1.42,0,0,1,1.41-1.41h.31A1.41,1.41,0,0,1,60.14,442Z"/><path class="cls-23" d="M63.84,442V446a1.42,1.42,0,0,1-1.41,1.41h-.31A1.41,1.41,0,0,1,60.71,446V442a1.41,1.41,0,0,1,1.41-1.41h.31A1.42,1.42,0,0,1,63.84,442Z"/><rect class="cls-23" x="53.36" y="440.62" width="3.13" height="6.75" rx="1.41"/><path class="cls-23" d="M129.79,442V446a1.41,1.41,0,0,1-1.41,1.41h-.31a1.42,1.42,0,0,1-1.41-1.41V442a1.42,1.42,0,0,1,1.41-1.41h.31A1.41,1.41,0,0,1,129.79,442Z"/><path class="cls-23" d="M133.49,442V446a1.41,1.41,0,0,1-1.41,1.41h-.31a1.42,1.42,0,0,1-1.41-1.41V442a1.42,1.42,0,0,1,1.41-1.41h.31A1.41,1.41,0,0,1,133.49,442Z"/><path class="cls-23" d="M126.14,442V446a1.41,1.41,0,0,1-1.41,1.41h-.31A1.42,1.42,0,0,1,123,446V442a1.42,1.42,0,0,1,1.41-1.41h.31A1.41,1.41,0,0,1,126.14,442Z"/></svg>