<svg id="Слой_1" data-name="Слой 1" xmlns="http://www.w3.org/2000/svg" viewBox="0 0 101 398"><defs><style>.cls-1{fill:#eaaca5;}.cls-2{fill:#ffc5af;}.cls-3{fill:#ffe5db;}.cls-4{fill:#ffd1af;}.cls-5{fill:#fff;}.cls-6,.cls-8{fill:#ff9f7d;}.cls-6{opacity:0.3;}.cls-7{opacity:0.7;}.cls-9{fill:#f5c0ad;}.cls-10{fill:#daf0ff;}.cls-11{fill:#c88696;}.cls-12{fill:#e66a75;}</style></defs><title>Середняк</title><rect class="cls-1" x="78" y="245.76" width="7.67" height="25.48" rx="3.26"/><path class="cls-2" d="M84.52,121H96.61a4.39,4.39,0,0,1,4.39,4.39V260.11A8.88,8.88,0,0,1,92.12,269H89a8.88,8.88,0,0,1-8.88-8.88V125.39A4.39,4.39,0,0,1,84.52,121Z"/><rect class="cls-2" x="80.13" y="238.34" width="6.87" height="40.66" rx="2.92"/><rect class="cls-2" x="87" y="234.66" width="6.87" height="40.66" rx="2.92"/><rect class="cls-3" x="94.19" y="199.31" width="4.26" height="36.5" rx="1.81"/><rect class="cls-1" x="15.33" y="245.76" width="7.67" height="25.48" rx="3.26" transform="translate(38.33 516.99) rotate(180)"/><path class="cls-2" d="M8.88,121H12a8.88,8.88,0,0,1,8.88,8.88V264.59A4.39,4.39,0,0,1,16.48,269H4.39A4.39,4.39,0,0,1,0,264.59V129.88A8.88,8.88,0,0,1,8.88,121Z" transform="translate(20.87 389.98) rotate(180)"/><rect class="cls-2" x="14" y="238.34" width="6.87" height="40.66" rx="2.92" transform="translate(34.87 517.34) rotate(180)"/><rect class="cls-2" x="7.12" y="234.66" width="6.87" height="40.66" rx="2.92" transform="translate(21.12 509.97) rotate(180)"/><rect class="cls-3" x="2.56" y="199.31" width="4.26" height="36.5" rx="1.81" transform="translate(9.37 435.11) rotate(-180)"/><circle class="cls-2" cx="74" cy="126" r="27"/><ellipse class="cls-2" cx="28.5" cy="126" rx="28.5" ry="27"/><rect class="cls-1" x="25" y="219" width="27" height="179"/><rect class="cls-4" x="52" y="219" width="27" height="179"/><rect class="cls-4" x="16" y="91" width="73" height="148" rx="32.5"/><rect class="cls-1" x="35.89" y="51.66" width="31.11" height="42.34"/><ellipse class="cls-1" cx="25.3" cy="40.04" rx="6.3" ry="6.26"/><ellipse class="cls-1" cx="77.7" cy="40.04" rx="6.3" ry="6.26"/><path class="cls-4" d="M51.6,0h0A28.1,28.1,0,0,1,79.7,28.1V59.74a22,22,0,0,1-22,22H45.46a22,22,0,0,1-22-22V28.1A28.1,28.1,0,0,1,51.6,0Z"/><ellipse class="cls-5" cx="65.88" cy="36.75" rx="6.3" ry="6.26"/><ellipse cx="66.06" cy="36.58" rx="2.88" ry="2.86"/><rect x="58.14" y="25.85" width="15.13" height="6.44" rx="3.22"/><ellipse class="cls-5" cx="39.31" cy="36.75" rx="6.3" ry="6.26"/><ellipse cx="39.49" cy="36.58" rx="2.88" ry="2.86"/><rect x="31.2" y="19.41" width="15.13" height="6.44" rx="3.22"/><rect class="cls-6" x="50.49" y="71.61" width="3.24" height="7.51" rx="1.62"/><g class="cls-7"><path class="cls-8" d="M57.91,63.59h0a1,1,0,0,1-.43.81,1.64,1.64,0,0,1-.87.33h-8.9a1.34,1.34,0,0,1-1.46-1.15,1,1,0,0,1,.43-.81,1.65,1.65,0,0,1,1-.34h8.74A1.34,1.34,0,0,1,57.91,63.59Z"/><path class="cls-8" d="M59,60.85V63a.88.88,0,0,1,0,.16,1.17,1.17,0,0,1-1.07.68h-.18c-.71,0-1.28-.39-1.28-.85V60.85c0-.47.57-.85,1.28-.85a1.56,1.56,0,0,1,.89.25A.73.73,0,0,1,59,60.85Z"/><path class="cls-8" d="M59,63a2,2,0,0,1-2.19,1.73h-.2a2,2,0,0,1-2-1.72,1.25,1.25,0,0,1,.13-.57h1.69V61.33l.36,0A2.09,2.09,0,0,1,59,62.78,1.94,1.94,0,0,1,59,63Z"/></g><path class="cls-4" d="M67,86.33V99H35.89V85.07A30.46,30.46,0,0,0,67,86.33Z"/><path class="cls-9" d="M95,123a19.05,19.05,0,0,1-19,19H28A19.06,19.06,0,0,1,9,123a18.46,18.46,0,0,1,.33-3.5A19.06,19.06,0,0,1,28,104H76a19.07,19.07,0,0,1,18.67,15.5A18.46,18.46,0,0,1,95,123Z"/><path class="cls-4" d="M94.67,119a19.87,19.87,0,0,1-5.25,10.24A18.67,18.67,0,0,1,76,135H28A19.25,19.25,0,0,1,9.33,119a19.87,19.87,0,0,1,5.25-10.24A18.67,18.67,0,0,1,28,103H76A19.25,19.25,0,0,1,94.67,119Z"/><rect class="cls-1" x="19" y="127" width="7" height="2" rx="1"/><rect class="cls-1" x="79" y="127" width="7" height="2" rx="1"/><rect class="cls-3" x="67" y="108" width="17" height="3" rx="1.5"/><path class="cls-10" d="M89,202v4.5A32.5,32.5,0,0,1,56.5,239h-8A32.5,32.5,0,0,1,16,206.5V202Z"/><rect class="cls-3" x="71" y="290" width="5" height="36" rx="2.5"/><rect class="cls-4" x="28" y="290" width="5" height="36" rx="2.5"/><rect class="cls-3" x="74" y="152" width="4" height="17" rx="2"/><rect class="cls-1" x="50" y="196" width="7" height="2" rx="1"/><path class="cls-1" d="M99.4,397.31c0,.23,0,.46,0,.69H57c0-.23,0-.46,0-.69A16.09,16.09,0,0,1,59.75,388a8.3,8.3,0,0,1,6.62-3.85H90C95.18,384.19,99.4,390.09,99.4,397.31Z"/><path class="cls-11" d="M46,397.31c0,.23,0,.46,0,.69H3.32c0-.23,0-.46,0-.69A16,16,0,0,1,6.08,388a8.37,8.37,0,0,1,6.66-3.85H36.57C41.76,384.19,46,390.09,46,397.31Z"/><rect class="cls-12" x="48" y="32" width="9" height="24" rx="4.5"/></svg>