<svg id="Слой_1" data-name="Слой 1" xmlns="http://www.w3.org/2000/svg" viewBox="0 0 146 200"><defs><style>.cls-1{opacity:0.2;}.cls-2{fill:#4b864f;}.cls-3{fill:#64b269;}.cls-4{fill:#4d386b;opacity:0.5;}.cls-5{fill:#e0f0e1;}</style></defs><title>Символ-Подложка</title><g class="cls-1"><path class="cls-2" d="M120.27,120.92,100.36,130l-10.13,4.58-6,2.75-2.21,1-7.31,3.34-1.67.75L69.52,144,37.1,158.83l-22,10A62,62,0,0,1,11.82,163a69,69,0,0,1-7.23-21.33l-.44-12.34v-.5L4,125.42l-.89-21.5L2.21,79.5,0,22.67c-.26-6,6.17-8.75,10.93-4.75L44.85,46.5,68.29,66.25,73,70.17l.09.08,1.14.92.36.33,7.22,6,2.29,2,9.34,7.92,2.38,2,2.91,2.33L102.56,95a24.47,24.47,0,0,1,2,2.17,54.37,54.37,0,0,1,5.81,6.75,67.19,67.19,0,0,1,7,11c.09.25.27.41.35.66C118.68,117.33,119.48,119.17,120.27,120.92Z"/><path class="cls-2" d="M146,22.67,143.79,79.5l-1,24.42-.79,21.5-.17,2.83v.17l-.45,13.25A73.71,73.71,0,0,1,134.19,163c-1.06,2-2.11,4-3.26,5.83l-22.55-10.25L97.1,153.33l-6.78-3L79,145.17l-2.91-1.34-3.08-1.41-1.76-.75-1.77-.84-7.13-3.25-14.63-6.66-14.71-6.67-5.82-2.67-1.49-.66c.88-2,1.76-4,2.82-6,.08-.17.17-.34.26-.5.62-1.17,1.32-2.34,2-3.5a57.18,57.18,0,0,1,4.67-7A79.08,79.08,0,0,1,43.45,95l2-1.67,4.67-3.91,10.31-8.75,1.41-1.17,4.4-3.67,1.06-.91,5.29-4.5.26-.17.09-.08,4.67-3.92,25.72-21.67,31.72-26.66C139.74,13.92,146.17,16.67,146,22.67Z"/><path class="cls-3" d="M142.3,135.17c0,2.16-.18,4.33-.36,6.5a62.9,62.9,0,0,1-1.49,8.25C133.31,178.67,105.82,200,73.05,200,39,200,10.67,176.92,4.94,146.58a49.15,49.15,0,0,1-.79-4.91,54.56,54.56,0,0,1-.35-6.5A27.93,27.93,0,0,1,4,131.25a13.83,13.83,0,0,1,.17-1.92v-.5a28.43,28.43,0,0,1,.53-3.75,18,18,0,0,1,.62-3.16c.26-1.25.53-2.5.88-3.67.53-1.83,1.14-3.58,1.76-5.33L16.22,98A70.06,70.06,0,0,1,59,71.58a6.48,6.48,0,0,0,1.41-.33,91.29,91.29,0,0,1,11.8-1h.8c.88,0,1.85,0,2.73.08h.09a71.62,71.62,0,0,1,14.62,2,69.22,69.22,0,0,1,42.91,30.92,60.33,60.33,0,0,1,4,7.92,43.86,43.86,0,0,1,2.38,6.75c.35,1,.62,2.08.88,3.16.27.92.44,1.84.62,2.75.26,1.42.44,2.92.62,4.42v.17c.08.41.08.91.17,1.33C142.21,131.58,142.3,133.33,142.3,135.17Z"/><path class="cls-3" d="M142.3,135.17c0,2.16-.18,4.33-.36,6.5H4.15a54.56,54.56,0,0,1-.35-6.5A27.93,27.93,0,0,1,4,131.25a13.83,13.83,0,0,1,.17-1.92V129a31.24,31.24,0,0,1,.53-3.92,18,18,0,0,1,.62-3.16c.26-1.25.53-2.5.88-3.67.53-1.83,1.14-3.58,1.76-5.33l5.11-9L16.22,98,26.53,79.5l18.32-33L68.47,4a8.24,8.24,0,0,1,14.27.25l20.61,40.33L121.24,79.5l12.16,23.75.26.67,3.7,7.25a43.86,43.86,0,0,1,2.38,6.75c.35,1,.62,2.08.88,3.16.27.92.44,1.84.62,2.75.26,1.42.44,2.92.62,4.42v.17c.08.41.08.91.17,1.33C142.21,131.58,142.3,133.33,142.3,135.17Z"/><path class="cls-4" d="M146,22.67,143.79,79.5l-1,24.42-.79,21.5-.17,2.83v.17c.08.41.08.91.17,1.33.18,1.83.27,3.58.27,5.42,0,2.16-.18,4.33-.36,6.5a62.9,62.9,0,0,1-1.49,8.25C133.31,178.67,105.82,200,73.05,200,39,200,10.67,176.92,4.94,146.58a49.15,49.15,0,0,1-.79-4.91,54.56,54.56,0,0,1-.35-6.5A27.93,27.93,0,0,1,4,131.25a13.83,13.83,0,0,1,.17-1.92v-.5L4,125.42l-.89-21.5L2.21,79.5,0,22.67c-.26-6,6.17-8.75,10.93-4.75L44.85,46.5,68.47,4a8.24,8.24,0,0,1,14.27.25l20.61,40.33,31.72-26.66C139.74,13.92,146.17,16.67,146,22.67Z"/><path class="cls-5" d="M82.77,75.88l-7.19,11.5-1.06,1.71-13,20.77L41.74,99.29,60.41,69.37l.28-.45a5.82,5.82,0,0,1,4.12-2.63l9.32,5Z"/><path class="cls-5" d="M99.87,87.38H60.41v-18l.28-.45a5.82,5.82,0,0,1,4.12-2.63,6.86,6.86,0,0,1,.92-.07H83.57a5.89,5.89,0,0,1,4.72,2.6Z"/><path class="cls-5" d="M105,95.67l-1.58,5.67L91,108l-5.58-1.34-3.57-5.74-7.37-11.8-1.07-1.71L66.08,75.57l8-4.3,9.44-5a5.89,5.89,0,0,1,4.72,2.6L99.87,87.38l1.73,2.77Z"/><path class="cls-5" d="M105.79,87.87a.8.8,0,0,1,1.2.83l-1.95,7-1.58,5.67-2.52,9h0L91,108l-5.58-1.34-7.91-1.89a.73.73,0,0,1-.21-1.37l4.55-2.48L101.6,90.15Z"/><path class="cls-5" d="M113.19,150.61,106,139.09,105,137.38,92,116.59,111.84,106,130.48,136l.28.45a5,5,0,0,1,.39,4.62l-9.32,5Z"/><path class="cls-5" d="M93.86,158.53,113.63,127l16.85,9,.28.45a5.08,5.08,0,0,1,0,5.38L122,155.88a2.43,2.43,0,0,1-.14.2,5.91,5.91,0,0,1-4.79,2.48Z"/><path class="cls-5" d="M83.51,158.52,79,154.41l0-13.26,4-3.79h38.78V146l0,10.08a5.91,5.91,0,0,1-4.79,2.48l-23.16,0H83.51Z"/><path class="cls-5" d="M90.43,163a.81.81,0,0,1-1.37.53l-5.55-5L79,154.41l-7.15-6.51v0h0L79,141.15l4-3.79L88.8,132a.81.81,0,0,1,1.38.52l0,4.88.18,21.16Z"/><path class="cls-5" d="M27.11,137.73l14.36-.06H43.6l25.94-.11.1,21.16-37.34.16h-.56a6,6,0,0,1-4.53-2L27.16,147Z"/><path class="cls-5" d="M29.23,118.27l19.89,31.52L32.3,158.87h-.56a6,6,0,0,1-4.53-2,5.08,5.08,0,0,1-.52-.7l-8.87-14.05a1.43,1.43,0,0,1-.12-.21,5,5,0,0,1,0-5.07Z"/><path class="cls-5" d="M34.37,110l6.08-1.59L52.9,115l1.57,5.12-3.56,5.75L43.6,137.66l-1.05,1.72-7.32,11.84L27.16,147l-9.46-5a5,5,0,0,1,0-5.07l11.49-18.61L31,115.49Z"/><path class="cls-5" d="M26.69,113.29a.73.73,0,0,1,.18-1.37l7.5-2,6.08-1.59,9.66-2.53h0v0L52.9,115l1.57,5.12,2.22,7.28a.8.8,0,0,1-1.18.86l-4.6-2.39L31,115.49Z"/></g></svg>