<svg id="Слой_1" data-name="Слой 1" xmlns="http://www.w3.org/2000/svg" xmlns:xlink="http://www.w3.org/1999/xlink" viewBox="0 0 750 1334"><defs><style>.cls-1{fill:#c8e9c1;}.cls-2{fill:#acdea2;}.cls-3{fill:#75c965;}.cls-4{fill:url(#Безымянный_градиент_19);}.cls-11,.cls-21,.cls-5{opacity:0.5;}.cls-11,.cls-6{fill:#3b3a53;}.cls-7{fill:#797996;}.cls-8{fill:#595050;}.cls-9{fill:#f4c4b8;}.cls-10{fill:#f5c0ad;}.cls-12{fill:#58577c;}.cls-13{fill:#3e1f1f;}.cls-14{opacity:0.7;}.cls-15{fill:#e5ffff;}.cls-16{fill:#9e9f99;}.cls-17{fill:#6e6e66;}.cls-18{fill:#7b281b;}.cls-19{fill:#96281b;}.cls-20{fill:#ef4836;}.cls-21{fill:#d8d9d6;}</style><linearGradient id="Безымянный_градиент_19" x1="375" y1="1334" x2="375" gradientUnits="userSpaceOnUse"><stop offset="0" stop-color="#fff"/><stop offset="0.12" stop-color="#f8fdff"/><stop offset="0.28" stop-color="#e6f9ff"/><stop offset="0.47" stop-color="#c8f1ff"/><stop offset="0.69" stop-color="#9ee7ff"/><stop offset="0.92" stop-color="#69d9ff"/><stop offset="1" stop-color="#54d4ff"/></linearGradient></defs><title>Монтажная область 3</title><path class="cls-1" d="M7,994a14.6,14.6,0,0,1-.14,2,14.53,14.53,0,0,1-.54,2.3,13.92,13.92,0,0,1-2.25,4.26,13.6,13.6,0,0,1-1.44,1.6,13.9,13.9,0,0,1-1.95,1.54l-.47.3-.21.12V981.88a13.82,13.82,0,0,1,4.37,4,13.93,13.93,0,0,1,1.55,2.77A13.83,13.83,0,0,1,7,994Z"/><path class="cls-1" d="M21,982a13.53,13.53,0,0,1-.12,1.81.77.77,0,0,1,0,.15,13.79,13.79,0,0,1-1.05,3.68,13.42,13.42,0,0,1-1.74,2.92,13.76,13.76,0,0,1-3.21,3c-.23.16-.47.32-.72.46a14,14,0,0,1-3,1.32A13.8,13.8,0,0,1,7,996H6.86a13.88,13.88,0,0,1-6.74-1.81L0,994.12V969.88a14,14,0,0,1,10.56-1.42,13.93,13.93,0,0,1,2.53.93l.05,0A14,14,0,0,1,21,982Z"/><circle class="cls-1" cx="14" cy="996" r="14"/><circle class="cls-1" cx="21" cy="981" r="14"/><circle class="cls-1" cx="28" cy="996" r="14"/><path class="cls-1" d="M21,1010c0,.22,0,.45,0,.67a13.4,13.4,0,0,1-.49,3.06h0c-.07.26-.14.5-.23.75a13.27,13.27,0,0,1-.72,1.74,13.44,13.44,0,0,1-1.47,2.33.91.91,0,0,1-.13.16,6.31,6.31,0,0,1-.53.63,11.15,11.15,0,0,1-.9.92c-.22.2-.44.4-.68.59a14,14,0,0,1-5.32,2.7h0A13.79,13.79,0,0,1,7,1024c-.39,0-.77,0-1.15,0l-.39,0-.6-.08-.4-.07a14.6,14.6,0,0,1-2.29-.63,13.87,13.87,0,0,1-2.17-1V997.88l.12-.07A13.88,13.88,0,0,1,6.86,996H7a13.79,13.79,0,0,1,3.49.44h0l.23.07a13.51,13.51,0,0,1,3.4,1.45,14.08,14.08,0,0,1,4.4,4.12,14.29,14.29,0,0,1,1.6,3.08c.1.28.19.56.28.84s.12.43.17.65a10.67,10.67,0,0,1,.27,1.39.77.77,0,0,1,0,.15A13.53,13.53,0,0,1,21,1010Z"/><circle class="cls-1" cx="14" cy="1010" r="14"/><path class="cls-2" d="M10,1014a14.6,14.6,0,0,1-.14,2,14.53,14.53,0,0,1-.54,2.3,13.31,13.31,0,0,1-.78,1.92,14,14,0,0,1-1.26,2.06A14.17,14.17,0,0,1,5.85,1024l-.22.21c-.15.14-.31.29-.47.42a13.37,13.37,0,0,1-1.48,1.12,10.74,10.74,0,0,1-.92.56A14,14,0,0,1,0,1027.42v-26.84c.3.09.59.19.88.3a13.31,13.31,0,0,1,1.84.84,13.26,13.26,0,0,1,1.35.84,13.89,13.89,0,0,1,3.3,3.28l.11.16q.2.27.36.54a14.06,14.06,0,0,1,1,1.88c.1.23.19.46.28.7A13.85,13.85,0,0,1,10,1014Z"/><path class="cls-2" d="M24,1002a13.53,13.53,0,0,1-.12,1.81.77.77,0,0,1,0,.15,12.54,12.54,0,0,1-.44,2l0,.08c0,.14-.08.27-.13.41a14,14,0,0,1-1,2.27h0a13.45,13.45,0,0,1-1.28,1.9,13.7,13.7,0,0,1-3.12,2.91c-.23.16-.47.32-.72.46l-.38.22A13.93,13.93,0,0,1,10,1016H9.86a13.91,13.91,0,0,1-5.25-1.08,13.69,13.69,0,0,1-1.49-.73,14.08,14.08,0,0,1-3-2.26l-.13-.14V992.21a8.16,8.16,0,0,1,.74-.7,13.93,13.93,0,0,1,5.18-2.9,13,13,0,0,1,3-.56A9.83,9.83,0,0,1,10,988a13.79,13.79,0,0,1,5.74,1.24,3.52,3.52,0,0,1,.4.18,14.38,14.38,0,0,1,1.93,1.14,14.07,14.07,0,0,1,5.8,9.51A15.38,15.38,0,0,1,24,1002Z"/><circle class="cls-2" cx="17" cy="1016" r="14"/><circle class="cls-2" cx="24" cy="1001" r="14"/><circle class="cls-2" cx="31" cy="1016" r="14"/><path class="cls-2" d="M24,1030a13.62,13.62,0,0,1-.1,1.7,13.42,13.42,0,0,1-.83,3.3,7.61,7.61,0,0,1-.39.93,13.83,13.83,0,0,1-1.49,2.48,14,14,0,0,1-4.43,3.85,13,13,0,0,1-2.26,1,10.37,10.37,0,0,1-1,.31h0A14,14,0,0,1,1,1040.69a11.75,11.75,0,0,1-1-.9v-19.58a13.47,13.47,0,0,1,2.6-2.09l.52-.31c.32-.18.65-.35,1-.51a14,14,0,0,1,5.76-1.3H10a13.79,13.79,0,0,1,3.49.44h0a14,14,0,0,1,3.63,1.52l.18.11.6.39.15.1a13.68,13.68,0,0,1,2.43,2.19,13.91,13.91,0,0,1,3.36,7.29.77.77,0,0,1,0,.15l.06.46Q24,1029.31,24,1030Z"/><circle class="cls-2" cx="17" cy="1030" r="14"/><path class="cls-3" d="M4,1032a14.6,14.6,0,0,1-.14,2l-.09.56h0l-.09.43c-.1.44-.22.88-.36,1.3A13.78,13.78,0,0,1,1,1040.69a12.51,12.51,0,0,1-1,1.1v-19.58a13.29,13.29,0,0,1,1.37,1.63,12.88,12.88,0,0,1,1.39,2.42,10,10,0,0,1,.47,1.18h0A13.71,13.71,0,0,1,4,1032Z"/><path class="cls-3" d="M18,1020c0,.36,0,.72,0,1.07v0c0,.25,0,.48-.08.72a.77.77,0,0,1,0,.15,11.63,11.63,0,0,1-.32,1.58h0a13.62,13.62,0,0,1-1.27,3.19h0a14.08,14.08,0,0,1-2.18,3,13.88,13.88,0,0,1-2.23,1.88c-.23.16-.47.32-.72.46A13.88,13.88,0,0,1,4,1034H3.58a13.67,13.67,0,0,1-3.58-.57v-26.84c.15,0,.29-.09.45-.12h0A13.8,13.8,0,0,1,4,1006h.22a14,14,0,0,1,2.69.29q.48.11.93.24a13,13,0,0,1,2.3.88,14.29,14.29,0,0,1,2.22,1.35h0a13.73,13.73,0,0,1,1.42,1.21,13.55,13.55,0,0,1,1.84,2.23h0a12.93,12.93,0,0,1,1.12,2,5.58,5.58,0,0,1,.28.67v0a9.53,9.53,0,0,1,.38,1.06c.12.41.23.83.31,1.25s.14.79.19,1.2c0,.09,0,.17,0,.26C18,1019.14,18,1019.57,18,1020Z"/><path class="cls-3" d="M25,1034c0,.34,0,.67,0,1a13.63,13.63,0,0,1-1.84,6,13.37,13.37,0,0,1-1.63,2.26,13.79,13.79,0,0,1-3.49,2.86l-.12.07A14,14,0,0,1,0,1042.65v-17.3a12.21,12.21,0,0,1,1.37-1.51c.25-.24.52-.48.8-.7a14.63,14.63,0,0,1,2.06-1.4h0a13.14,13.14,0,0,1,1.25-.61c.32-.14.66-.27,1-.38a13.73,13.73,0,0,1,2-.52A13.32,13.32,0,0,1,11,1020a13.83,13.83,0,0,1,4.83.86l.48.19a12.62,12.62,0,0,1,1.57.76l.12.07.41.25a11,11,0,0,1,1.08.75,13.9,13.9,0,0,1,4.1,5c.06.13.12.26.17.39s.12.26.18.39A13.63,13.63,0,0,1,25,1034Z"/><circle class="cls-3" cx="18" cy="1019" r="14"/><circle class="cls-3" cx="25" cy="1034" r="14"/><path class="cls-3" d="M18,1048a14,14,0,0,1-10.49,13.56h0A13.79,13.79,0,0,1,4,1062a13.92,13.92,0,0,1-4-.58v-26.84a13.74,13.74,0,0,1,3.59-.57H4a13.79,13.79,0,0,1,3.49.44h0a15,15,0,0,1,1.68.56,13.57,13.57,0,0,1,2,1,13.92,13.92,0,0,1,5.62,6.3,11.6,11.6,0,0,1,.65,1.73,13.84,13.84,0,0,1,.45,2,.77.77,0,0,1,0,.15A13.53,13.53,0,0,1,18,1048Z"/><path class="cls-3" d="M25,1048a14,14,0,0,1-14,14,13.79,13.79,0,0,1-3.49-.44h0A14,14,0,0,1,0,1056.65v-17.3a13.78,13.78,0,0,1,3.32-3,10.57,10.57,0,0,1,.91-.56h0a12.51,12.51,0,0,1,1.57-.74,15,15,0,0,1,1.68-.56h0a14,14,0,0,1,8.68.56,13.75,13.75,0,0,1,5,3.41,13.63,13.63,0,0,1,1.93,2.59,12.42,12.42,0,0,1,.64,1.26A13.79,13.79,0,0,1,25,1048Z"/><rect class="cls-4" width="750" height="1334"/><g class="cls-5"><path class="cls-6" d="M158,1006H90V690.63a117.75,117.75,0,0,1,19.76-65.28l40.58-60.87A4.18,4.18,0,0,1,158,566.8Z"/><path class="cls-6" d="M288,1006H220V362.91A19.9,19.9,0,0,1,239.91,343h28.18A19.9,19.9,0,0,1,288,362.91Z"/><path class="cls-6" d="M220,1006H180V875.37a105,105,0,0,1,23.76-66.53L220,789Z"/><path class="cls-6" d="M44.77,755H68.23A16.77,16.77,0,0,1,85,771.77V1006a0,0,0,0,1,0,0H28a0,0,0,0,1,0,0V771.77A16.77,16.77,0,0,1,44.77,755Z"/><rect class="cls-6" x="66" y="911" width="53" height="95"/><rect class="cls-6" y="967" width="132" height="39"/><path class="cls-6" d="M433.91,569h23.18A27.91,27.91,0,0,1,485,596.91V1006a0,0,0,0,1,0,0H406a0,0,0,0,1,0,0V596.91A27.91,27.91,0,0,1,433.91,569Z"/><rect class="cls-6" x="536" y="569" width="54" height="437"/><rect class="cls-6" x="468" y="808" width="68" height="198"/><rect class="cls-6" x="528" y="556" width="68" height="17" rx="8.5"/><rect class="cls-6" x="545" y="524" width="33" height="36"/><rect class="cls-6" x="542" y="515" width="39" height="9" rx="4.5"/><rect class="cls-6" x="560" y="469" width="3" height="50" rx="1.5"/><path class="cls-6" d="M619,829H656a14,14,0,0,1,14,14v163a0,0,0,0,1,0,0H605a0,0,0,0,1,0,0V843A14,14,0,0,1,619,829Z"/><path class="cls-6" d="M750.28,978.51l-.28.07V1006H654V925h96v53.21A3.84,3.84,0,0,1,750.28,978.51Z"/><path class="cls-6" d="M750,644.5V996H703V532l6.44,10,19.18,29.79A134.3,134.3,0,0,1,750,644.5Z"/><rect class="cls-6" x="703" y="458" width="7" height="84"/><rect class="cls-6" x="703" y="388" width="4" height="73"/></g><circle class="cls-1" cx="44" cy="987" r="14"/><circle class="cls-1" cx="58" cy="975" r="14"/><circle class="cls-1" cx="65" cy="989" r="14"/><circle class="cls-1" cx="72" cy="974" r="14"/><circle class="cls-1" cx="79" cy="989" r="14"/><circle class="cls-1" cx="58" cy="1003" r="14"/><circle class="cls-1" cx="65" cy="1003" r="14"/><circle class="cls-1" cx="93" cy="1000" r="14"/><circle class="cls-1" cx="107" cy="988" r="14"/><circle class="cls-1" cx="114" cy="1002" r="14"/><circle class="cls-1" cx="121" cy="987" r="14"/><circle class="cls-1" cx="128" cy="1002" r="14"/><circle class="cls-1" cx="107" cy="1016" r="14"/><circle class="cls-1" cx="114" cy="1016" r="14"/><circle class="cls-1" cx="149" cy="992" r="14"/><circle class="cls-1" cx="163" cy="980" r="14"/><circle class="cls-1" cx="170" cy="994" r="14"/><circle class="cls-1" cx="177" cy="979" r="14"/><circle class="cls-1" cx="184" cy="994" r="14"/><circle class="cls-1" cx="163" cy="1008" r="14"/><circle class="cls-1" cx="170" cy="1008" r="14"/><circle class="cls-1" cx="183" cy="1000" r="14"/><circle class="cls-1" cx="197" cy="988" r="14"/><circle class="cls-1" cx="204" cy="1002" r="14"/><circle class="cls-1" cx="211" cy="987" r="14"/><circle class="cls-1" cx="218" cy="1002" r="14"/><circle class="cls-1" cx="197" cy="1016" r="14"/><circle class="cls-1" cx="204" cy="1016" r="14"/><circle class="cls-1" cx="224" cy="994" r="14"/><circle class="cls-1" cx="238" cy="982" r="14"/><circle class="cls-1" cx="245" cy="996" r="14"/><circle class="cls-1" cx="252" cy="981" r="14"/><circle class="cls-1" cx="259" cy="996" r="14"/><circle class="cls-1" cx="238" cy="1010" r="14"/><circle class="cls-1" cx="245" cy="1010" r="14"/><circle class="cls-1" cx="197" cy="975" r="14"/><circle class="cls-1" cx="211" cy="963" r="14"/><circle class="cls-1" cx="218" cy="977" r="14"/><circle class="cls-1" cx="225" cy="962" r="14"/><circle class="cls-1" cx="232" cy="977" r="14"/><circle class="cls-1" cx="211" cy="991" r="14"/><circle class="cls-1" cx="218" cy="991" r="14"/><circle class="cls-1" cx="457" cy="984" r="14"/><circle class="cls-1" cx="471" cy="972" r="14"/><circle class="cls-1" cx="478" cy="986" r="14"/><circle class="cls-1" cx="485" cy="971" r="14"/><circle class="cls-1" cx="492" cy="986" r="14"/><circle class="cls-1" cx="471" cy="1000" r="14"/><circle class="cls-1" cx="478" cy="1000" r="14"/><circle class="cls-1" cx="509" cy="988" r="14"/><circle class="cls-1" cx="523" cy="976" r="14"/><circle class="cls-1" cx="530" cy="990" r="14"/><circle class="cls-1" cx="537" cy="975" r="14"/><circle class="cls-1" cx="544" cy="990" r="14"/><circle class="cls-1" cx="523" cy="1004" r="14"/><circle class="cls-1" cx="530" cy="1004" r="14"/><circle class="cls-1" cx="550" cy="982" r="14"/><circle class="cls-1" cx="564" cy="970" r="14"/><circle class="cls-1" cx="571" cy="984" r="14"/><circle class="cls-1" cx="578" cy="969" r="14"/><circle class="cls-1" cx="585" cy="984" r="14"/><circle class="cls-1" cx="564" cy="998" r="14"/><circle class="cls-1" cx="571" cy="998" r="14"/><circle class="cls-1" cx="602" cy="985" r="14"/><circle class="cls-1" cx="616" cy="973" r="14"/><circle class="cls-1" cx="623" cy="987" r="14"/><circle class="cls-1" cx="630" cy="972" r="14"/><circle class="cls-1" cx="637" cy="987" r="14"/><circle class="cls-1" cx="616" cy="1001" r="14"/><circle class="cls-1" cx="623" cy="1001" r="14"/><circle class="cls-1" cx="585" cy="974" r="14"/><circle class="cls-1" cx="599" cy="962" r="14"/><circle class="cls-1" cx="606" cy="976" r="14"/><circle class="cls-1" cx="613" cy="961" r="14"/><circle class="cls-1" cx="620" cy="976" r="14"/><circle class="cls-1" cx="599" cy="990" r="14"/><circle class="cls-1" cx="606" cy="990" r="14"/><circle class="cls-1" cx="666" cy="998" r="14"/><circle class="cls-1" cx="680" cy="986" r="14"/><circle class="cls-1" cx="687" cy="1000" r="14"/><circle class="cls-1" cx="694" cy="985" r="14"/><circle class="cls-1" cx="701" cy="1000" r="14"/><circle class="cls-1" cx="680" cy="1014" r="14"/><circle class="cls-1" cx="687" cy="1014" r="14"/><circle class="cls-1" cx="733" cy="990" r="14"/><path class="cls-1" d="M750.28,978.51l-.28.07v13.1a14.14,14.14,0,0,1-3,.32h-.51a14.55,14.55,0,0,1-2.67-.35l-.82-.22c-.23-.07-.44-.14-.66-.23h-.07a12.83,12.83,0,0,1-1.57-.68l-.58-.31-.17-.1-.48-.29a14.33,14.33,0,0,1-1.26-.9,14,14,0,0,1-2.37-2.47,12.82,12.82,0,0,1-.85-1.23h0c-.12-.2-.24-.41-.35-.62A14,14,0,0,1,733,978a1.21,1.21,0,0,1,0-.19h0c0-.19,0-.38,0-.57s0-.21,0-.32c0-.31.05-.61.09-.91a1.7,1.7,0,0,1,0-.22,11.68,11.68,0,0,1,.35-1.58A14,14,0,0,1,750,964.32v13.89A3.84,3.84,0,0,1,750.28,978.51Z"/><path class="cls-1" d="M750,978.58v26.84a15.26,15.26,0,0,1-2.07-.8c-.33-.16-.66-.34-1-.53a14.08,14.08,0,0,1-3-2.3c-.09-.1-.19-.2-.27-.3a9.53,9.53,0,0,1-.72-.85,5.15,5.15,0,0,1-.37-.48h0c-.22-.31-.43-.62-.63-.95h0l-.11-.19a14.22,14.22,0,0,1-1.06-2.27c-.08-.24-.17-.48-.24-.73a13.31,13.31,0,0,1-.46-2.19c0-.12,0-.23,0-.35v-.08a11.27,11.27,0,0,1-.06-1.16h0a1.48,1.48,0,0,1,0-.21v-.2h0a6.85,6.85,0,0,1,0-.79s0-.06,0-.09,0,0,0-.06c0-.22,0-.44.07-.66.06-.44.13-.87.23-1.29a13.61,13.61,0,0,1,1.53-3.9,12.28,12.28,0,0,1,1.12-1.65,13.84,13.84,0,0,1,4.26-3.62c.3-.16.6-.32.92-.46A13.66,13.66,0,0,1,750,978.58Z"/><path class="cls-1" d="M750.28,978.51l-.28.07v7.07a13.52,13.52,0,0,1-1-1.46,13.9,13.9,0,0,1-1.73-4.46A14.44,14.44,0,0,1,747,977v-.2a8.69,8.69,0,0,1,0-.89,13.76,13.76,0,0,1,2.22-6.53,12,12,0,0,1,.73-1v9.86A3.84,3.84,0,0,1,750.28,978.51Z"/><path class="cls-1" d="M750,992.32v27.36a14.14,14.14,0,0,1-3,.32h-.32a13.91,13.91,0,0,1-5.09-1.08l-.53-.23-.22-.11-.34-.17c-.18-.1-.36-.19-.53-.3h0a13.86,13.86,0,0,1-2.47-1.83c-.08-.08-.17-.16-.25-.25a14.33,14.33,0,0,1-1.17-1.28l-.06-.08a14.82,14.82,0,0,1-1-1.44h0a13.13,13.13,0,0,1-.83-1.63,12.51,12.51,0,0,1-.5-1.33,13,13,0,0,1-.46-1.86,14.25,14.25,0,0,1-.17-1.48q0-.45,0-.9v-.2h0a8.49,8.49,0,0,1,0-.88c0-.14,0-.27,0-.41l.06-.5h0c.05-.33.11-.65.18-1a14,14,0,0,1,.73-2.33c0-.09.07-.17.11-.25l0-.09a13.51,13.51,0,0,1,1.32-2.35,13.71,13.71,0,0,1,1.42-1.71,3.57,3.57,0,0,1,.27-.28,4.27,4.27,0,0,1,.38-.36l0,0a14.75,14.75,0,0,1,1.16-.93,12.91,12.91,0,0,1,1.32-.85l.38-.21.34-.17.16-.08a13.39,13.39,0,0,1,1.52-.61l.48-.16a14.22,14.22,0,0,1,3.47-.57H747A14.14,14.14,0,0,1,750,992.32Z"/><path class="cls-1" d="M750,992.58v26.84a13,13,0,0,1-1.24-.44,13.21,13.21,0,0,1-1.81-.89,13,13,0,0,1-1.75-1.21,11.5,11.5,0,0,1-1-.87l-.22-.22a12,12,0,0,1-1-1.14c-.2-.25-.4-.52-.58-.79l-.21-.32a4,4,0,0,1-.22-.34h0l-.11-.19a13,13,0,0,1-1-2.17,13.87,13.87,0,0,1-.86-4.62h0v-.4h0a8.49,8.49,0,0,1,0-.88,13.54,13.54,0,0,1,.54-2.93l.09-.27h0a13.62,13.62,0,0,1,1.2-2.7,1.74,1.74,0,0,1,.11-.18h0a11.06,11.06,0,0,1,1-1.45l.14-.19a11.3,11.3,0,0,1,.86-1l.21-.21c.19-.19.38-.37.58-.54a13.37,13.37,0,0,1,1.53-1.16A14.08,14.08,0,0,1,750,992.58Z"/><circle class="cls-2" cx="39" cy="1006" r="14"/><circle class="cls-2" cx="53" cy="994" r="14"/><circle class="cls-2" cx="60" cy="1008" r="14"/><circle class="cls-2" cx="67" cy="993" r="14"/><circle class="cls-2" cx="74" cy="1008" r="14"/><circle class="cls-2" cx="53" cy="1022" r="14"/><circle class="cls-2" cx="60" cy="1022" r="14"/><circle class="cls-2" cx="88" cy="1012" r="14"/><circle class="cls-2" cx="102" cy="1000" r="14"/><circle class="cls-2" cx="109" cy="1014" r="14"/><circle class="cls-2" cx="116" cy="999" r="14"/><circle class="cls-2" cx="123" cy="1014" r="14"/><circle class="cls-2" cx="102" cy="1028" r="14"/><circle class="cls-2" cx="109" cy="1028" r="14"/><circle class="cls-2" cx="131" cy="1013" r="14"/><circle class="cls-2" cx="145" cy="1001" r="14"/><circle class="cls-2" cx="152" cy="1015" r="14"/><circle class="cls-2" cx="159" cy="1000" r="14"/><circle class="cls-2" cx="166" cy="1015" r="14"/><circle class="cls-2" cx="145" cy="1029" r="14"/><circle class="cls-2" cx="152" cy="1029" r="14"/><circle class="cls-2" cx="454" cy="1001" r="14"/><circle class="cls-2" cx="468" cy="989" r="14"/><circle class="cls-2" cx="475" cy="1003" r="14"/><circle class="cls-2" cx="482" cy="988" r="14"/><circle class="cls-2" cx="489" cy="1003" r="14"/><circle class="cls-2" cx="468" cy="1017" r="14"/><circle class="cls-2" cx="475" cy="1017" r="14"/><circle class="cls-2" cx="489" cy="1005" r="14"/><circle class="cls-2" cx="503" cy="993" r="14"/><circle class="cls-2" cx="510" cy="1007" r="14"/><circle class="cls-2" cx="517" cy="992" r="14"/><circle class="cls-2" cx="524" cy="1007" r="14"/><circle class="cls-2" cx="503" cy="1021" r="14"/><circle class="cls-2" cx="510" cy="1021" r="14"/><circle class="cls-2" cx="530" cy="999" r="14"/><circle class="cls-2" cx="544" cy="987" r="14"/><circle class="cls-2" cx="551" cy="1001" r="14"/><circle class="cls-2" cx="558" cy="986" r="14"/><circle class="cls-2" cx="565" cy="1001" r="14"/><circle class="cls-2" cx="544" cy="1015" r="14"/><circle class="cls-2" cx="551" cy="1015" r="14"/><circle class="cls-2" cx="578" cy="991" r="14"/><circle class="cls-2" cx="592" cy="979" r="14"/><circle class="cls-2" cx="599" cy="993" r="14"/><circle class="cls-2" cx="606" cy="978" r="14"/><circle class="cls-2" cx="613" cy="993" r="14"/><circle class="cls-2" cx="592" cy="1007" r="14"/><circle class="cls-2" cx="599" cy="1007" r="14"/><circle class="cls-2" cx="621" cy="996" r="14"/><circle class="cls-2" cx="635" cy="984" r="14"/><circle class="cls-2" cx="642" cy="998" r="14"/><circle class="cls-2" cx="649" cy="983" r="14"/><circle class="cls-2" cx="656" cy="998" r="14"/><circle class="cls-2" cx="635" cy="1012" r="14"/><circle class="cls-2" cx="642" cy="1012" r="14"/><circle class="cls-2" cx="705" cy="1003" r="14"/><circle class="cls-2" cx="719" cy="991" r="14"/><circle class="cls-2" cx="726" cy="1005" r="14"/><path class="cls-2" d="M743.28,980.51l-.28.07v19.21a13.92,13.92,0,0,1-3.23,2.47h0a13.4,13.4,0,0,1-2.76,1.15l-.26.07a13.46,13.46,0,0,1-3.13.49,2.17,2.17,0,0,1-.36,0H733a13.83,13.83,0,0,1-5.39-1.08l-.56-.24-.19-.1-.6-.31a13.66,13.66,0,0,1-2-1.31c-.15-.11-.3-.24-.45-.37a12.89,12.89,0,0,1-2-2.12,5.09,5.09,0,0,1-.34-.47,12.89,12.89,0,0,1-1.28-2.26,2,2,0,0,1-.1-.21,14,14,0,0,1-.88-2.8,13.87,13.87,0,0,1-.24-2.15,5.62,5.62,0,0,1,0-.58,14,14,0,0,1,5.8-11.34,4.15,4.15,0,0,1,.34-.24h0c.2-.14.42-.28.63-.4h0l.39-.23a14.21,14.21,0,0,1,1.52-.74,14,14,0,0,1,5.3-1,14,14,0,0,1,10,4.21A3.84,3.84,0,0,1,743.28,980.51Z"/><path class="cls-2" d="M743,991.32v27.36a14.14,14.14,0,0,1-3,.32,13.38,13.38,0,0,1-1.8-.12,12.58,12.58,0,0,1-1.94-.39,12.84,12.84,0,0,1-1.65-.57,13.4,13.4,0,0,1-1.61-.8l-.14-.08a14.23,14.23,0,0,1-2-1.45,13.86,13.86,0,0,1-2.82-3.33h0a13,13,0,0,1-1.13-2.31,14,14,0,0,1-.58-1.94c-.07-.34-.13-.69-.18-1l-.06-.46c0-.17,0-.33,0-.5,0-.33,0-.66,0-1a14,14,0,0,1,.14-2c0-.26.08-.52.12-.77a13.92,13.92,0,0,1,.94-2.93,13,13,0,0,1,.68-1.34,13.79,13.79,0,0,1,2.86-3.49,10.66,10.66,0,0,1,1.06-.85c.11-.09.23-.17.35-.25s.47-.31.71-.45l.14-.08,0,0,.65-.35A14,14,0,0,1,740,991h0A14.14,14.14,0,0,1,743,991.32Z"/><circle class="cls-2" cx="719" cy="1019" r="14"/><circle class="cls-2" cx="726" cy="1019" r="14"/><circle class="cls-2" cx="180" cy="1001" r="14"/><circle class="cls-2" cx="194" cy="989" r="14"/><circle class="cls-2" cx="201" cy="1003" r="14"/><circle class="cls-2" cx="208" cy="988" r="14"/><circle class="cls-2" cx="215" cy="1003" r="14"/><circle class="cls-2" cx="194" cy="1017" r="14"/><circle class="cls-2" cx="201" cy="1017" r="14"/><circle class="cls-2" cx="212" cy="1008" r="14"/><circle class="cls-2" cx="226" cy="996" r="14"/><circle class="cls-2" cx="233" cy="1010" r="14"/><circle class="cls-2" cx="240" cy="995" r="14"/><circle class="cls-2" cx="247" cy="1010" r="14"/><circle class="cls-2" cx="226" cy="1024" r="14"/><circle class="cls-2" cx="233" cy="1024" r="14"/><polygon class="cls-7" points="53.7 1027 70.75 1027 65.5 1011.23 62.23 1001.38 53.7 1027"/><path class="cls-7" d="M64.57,953.71l1.43,59H58.46l1.74-59a2.09,2.09,0,0,1,2.19-1.92h0A2.1,2.1,0,0,1,64.57,953.71Z"/><ellipse class="cls-7" cx="62.31" cy="947.86" rx="2.7" ry="2.44"/><path class="cls-7" d="M64.09,898.56l1.46,43.81A1.74,1.74,0,0,1,63.67,944H60.52a1.74,1.74,0,0,1-1.88-1.65l1.7-43.81A1.76,1.76,0,0,1,62.22,897h0A1.76,1.76,0,0,1,64.09,898.56Z"/><path class="cls-7" d="M111.6,969.44l-44.75-16.7a1.5,1.5,0,0,1-1-2L67,948.39a1.83,1.83,0,0,1,2.36-.71l43.6,19a1.5,1.5,0,0,1,.87,2h0A1.82,1.82,0,0,1,111.6,969.44Z"/><path class="cls-7" d="M12.9,969.46l44.7-16.82a1.48,1.48,0,0,0,1-2l-1.12-2.24a1.82,1.82,0,0,0-2.34-.66L11.56,966.8a1.47,1.47,0,0,0-.9,2h0A1.8,1.8,0,0,0,12.9,969.46Z"/><path class="cls-8" d="M344,423v617H232.64l5.15-29.49,1.55-8.85,3.48-19.9,1.55-8.85L247.85,953l1.55-8.84,3.48-19.91,1.55-8.85,3.48-19.9,1.54-8.85,3.49-19.91,1.54-8.85L268,838l1.55-8.85L273,809.23l1.55-8.84L278,780.48l1.55-8.85,3.48-19.9,1.55-8.85L288.08,723l1.55-8.84,3.48-19.91,1.55-8.85,3.48-19.9,1.55-8.85,3.48-19.91,1.55-8.84L308.2,608l1.55-8.85,3.48-19.9,1.54-8.85,3.48-19.91,1.55-8.84,3.48-19.91,1.55-8.85,3.35-19.17,1.55-8.84,3.35-19.17,1.55-8.85,6-34.12A1.73,1.73,0,0,1,344,423Z"/><path class="cls-8" d="M474.59,1040H363.18V423a1.73,1.73,0,0,1,3.44-.3l6,34.12,1.55,8.85,3.35,19.17,1.55,8.84,3.35,19.17,1.55,8.85,3.48,19.91,1.55,8.84,3.48,19.91,1.55,8.85,3.48,19.9L399,608l3.48,19.91,1.55,8.84,3.48,19.91,1.54,8.85,3.49,19.9,1.54,8.85,3.49,19.91,1.54,8.84,3.48,19.91,1.55,8.85,3.48,19.9,1.55,8.85,3.48,19.91,1.55,8.84,3.48,19.91,1.55,8.85,3.48,19.9,1.55,8.85,3.48,19.91,1.54,8.85,3.49,19.9,1.54,8.85,3.49,19.91,1.54,8.84,3.49,19.91,1.54,8.85,3.48,19.9,1.55,8.85Z"/><rect class="cls-9" x="344.04" y="598.38" width="19.14" height="441.62"/><path class="cls-10" d="M344,456.82v8.85h-13.6c-1.41,0-2.55-2-2.55-4.43a6.51,6.51,0,0,1,.74-3.12,2.24,2.24,0,0,1,1.81-1.3Z"/><path class="cls-10" d="M380.61,461.24a6.52,6.52,0,0,1-.74,3.13,2.24,2.24,0,0,1-1.81,1.3H363.18v-8.85h14.88C379.47,456.82,380.61,458.81,380.61,461.24Z"/><path class="cls-10" d="M344,484.84v8.84H324.48c-1.4,0-2.55-2-2.55-4.42a6.43,6.43,0,0,1,.75-3.13,2.22,2.22,0,0,1,1.8-1.29Z"/><path class="cls-10" d="M384.87,489.26a6.43,6.43,0,0,1-.75,3.13,2.24,2.24,0,0,1-1.81,1.29H363.18v-8.84h19.13C383.72,484.84,384.87,486.83,384.87,489.26Z"/><path class="cls-10" d="M344,512.85v8.85H319.38c-1.4,0-2.55-2-2.55-4.42a6.41,6.41,0,0,1,.75-3.13,2.22,2.22,0,0,1,1.8-1.3Z"/><path class="cls-10" d="M390,517.28a6.39,6.39,0,0,1-.75,3.12,2.22,2.22,0,0,1-1.8,1.3H363.18v-8.85h24.24C388.82,512.85,390,514.84,390,517.28Z"/><path class="cls-10" d="M344,541.61v8.84H313.85c-1.4,0-2.55-2-2.55-4.42a6.43,6.43,0,0,1,.75-3.13,2.22,2.22,0,0,1,1.8-1.29Z"/><path class="cls-10" d="M395.5,546a6.43,6.43,0,0,1-.75,3.13,2.22,2.22,0,0,1-1.8,1.29H363.18v-8.84H393C394.35,541.61,395.5,543.6,395.5,546Z"/><path class="cls-10" d="M344,570.36v8.85H308.33c-1.41,0-2.56-2-2.56-4.43a6.39,6.39,0,0,1,.75-3.12,2.23,2.23,0,0,1,1.81-1.3Z"/><path class="cls-10" d="M401,574.78a6.41,6.41,0,0,1-.74,3.13,2.23,2.23,0,0,1-1.81,1.3H363.18v-8.85h35.29C399.88,570.36,401,572.35,401,574.78Z"/><path class="cls-10" d="M344,599.11V608H302c-1.41,0-2.55-2-2.55-4.42a6.41,6.41,0,0,1,.74-3.13,2.24,2.24,0,0,1,1.81-1.3Z"/><path class="cls-10" d="M407.4,603.54a6.39,6.39,0,0,1-.75,3.12,2.22,2.22,0,0,1-1.8,1.3H363.18v-8.85h41.67C406.26,599.11,407.4,601.1,407.4,603.54Z"/><path class="cls-10" d="M344,627.87v8.84h-48.9c-1.4,0-2.55-2-2.55-4.42a6.43,6.43,0,0,1,.75-3.13,2.22,2.22,0,0,1,1.8-1.29Z"/><path class="cls-10" d="M414.21,632.29a6.43,6.43,0,0,1-.75,3.13,2.22,2.22,0,0,1-1.8,1.29H363.18v-8.84h48.48C413.06,627.87,414.21,629.86,414.21,632.29Z"/><path class="cls-10" d="M344,656.62v8.85H287.49c-1.4,0-2.55-2-2.55-4.43a6.39,6.39,0,0,1,.75-3.12,2.22,2.22,0,0,1,1.8-1.3Z"/><path class="cls-10" d="M421.86,661a6.41,6.41,0,0,1-.75,3.13,2.22,2.22,0,0,1-1.8,1.3H363.18v-8.85h56.13C420.71,656.62,421.86,658.61,421.86,661Z"/><path class="cls-10" d="M344,685.37v8.85H280.69a2.23,2.23,0,0,1-1.81-1.3,6.39,6.39,0,0,1-.75-3.12c0-2.44,1.15-4.43,2.56-4.43Z"/><path class="cls-10" d="M428.66,689.8c0,2.43-1.14,4.42-2.55,4.42H363.18v-8.85h62.93a2.26,2.26,0,0,1,1.81,1.3A6.43,6.43,0,0,1,428.66,689.8Z"/><path class="cls-10" d="M344,714.13V723H274.31a2.25,2.25,0,0,1-1.81-1.29,6.55,6.55,0,0,1-.74-3.13c0-2.43,1.14-4.42,2.55-4.42Z"/><path class="cls-10" d="M435.89,718.55c0,2.43-1.14,4.42-2.55,4.42H363.18v-8.84h70.16a2.25,2.25,0,0,1,1.81,1.29A6.55,6.55,0,0,1,435.89,718.55Z"/><path class="cls-10" d="M344,742.88v8.85H266.65c-1.4,0-2.55-2-2.55-4.43a6.39,6.39,0,0,1,.75-3.12,2.22,2.22,0,0,1,1.8-1.3Z"/><path class="cls-10" d="M444.4,747.3a6.41,6.41,0,0,1-.75,3.13,2.22,2.22,0,0,1-1.8,1.3H363.18v-8.85h78.67C443.25,742.88,444.4,744.87,444.4,747.3Z"/><path class="cls-10" d="M344,771.63v8.85H260.7c-1.4,0-2.55-2-2.55-4.42a6.43,6.43,0,0,1,.75-3.13,2.24,2.24,0,0,1,1.8-1.3Z"/><path class="cls-10" d="M450.35,776.06a6.39,6.39,0,0,1-.75,3.12,2.22,2.22,0,0,1-1.8,1.3H363.18v-8.85H447.8C449.2,771.63,450.35,773.62,450.35,776.06Z"/><path class="cls-10" d="M344,800.39v8.84H254.32c-1.4,0-2.55-2-2.55-4.42a6.37,6.37,0,0,1,.75-3.12,2.22,2.22,0,0,1,1.8-1.3Z"/><path class="cls-10" d="M456.73,804.81a6.43,6.43,0,0,1-.75,3.13,2.22,2.22,0,0,1-1.8,1.29h-91v-8.84h91C455.58,800.39,456.73,802.38,456.73,804.81Z"/><path class="cls-10" d="M344,829.14V838h-94c-1.4,0-2.55-2-2.55-4.43a6.39,6.39,0,0,1,.75-3.12,2.22,2.22,0,0,1,1.8-1.3Z"/><path class="cls-10" d="M461,833.56a6.41,6.41,0,0,1-.75,3.13,2.22,2.22,0,0,1-1.8,1.3H363.18v-8.85h95.25C459.83,829.14,461,831.13,461,833.56Z"/><path class="cls-10" d="M344,857.89v8.85H243.69c-1.4,0-2.55-2-2.55-4.42a6.43,6.43,0,0,1,.75-3.13,2.24,2.24,0,0,1,1.8-1.3Z"/><path class="cls-10" d="M467.36,862.32a6.39,6.39,0,0,1-.75,3.12,2.22,2.22,0,0,1-1.8,1.3H363.18v-8.85H464.81C466.21,857.89,467.36,859.89,467.36,862.32Z"/><path class="cls-10" d="M344,886.65v8.85H237.31a2.24,2.24,0,0,1-1.8-1.3,6.43,6.43,0,0,1-.75-3.13c0-2.43,1.15-4.42,2.55-4.42Z"/><path class="cls-10" d="M472.89,891.07c0,2.43-1.15,4.43-2.55,4.43H363.18v-8.85H470.34a2.22,2.22,0,0,1,1.8,1.3A6.39,6.39,0,0,1,472.89,891.07Z"/><path class="cls-10" d="M344,915.4v8.85H231.78c-1.4,0-2.55-2-2.55-4.42a6.41,6.41,0,0,1,.75-3.13,2.23,2.23,0,0,1,1.8-1.3Z"/><path class="cls-10" d="M477.57,919.83a6.39,6.39,0,0,1-.75,3.12,2.23,2.23,0,0,1-1.81,1.3H363.18V915.4H475C476.42,915.4,477.57,917.39,477.57,919.83Z"/><path class="cls-10" d="M344,944.16V953H226.26c-1.41,0-2.55-2-2.55-4.42a6.43,6.43,0,0,1,.74-3.13,2.25,2.25,0,0,1,1.81-1.29Z"/><path class="cls-10" d="M483.09,948.58a6.48,6.48,0,0,1-.74,3.12,2.24,2.24,0,0,1-1.81,1.3H363.18v-8.84H480.54C482,944.16,483.09,946.15,483.09,948.58Z"/><path class="cls-10" d="M344,972.91v8.85H220.73c-1.4,0-2.55-2-2.55-4.43a6.39,6.39,0,0,1,.75-3.12,2.22,2.22,0,0,1,1.8-1.3Z"/><path class="cls-10" d="M488.62,977.33a6.43,6.43,0,0,1-.75,3.13,2.24,2.24,0,0,1-1.8,1.3H363.18v-8.85H486.07C487.47,972.91,488.62,974.9,488.62,977.33Z"/><path class="cls-10" d="M344,1001.66v8.85h-128c-1.4,0-2.55-2-2.55-4.42a6.41,6.41,0,0,1,.75-3.13,2.22,2.22,0,0,1,1.8-1.3Z"/><path class="cls-10" d="M495,1006.09a6.39,6.39,0,0,1-.75,3.12,2.22,2.22,0,0,1-1.8,1.3H363.18v-8.85H492.45C493.85,1001.66,495,1003.65,495,1006.09Z"/><path class="cls-11" d="M495,1006.09a6.39,6.39,0,0,1-.75,3.12,2.22,2.22,0,0,1-1.8,1.3h-23l5.16,29.49H232.64l5.15-29.49H216.05c-1.4,0-2.55-2-2.55-4.42a6.41,6.41,0,0,1,.75-3.13,2.22,2.22,0,0,1,1.8-1.3h23.29l3.48-19.9H220.73c-1.4,0-2.55-2-2.55-4.43a6.39,6.39,0,0,1,.75-3.12,2.22,2.22,0,0,1,1.8-1.3h23.64L247.85,953H226.26c-1.41,0-2.55-2-2.55-4.42a6.43,6.43,0,0,1,.74-3.13,2.25,2.25,0,0,1,1.81-1.29H249.4l3.48-19.91h-21.1c-1.4,0-2.55-2-2.55-4.42a6.41,6.41,0,0,1,.75-3.13,2.23,2.23,0,0,1,1.8-1.3h22.65l3.48-19.9h-20.6a2.24,2.24,0,0,1-1.8-1.3,6.43,6.43,0,0,1-.75-3.13c0-2.43,1.15-4.42,2.55-4.42h22.14l3.49-19.91H243.69c-1.4,0-2.55-2-2.55-4.42a6.43,6.43,0,0,1,.75-3.13,2.24,2.24,0,0,1,1.8-1.3h20.79L268,838h-17.9c-1.4,0-2.55-2-2.55-4.43a6.39,6.39,0,0,1,.75-3.12,2.22,2.22,0,0,1,1.8-1.3h19.45L273,809.23H254.32c-1.4,0-2.55-2-2.55-4.42a6.37,6.37,0,0,1,.75-3.12,2.22,2.22,0,0,1,1.8-1.3h20.22L278,780.48H260.7c-1.4,0-2.55-2-2.55-4.42a6.43,6.43,0,0,1,.75-3.13,2.24,2.24,0,0,1,1.8-1.3h18.87l3.48-19.9h-16.4c-1.4,0-2.55-2-2.55-4.43a6.39,6.39,0,0,1,.75-3.12,2.22,2.22,0,0,1,1.8-1.3h18L288.08,723H274.31a2.25,2.25,0,0,1-1.81-1.29,6.55,6.55,0,0,1-.74-3.13c0-2.43,1.14-4.42,2.55-4.42h15.32l3.48-19.91H280.69a2.23,2.23,0,0,1-1.81-1.3,6.39,6.39,0,0,1-.75-3.12c0-2.44,1.15-4.43,2.56-4.43h14l3.48-19.9H287.49c-1.4,0-2.55-2-2.55-4.43a6.39,6.39,0,0,1,.75-3.12,2.22,2.22,0,0,1,1.8-1.3h12.2l3.48-19.91h-8c-1.4,0-2.55-2-2.55-4.42a6.43,6.43,0,0,1,.75-3.13,2.22,2.22,0,0,1,1.8-1.29h9.58L308.2,608H302c-1.41,0-2.55-2-2.55-4.42a6.41,6.41,0,0,1,.74-3.13,2.24,2.24,0,0,1,1.81-1.3h7.8l3.48-19.9h-4.9c-1.41,0-2.56-2-2.56-4.43a6.39,6.39,0,0,1,.75-3.12,2.23,2.23,0,0,1,1.81-1.3h6.44l3.48-19.91h-4.4c-1.4,0-2.55-2-2.55-4.42a6.43,6.43,0,0,1,.75-3.13,2.22,2.22,0,0,1,1.8-1.29h5.95l3.48-19.91h-3.9c-1.4,0-2.55-2-2.55-4.42a6.41,6.41,0,0,1,.75-3.13,2.22,2.22,0,0,1,1.8-1.3h5.45l3.35-19.17h-3.7c-1.4,0-2.55-2-2.55-4.42a6.43,6.43,0,0,1,.75-3.13,2.22,2.22,0,0,1,1.8-1.29h5.25l3.35-19.17h-2.64c-1.41,0-2.55-2-2.55-4.43a6.51,6.51,0,0,1,.74-3.12,2.24,2.24,0,0,1,1.81-1.3h4.19l5.95-34a1.74,1.74,0,0,1,3.46.3V598.38h19.14V423.09a1.74,1.74,0,0,1,3.46-.3l5.95,34h5.47c1.41,0,2.55,2,2.55,4.42a6.52,6.52,0,0,1-.74,3.13,2.24,2.24,0,0,1-1.81,1.3h-3.92l3.35,19.17h4.82c1.41,0,2.56,2,2.56,4.42a6.43,6.43,0,0,1-.75,3.13,2.24,2.24,0,0,1-1.81,1.29H379l3.35,19.17h5c1.4,0,2.55,2,2.55,4.43a6.39,6.39,0,0,1-.75,3.12,2.22,2.22,0,0,1-1.8,1.3h-3.48l3.48,19.91H393c1.4,0,2.55,2,2.55,4.42a6.43,6.43,0,0,1-.75,3.13,2.22,2.22,0,0,1-1.8,1.29h-4l3.48,19.91h6c1.41,0,2.55,2,2.55,4.42a6.41,6.41,0,0,1-.74,3.13,2.23,2.23,0,0,1-1.81,1.3H394l3.48,19.9h7.37c1.41,0,2.55,2,2.55,4.43a6.39,6.39,0,0,1-.75,3.12,2.22,2.22,0,0,1-1.8,1.3H399l3.48,19.91h9.15c1.4,0,2.55,2,2.55,4.42a6.43,6.43,0,0,1-.75,3.13,2.22,2.22,0,0,1-1.8,1.29h-7.6l3.48,19.91h11.77c1.4,0,2.55,2,2.55,4.42a6.41,6.41,0,0,1-.75,3.13,2.22,2.22,0,0,1-1.8,1.3H409.08l3.49,19.9h13.54a2.26,2.26,0,0,1,1.81,1.3,6.43,6.43,0,0,1,.74,3.13c0,2.43-1.14,4.42-2.55,4.42h-12l3.49,19.91h15.74a2.25,2.25,0,0,1,1.81,1.29,6.55,6.55,0,0,1,.74,3.13c0,2.43-1.14,4.42-2.55,4.42h-14.2l3.48,19.91h19.23c1.4,0,2.55,2,2.55,4.42a6.41,6.41,0,0,1-.75,3.13,2.22,2.22,0,0,1-1.8,1.3H424.17l3.48,19.9H447.8c1.4,0,2.55,2,2.55,4.43a6.39,6.39,0,0,1-.75,3.12,2.22,2.22,0,0,1-1.8,1.3H429.2l3.48,19.91h21.5c1.4,0,2.55,2,2.55,4.42a6.43,6.43,0,0,1-.75,3.13,2.22,2.22,0,0,1-1.8,1.29H434.23l3.48,19.91h20.72c1.4,0,2.55,2,2.55,4.42a6.41,6.41,0,0,1-.75,3.13,2.22,2.22,0,0,1-1.8,1.3H439.26l3.48,19.9h22.07c1.4,0,2.55,2,2.55,4.43a6.39,6.39,0,0,1-.75,3.12,2.22,2.22,0,0,1-1.8,1.3H444.29l3.48,19.91h22.57a2.22,2.22,0,0,1,1.8,1.3,6.39,6.39,0,0,1,.75,3.12c0,2.43-1.15,4.43-2.55,4.43h-21l3.49,19.9H475c1.41,0,2.56,2,2.56,4.43a6.39,6.39,0,0,1-.75,3.12,2.23,2.23,0,0,1-1.81,1.3H454.34l3.49,19.91h22.71c1.41,0,2.55,2,2.55,4.42a6.48,6.48,0,0,1-.74,3.12,2.24,2.24,0,0,1-1.81,1.3H459.37l3.49,19.91h23.21c1.4,0,2.55,2,2.55,4.42a6.43,6.43,0,0,1-.75,3.13,2.24,2.24,0,0,1-1.8,1.3H464.4l3.48,19.9h24.57C493.85,1001.66,495,1003.65,495,1006.09Z"/><circle class="cls-3" cx="30" cy="1024" r="14"/><circle class="cls-3" cx="44" cy="1012" r="14"/><circle class="cls-3" cx="51" cy="1026" r="14"/><circle class="cls-3" cx="58" cy="1011" r="14"/><circle class="cls-3" cx="65" cy="1026" r="14"/><circle class="cls-3" cx="44" cy="1040" r="14"/><circle class="cls-3" cx="51" cy="1040" r="14"/><circle class="cls-3" cx="82" cy="1032" r="14"/><circle class="cls-3" cx="96" cy="1020" r="14"/><circle class="cls-3" cx="103" cy="1034" r="14"/><circle class="cls-3" cx="110" cy="1019" r="14"/><circle class="cls-3" cx="117" cy="1034" r="14"/><circle class="cls-3" cx="96" cy="1048" r="14"/><circle class="cls-3" cx="103" cy="1048" r="14"/><circle class="cls-3" cx="142" cy="1029" r="14"/><circle class="cls-3" cx="156" cy="1017" r="14"/><circle class="cls-3" cx="163" cy="1031" r="14"/><circle class="cls-3" cx="170" cy="1016" r="14"/><circle class="cls-3" cx="177" cy="1031" r="14"/><circle class="cls-3" cx="156" cy="1045" r="14"/><circle class="cls-3" cx="163" cy="1045" r="14"/><circle class="cls-3" cx="112" cy="1035" r="14"/><circle class="cls-3" cx="126" cy="1023" r="14"/><circle class="cls-3" cx="133" cy="1037" r="14"/><circle class="cls-3" cx="140" cy="1022" r="14"/><circle class="cls-3" cx="147" cy="1037" r="14"/><circle class="cls-3" cx="126" cy="1051" r="14"/><circle class="cls-3" cx="133" cy="1051" r="14"/><circle class="cls-3" cx="114" cy="1018" r="14"/><circle class="cls-3" cx="128" cy="1006" r="14"/><circle class="cls-3" cx="135" cy="1020" r="14"/><circle class="cls-3" cx="142" cy="1005" r="14"/><circle class="cls-3" cx="149" cy="1020" r="14"/><circle class="cls-3" cx="128" cy="1034" r="14"/><circle class="cls-3" cx="135" cy="1034" r="14"/><circle class="cls-3" cx="185" cy="1008" r="14"/><circle class="cls-3" cx="199" cy="996" r="14"/><circle class="cls-3" cx="206" cy="1010" r="14"/><circle class="cls-3" cx="213" cy="995" r="14"/><circle class="cls-3" cx="220" cy="1010" r="14"/><circle class="cls-3" cx="199" cy="1024" r="14"/><circle class="cls-3" cx="206" cy="1024" r="14"/><circle class="cls-3" cx="466" cy="1011" r="14"/><circle class="cls-3" cx="480" cy="999" r="14"/><circle class="cls-3" cx="487" cy="1013" r="14"/><circle class="cls-3" cx="494" cy="998" r="14"/><circle class="cls-3" cx="501" cy="1013" r="14"/><circle class="cls-3" cx="480" cy="1027" r="14"/><circle class="cls-3" cx="487" cy="1027" r="14"/><circle class="cls-3" cx="482" cy="1019" r="14"/><circle class="cls-3" cx="496" cy="1007" r="14"/><circle class="cls-3" cx="503" cy="1021" r="14"/><circle class="cls-3" cx="510" cy="1006" r="14"/><circle class="cls-3" cx="517" cy="1021" r="14"/><circle class="cls-3" cx="496" cy="1035" r="14"/><circle class="cls-3" cx="503" cy="1035" r="14"/><circle class="cls-3" cx="516" cy="1011" r="14"/><circle class="cls-3" cx="530" cy="999" r="14"/><circle class="cls-3" cx="537" cy="1013" r="14"/><circle class="cls-3" cx="544" cy="998" r="14"/><circle class="cls-3" cx="551" cy="1013" r="14"/><circle class="cls-3" cx="530" cy="1027" r="14"/><circle class="cls-3" cx="537" cy="1027" r="14"/><circle class="cls-3" cx="646" cy="1005" r="14"/><circle class="cls-3" cx="660" cy="993" r="14"/><circle class="cls-3" cx="667" cy="1007" r="14"/><circle class="cls-3" cx="674" cy="992" r="14"/><circle class="cls-3" cx="681" cy="1007" r="14"/><circle class="cls-3" cx="660" cy="1021" r="14"/><circle class="cls-3" cx="667" cy="1021" r="14"/><circle class="cls-3" cx="206" cy="1023" r="14"/><circle class="cls-3" cx="220" cy="1011" r="14"/><circle class="cls-3" cx="227" cy="1025" r="14"/><circle class="cls-3" cx="234" cy="1010" r="14"/><circle class="cls-3" cx="241" cy="1025" r="14"/><circle class="cls-3" cx="220" cy="1039" r="14"/><circle class="cls-3" cx="227" cy="1039" r="14"/><polygon class="cls-12" points="536.4 1021 562.01 1021 554.13 998.92 549.21 985.14 536.4 1021"/><path class="cls-12" d="M552.73,918.4l2.14,82.6H543.54l2.63-82.62a3.07,3.07,0,0,1,3.28-2.68h0A3.07,3.07,0,0,1,552.73,918.4Z"/><ellipse class="cls-12" cx="549.33" cy="910.2" rx="4.06" ry="3.42"/><path class="cls-12" d="M552,841.18l2.19,61.33c0,1.27-1.23,2.31-2.82,2.31h-4.74c-1.6,0-2.88-1.05-2.83-2.32l2.56-61.33a2.61,2.61,0,0,1,2.82-2.17h0A2.6,2.6,0,0,1,552,841.18Z"/><path class="cls-12" d="M623.39,940.42,556.15,917a2.07,2.07,0,0,1-1.46-2.86l1.74-3.24a2.85,2.85,0,0,1,3.54-1l65.51,26.62a2,2,0,0,1,1.31,2.81h0A2.84,2.84,0,0,1,623.39,940.42Z"/><path class="cls-12" d="M475.09,940.44l67.16-23.54c1.39-.49,2.06-1.76,1.49-2.81L542.06,911a2.83,2.83,0,0,0-3.51-.92l-65.48,26.68a2,2,0,0,0-1.34,2.74h0A2.8,2.8,0,0,0,475.09,940.44Z"/><polygon class="cls-7" points="698.52 990 709.96 990 706.44 979.57 704.24 973.05 698.52 990"/><path class="cls-7" d="M705.81,941.52l1,39h-5.06l1.17-39a1.4,1.4,0,0,1,1.47-1.27h0A1.4,1.4,0,0,1,705.81,941.52Z"/><ellipse class="cls-7" cx="704.29" cy="937.65" rx="1.82" ry="1.62"/><path class="cls-7" d="M705.49,905l1,29a1.16,1.16,0,0,1-1.26,1.09h-2.12a1.16,1.16,0,0,1-1.26-1.09L703,905a1.18,1.18,0,0,1,1.26-1h0A1.19,1.19,0,0,1,705.49,905Z"/><path class="cls-7" d="M737.39,951.92l-30-11a1,1,0,0,1-.65-1.36l.78-1.53a1.23,1.23,0,0,1,1.58-.46l29.27,12.57a1,1,0,0,1,.59,1.33h0A1.24,1.24,0,0,1,737.39,951.92Z"/><path class="cls-7" d="M671.12,951.93l30-11.12a1,1,0,0,0,.67-1.33L701,938a1.22,1.22,0,0,0-1.56-.43l-29.26,12.6a1,1,0,0,0-.6,1.3h0A1.2,1.2,0,0,0,671.12,951.93Z"/><circle class="cls-3" cx="547" cy="1018" r="14"/><circle class="cls-3" cx="561" cy="1006" r="14"/><circle class="cls-3" cx="568" cy="1020" r="14"/><circle class="cls-3" cx="575" cy="1005" r="14"/><circle class="cls-3" cx="582" cy="1020" r="14"/><circle class="cls-3" cx="561" cy="1034" r="14"/><circle class="cls-3" cx="568" cy="1034" r="14"/><circle class="cls-3" cx="582" cy="1012" r="14"/><circle class="cls-3" cx="596" cy="1000" r="14"/><circle class="cls-3" cx="603" cy="1014" r="14"/><circle class="cls-3" cx="610" cy="999" r="14"/><circle class="cls-3" cx="617" cy="1014" r="14"/><circle class="cls-3" cx="596" cy="1028" r="14"/><circle class="cls-3" cx="603" cy="1028" r="14"/><circle class="cls-1" cx="634" cy="983" r="14"/><circle class="cls-1" cx="648" cy="971" r="14"/><circle class="cls-1" cx="655" cy="985" r="14"/><circle class="cls-1" cx="662" cy="970" r="14"/><circle class="cls-1" cx="669" cy="985" r="14"/><circle class="cls-1" cx="648" cy="999" r="14"/><circle class="cls-1" cx="655" cy="999" r="14"/><circle class="cls-1" cx="691" cy="984" r="14"/><circle class="cls-1" cx="705" cy="972" r="14"/><circle class="cls-1" cx="712" cy="986" r="14"/><circle class="cls-1" cx="719" cy="971" r="14"/><circle class="cls-1" cx="726" cy="986" r="14"/><circle class="cls-1" cx="705" cy="1000" r="14"/><circle class="cls-1" cx="712" cy="1000" r="14"/><circle class="cls-2" cx="655" cy="993" r="14"/><circle class="cls-2" cx="669" cy="981" r="14"/><circle class="cls-2" cx="676" cy="995" r="14"/><circle class="cls-2" cx="683" cy="980" r="14"/><circle class="cls-2" cx="690" cy="995" r="14"/><circle class="cls-2" cx="669" cy="1009" r="14"/><circle class="cls-2" cx="676" cy="1009" r="14"/><circle class="cls-2" cx="707" cy="997" r="14"/><circle class="cls-2" cx="721" cy="985" r="14"/><circle class="cls-2" cx="728" cy="999" r="14"/><circle class="cls-2" cx="735" cy="984" r="14"/><path class="cls-2" d="M750,987.52v23a13.5,13.5,0,0,1-3.47,1.76,13.34,13.34,0,0,1-3.53.72h-.09c-.3,0-.6,0-.91,0h-.12a13.7,13.7,0,0,1-3.47-.47,4.44,4.44,0,0,1-.52-.15,13.64,13.64,0,0,1-2.31-.94c-.2-.1-.39-.21-.58-.32l-.14-.08a11.91,11.91,0,0,1-1.2-.8,13.12,13.12,0,0,1-1.39-1.18,13.94,13.94,0,0,1-2.39-3.06c-.1-.17-.2-.35-.29-.53a13.59,13.59,0,0,1-.91-2.15h0a13.39,13.39,0,0,1-.45-1.79,5.43,5.43,0,0,1-.09-.56c0-.37-.09-.74-.11-1.11s0-.56,0-.85,0-.86.06-1.28c0-.23.05-.46.08-.68s.08-.52.12-.77l.06-.27a13.87,13.87,0,0,1,1.15-3.24h0a10.54,10.54,0,0,1,.64-1.13,12.66,12.66,0,0,1,2.21-2.72l.45-.42a14.11,14.11,0,0,1,2.09-1.52l.14-.08.84-.45a13.8,13.8,0,0,1,4.13-1.28,14.92,14.92,0,0,1,1.91-.15H742c.34,0,.67,0,1,0a14,14,0,0,1,3.32.64,14.87,14.87,0,0,1,2.42,1.05A13.92,13.92,0,0,1,750,987.52Z"/><circle class="cls-2" cx="721" cy="1013" r="14"/><circle class="cls-2" cx="728" cy="1013" r="14"/><circle class="cls-3" cx="638" cy="1028" r="14"/><circle class="cls-3" cx="652" cy="1016" r="14"/><circle class="cls-3" cx="659" cy="1030" r="14"/><circle class="cls-3" cx="666" cy="1015" r="14"/><circle class="cls-3" cx="673" cy="1030" r="14"/><circle class="cls-3" cx="652" cy="1044" r="14"/><circle class="cls-3" cx="659" cy="1044" r="14"/><circle class="cls-3" cx="680" cy="1021" r="14"/><circle class="cls-3" cx="694" cy="1009" r="14"/><circle class="cls-3" cx="701" cy="1023" r="14"/><circle class="cls-3" cx="708" cy="1008" r="14"/><circle class="cls-3" cx="715" cy="1023" r="14"/><circle class="cls-3" cx="694" cy="1037" r="14"/><circle class="cls-3" cx="701" cy="1037" r="14"/><circle class="cls-3" cx="720" cy="1018" r="14"/><circle class="cls-3" cx="734" cy="1006" r="14"/><path class="cls-3" d="M750,1009.29v21.42a13.34,13.34,0,0,1-2,1.41l-.12.07a14,14,0,0,1-15.16-.91l-.39-.3a10.54,10.54,0,0,1-1.13-1,13.07,13.07,0,0,1-1.57-1.83.08.08,0,0,1,0,0,10.24,10.24,0,0,1-.73-1.12l0,0c-.1-.17-.2-.35-.29-.53a11.89,11.89,0,0,1-.59-1.31,12.71,12.71,0,0,1-.42-1.23h0a12.79,12.79,0,0,1-.44-2.08A13.53,13.53,0,0,1,727,1020c0-.35,0-.7,0-1s.05-.52.08-.77a12.35,12.35,0,0,1,.31-1.63,4.94,4.94,0,0,1,.15-.55l0-.09,0-.12a13.42,13.42,0,0,1,1.09-2.52,2.29,2.29,0,0,1,.16-.31c.17-.3.36-.59.55-.87a12.59,12.59,0,0,1,.95-1.23,13.67,13.67,0,0,1,1-1q.43-.4.9-.78c.3-.24.61-.46.93-.68s.46-.3.7-.44l.12-.07.24-.14h0a11.69,11.69,0,0,1,1.52-.71,13.38,13.38,0,0,1,4.16-1h.18c.28,0,.57,0,.86,0l.67,0a11.52,11.52,0,0,1,1.33.13l.36.05a14.08,14.08,0,0,1,3,.88,13.69,13.69,0,0,1,1.49.73l.12.07A13.34,13.34,0,0,1,750,1009.29Z"/><path class="cls-3" d="M750,991.14v27.72c-.41.06-.82.1-1.24.12l-.76,0c-.38,0-.76,0-1.14,0a13.74,13.74,0,0,1-3.86-.88,11.5,11.5,0,0,1-1.14-.49l-.54-.28-.06,0a11.26,11.26,0,0,1-1.27-.8c-.08-.06-.17-.11-.25-.18l-.37-.28a4.78,4.78,0,0,1-.42-.34,12.93,12.93,0,0,1-1.69-1.7l-.26-.33a12.71,12.71,0,0,1-1.42-2.2,4,4,0,0,1-.25-.51c-.11-.22-.21-.44-.3-.67h0a13.37,13.37,0,0,1-.77-2.52,0,0,0,0,0,0,0h0A15.6,15.6,0,0,1,734,1006c0-.16,0-.31,0-.47h0c0-.18,0-.34,0-.52,0-.35,0-.7,0-1h0a8.85,8.85,0,0,1,.1-.9,13.69,13.69,0,0,1,.47-2.13l.07-.22c.11-.35.24-.7.38-1a12.66,12.66,0,0,1,.84-1.69,11.53,11.53,0,0,1,1.11-1.61,4.39,4.39,0,0,1,.28-.36c.09-.12.2-.24.3-.36l0,0a15.54,15.54,0,0,1,2.43-2.13l.07,0a6.22,6.22,0,0,1,.54-.35l.06,0a13.75,13.75,0,0,1,1.31-.7c.31-.15.63-.28,1-.4s.54-.2.82-.29A13.53,13.53,0,0,1,747,991h.14c.29,0,.6,0,.9,0A14.6,14.6,0,0,1,750,991.14Z"/><path class="cls-3" d="M750,1006.93v26.14a13.09,13.09,0,0,1-2-1l-.14-.08a14,14,0,0,1-5-5.09,13.82,13.82,0,0,1-1.71-5,14,14,0,0,1-.14-2c0-.35,0-.7,0-1a2.64,2.64,0,0,1,0-.28c0-.21.05-.43.08-.64a2.38,2.38,0,0,1,.06-.37s0,0,0,0l.06-.38c.09-.43.2-.85.32-1.26l0-.09c.06-.2.13-.4.2-.6h0a12.34,12.34,0,0,1,.61-1.45,8.64,8.64,0,0,1,.49-.89,1.4,1.4,0,0,1,.09-.17v0a14.31,14.31,0,0,1,2-2.58h0l.14-.14a13.79,13.79,0,0,1,2.71-2.09l.14-.08A13.09,13.09,0,0,1,750,1006.93Z"/><circle class="cls-3" cx="734" cy="1034" r="14"/><path class="cls-3" d="M750,1023.29v21.42a14,14,0,0,1-12.49,2.85h0A14,14,0,0,1,727,1035c0-.33,0-.66,0-1s0-.7,0-1a13.28,13.28,0,0,1,.3-2,8.75,8.75,0,0,1,.23-.88.74.74,0,0,1,0-.14,1.87,1.87,0,0,1,.07-.22,13.62,13.62,0,0,1,1.2-2.7l0,0a13.76,13.76,0,0,1,3.53-4c.29-.23.58-.44.89-.64a14.14,14.14,0,0,1,4.17-1.86h0a13.6,13.6,0,0,1,2.15-.38l.3,0h.14l.9,0a13.83,13.83,0,0,1,5.39,1.08A13.63,13.63,0,0,1,750,1023.29Z"/><circle class="cls-3" cx="606" cy="1018" r="14"/><circle class="cls-3" cx="620" cy="1006" r="14"/><circle class="cls-3" cx="627" cy="1020" r="14"/><circle class="cls-3" cx="634" cy="1005" r="14"/><circle class="cls-3" cx="641" cy="1020" r="14"/><circle class="cls-3" cx="620" cy="1034" r="14"/><circle class="cls-3" cx="627" cy="1034" r="14"/><path class="cls-13" d="M750,1035v48H0v-48Z"/><g class="cls-14"><path class="cls-15" d="M311,56.5A26.56,26.56,0,0,1,284.5,83H45.5a26.5,26.5,0,0,1,0-53h239A26.57,26.57,0,0,1,311,56.5Z"/><path class="cls-15" d="M289.5,136h-113a26.5,26.5,0,0,0,0-53h113a26.5,26.5,0,0,0,0,53Z"/><path class="cls-15" d="M431,162.5A26.56,26.56,0,0,1,404.5,189h-239a26.5,26.5,0,0,1,0-53h239A26.57,26.57,0,0,1,431,162.5Z"/></g><g class="cls-14"><path class="cls-15" d="M750,176v53H540.5a26.5,26.5,0,0,1,0-53Z"/><path class="cls-15" d="M535.5,282h113a26.5,26.5,0,0,1,0-53h-113a26.5,26.5,0,0,1,0,53Z"/><path class="cls-15" d="M394,308.5A26.56,26.56,0,0,0,420.5,335h239a26.5,26.5,0,0,0,0-53h-239A26.57,26.57,0,0,0,394,308.5Z"/></g><g class="cls-14"><path class="cls-15" d="M232,317.5A26.57,26.57,0,0,1,205.5,344H0V291H205.5A26.56,26.56,0,0,1,232,317.5Z"/><path class="cls-15" d="M55.78,389.22A26.43,26.43,0,0,0,74.5,397H0V344H74.5a26.47,26.47,0,0,0-18.72,45.22Z"/><path class="cls-15" d="M112,423.5A26.57,26.57,0,0,1,85.5,450H0V397H85.5A26.56,26.56,0,0,1,112,423.5Z"/></g><g class="cls-5"><path class="cls-15" d="M220,397.67V416h-8c-6.6,0-12-3.3-12-7.33V405c0-4,5.4-7.33,12-7.33Z"/><path class="cls-15" d="M330,368.33V372c0,4-5.4,7.33-12,7.33H200c-6.6,0-12-3.3-12-7.33v-3.67c0-4,5.4-7.33,12-7.33H318C324.6,361,330,364.3,330,368.33Z"/><path class="cls-15" d="M368,405v3.67c0,4-5.4,7.33-12,7.33H288V397.67h68C362.6,397.67,368,401,368,405Z"/><path class="cls-15" d="M311,397.67H288V379.33h23c-6.6,0-12,3.3-12,7.34v3.66C299,394.37,304.4,397.67,311,397.67Z"/></g><path class="cls-16" d="M750,1080v124H0V1080H750Z"/><path class="cls-17" d="M289,1096.5a7.51,7.51,0,0,1-7.5,7.5H0v-15H281.5A7.52,7.52,0,0,1,289,1096.5Z"/><path class="cls-17" d="M750,1091v15H454.5a7.5,7.5,0,0,1,0-15Z"/><path class="cls-18" d="M182.4,1014l-1.59-1.67-1.46-1.52-2.36-2.47-1.42-1.48-3-3.2-.6-.62-.94-1-.19-.2L169,1000l-2.51-2.63-2.08-2.17L163.3,994l0,0-.37-.39L158,988.47l-.58-.61-.92-1H120.76l.21.22,1.82,1.89,3,3.16,3.9,4.05.77.8.13.14.72.74.65.68.46.49h0l6.66,6.92.91.94.3.32.44.45.32.34.24.24.4.42,1.81,1.88,1.41,1.47h0l1.87,1.93.73.75.57.6.1.11h0l0,0,1,1-.32.33-.23.24-.4.42h0l-5,5.21,0,0-1.05,1.09h0l-.53.55-.89.93-1,1.05-.22.23-1.49,1.55-.22.23-4.13,4.29-1.06,1.11-.06,0-.49.51-.61.64-.55.57-.78.81h0l-.94,1-.21.22h0l-4.92,5.1-2.39,2.49-.81.84-1.39,1.45-.35.36-2.27,2.36-4.33,4.5-6.76,7h0l-11.12,11.55h-39L30.29,1047,25,1041.47l-1.38-1.42h0l-2.07-2.15L18.78,1035l-2-2-2.93-3-.32-.34-1.31-1.36L8.15,1024,7,1022.7l-1.11-1.15-.39-.4-.26-.27h0L4,1019.66l-.72-.75-.52-.54-.22-.23L1,1016.51l.4-.42,1.71-1.77.09-.09.21-.22,4-4.18.08-.08,0,0c.13-.15.27-.31.41-.45s.2-.21.31-.31l0,0,0,0,.05,0h0l.43-.44,1-1.09,1.12-1.16.13-.13,3.68-3.83.43-.45,1.61-1.67,2.77-2.88L21.71,995l.24-.25,4.65-4.84,1.4-1.45.63-.65.85-.89H0v61.65l11.05,11.54,1.72,1.8L30.1,1080l.06.06L33,1083l5.74,6,7.66,8H103l7.66-8,5.74-6,2.81-2.94.06-.06,14.37-15,11.12-11.62L147,1051l0,0,2.41-2.51h0l5.56-5.8.11-.12,5.87-6.14,1.36-1.42,1-1,.54-.56,1.93-2h0l.09-.08,1.48-1.55.89-.93,5.94-6.21,1.93-2h0l1-1,2.25-2.36.53-.55.11-.11,1.56-1.63.86-.9Z"/><path class="cls-19" d="M156.5,986.9H120.76l-.73-.74L98.39,963.67a32.07,32.07,0,0,0-46.56,0l-22,22.91h0l-.29.3H0v-7.44l11.47-12h0L29.3,948.85l5.22-5.46a55.1,55.1,0,0,1,80.34,0l23,24.09,18.3,19.12Z"/><polygon class="cls-19" points="30.07 986.9 0 986.9 0 955.49 11.48 967.47 29.78 986.59 30.07 986.9"/><path class="cls-19" d="M282.93,986.9H247.19l-22.37-23.23a32.05,32.05,0,0,0-46.55,0L156.21,986.6l-.3.3h-36.6l.72-.74,17.88-18.68,17.83-18.63,5.22-5.46a55.09,55.09,0,0,1,80.33,0Z"/><path class="cls-20" d="M300,1000.46a13.21,13.21,0,0,1-4.14,9.56,14.3,14.3,0,0,1-9.95,4H0V986.9H285.91C293.66,986.9,300,993,300,1000.46Z"/><polygon class="cls-20" points="11.47 967.48 0 979.46 0 955.49 11.47 967.48"/><path class="cls-20" d="M137.91,967.48,120,986.16,98.39,963.67a32,32,0,0,0-28.56-9.57V926.22a55.28,55.28,0,0,1,45,17.17Z"/><path class="cls-20" d="M282.17,986.11v.79h-35l-22.37-23.23a32,32,0,0,0-28.56-9.57V926.22a55.28,55.28,0,0,1,45,17.17Z"/><path class="cls-19" d="M172,1088.53c0,.16,0,.31,0,.47a8.56,8.56,0,0,1-2.38,5.51,7.87,7.87,0,0,1-5.72,2.49H0v-16.94H163.84A8.32,8.32,0,0,1,172,1088.53Z"/><path class="cls-18" d="M729.72,1047.33l-9.2-9.57-1.35-1.39-1.31-1.37-2.35-2.44-2.15-2.23h0l-.12-.13-.14-.14-4.82-5h0l-.83-.87h0l-2.11-2.19-.26-.27-2-2.05-1.09-1.13,1.53-1.59.88-.91,1.29-1.34.71-.74.31-.32.3-.31.15-.16.3-.31h0l.86-.89h0l.49-.52.59-.61,1-1,1.89-2,.92-1,.83-.86.13-.14.93-1h0l.14-.13.2-.21,3.41-3.56.12-.12.65-.67,1.14-1.18v0h0l.09-.1.73-.76h0l2-2.12,1.29-1.34.46-.48,2.88-3,2.2-2.29h-36.6l-.24.25-3,3.1-.81.84-1.77,1.85-.25.25v0l-.29.31-1.17,1.22-.34.35L685,998.24l-.62.64,0,0h0l-.07.08h0l-.45.48-.24.25,0,0-.54.56-.39.41-1.36,1.43-.8.83-1,1.1-1.25,1.3h0l-.58.61-.15.16h0l-.28.29-1.07,1.12-.45.48-.84.88h0v0l0,0-.19.2-1,1h0l-2.33,2.43-1.93,2L668,1016l.67.7,3.26,3.41,1.94,2,.12.12.63.66,1.61,1.68,3.05,3.19.18.18,2.27,2.37,3.49,3.66.92,1,0,0,.92,1,13.06,13.64,1.32,1.39,27.77,29,2,2.06.9.94,7.65,8,7.66,8H750v-30.6Z"/><path class="cls-19" d="M750,934.41v34.21l-.73.76L744.81,974l-4.13,4.29-1.9,2-3.8,4-.34.34L733.25,986l-.86.9-1.61,1.67h0l-.29.3h-36.6l.66-.69.05-.05,1-1.09,2.45-2.55.21-.23.31-.32,4.4-4.6.86-.9,1.53-1.6.62-.65,3.9-4.07,2.56-2.67h0l4.5-4.71L720.6,961l1.3-1.35,1.75-1.83,6.65-6.95,5.22-5.46A56.69,56.69,0,0,1,750,934.41Z"/><path class="cls-19" d="M731.07,988.9H695.32l-.73-.74L673,965.67a32.05,32.05,0,0,0-46.55,0L604.05,988.9h-36.6l41.64-43.51a55.09,55.09,0,0,1,80.33,0Z"/><path class="cls-20" d="M750,988.9V1016H566.09a10.56,10.56,0,0,1-1.13,0l-.27,0c-.46,0-.9-.11-1.34-.19l-.73-.16a15.85,15.85,0,0,1-2-.63,14.24,14.24,0,0,1-2.75-1.48l-.25-.17a13.66,13.66,0,0,1-1.31-1.08l-.15-.13a12.52,12.52,0,0,1-1.11-1.2s-.05,0-.05-.06a13.16,13.16,0,0,1-1.62-2.45l0,0a13,13,0,0,1-.92-2.36.25.25,0,0,0,0-.07q-.12-.43-.21-.9a12,12,0,0,1-.21-1.48c0-.36,0-.72,0-1.09s0-.68,0-1l0-.41a14.28,14.28,0,0,1,.38-2l.06-.19c.1-.35.21-.7.34-1a11.83,11.83,0,0,1,.58-1.31c.2-.39.42-.77.65-1.14a13.71,13.71,0,0,1,2.06-2.5l0,0h0a7.7,7.7,0,0,1,.6-.54,2.32,2.32,0,0,1,.25-.21c.29-.24.58-.46.89-.67s.57-.38.87-.56l.23-.13c.3-.17.61-.33.93-.49a18,18,0,0,1,1.82-.7,11.43,11.43,0,0,1,1.68-.4,5.07,5.07,0,0,1,.68-.11l.53-.07a13.37,13.37,0,0,1,1.42-.07Z"/><path class="cls-20" d="M712.47,969.48l-17.88,18.68L673,965.67a32,32,0,0,0-28.56-9.57V928.22a55.26,55.26,0,0,1,45,17.17Z"/><path class="cls-19" d="M750,1082.06V1099H686.54a8.3,8.3,0,0,1-8.1-8c0-.15,0-.31,0-.47a8.58,8.58,0,0,1,2.39-6,7.87,7.87,0,0,1,2-1.55,7.54,7.54,0,0,1,3.68-.94Z"/><rect class="cls-6" y="1204" width="750" height="130"/><rect class="cls-21" x="534" y="1168" width="178" height="17" rx="8.5"/><rect class="cls-21" x="316" y="1139" width="126" height="17" rx="8.5"/><rect class="cls-21" x="46" y="1163" width="85" height="17" rx="8.5"/></svg>