<svg id="Слой_1" data-name="Слой 1" xmlns="http://www.w3.org/2000/svg" viewBox="0 0 225 355"><defs><style>.cls-1{fill:#651044;}.cls-2{fill:#86155a;}.cls-3{fill:#154286;}.cls-4{fill:#0e6fff;}.cls-5{fill:#ad852a;}.cls-6{fill:#e6b138;}.cls-7{fill:#5bb8ff;}.cls-8{fill:#b8b5b5;}.cls-9{fill:#d1c6c6;}.cls-10{fill:#fff;}</style></defs><title>Лоадер</title><rect class="cls-1" x="117.73" y="336.39" width="5.22" height="16.03"/><rect class="cls-2" x="134.21" y="336.39" width="5.22" height="16.03"/><rect class="cls-3" x="112.51" y="316.48" width="15.66" height="25.85" rx="7.83"/><rect class="cls-4" x="128.99" y="316.48" width="15.66" height="25.85" rx="7.83"/><path class="cls-5" d="M56.47,250.69h21.7a0,0,0,0,1,0,0v7.88a0,0,0,0,1,0,0H64.35a7.88,7.88,0,0,1-7.88-7.88v0A0,0,0,0,1,56.47,250.69Z"/><path class="cls-6" d="M67,238.92H79.27a0,0,0,0,1,0,0v13a0,0,0,0,1,0,0H54a0,0,0,0,1,0,0v0A13,13,0,0,1,67,238.92Z"/><path class="cls-4" d="M127.07,239.18v91.26a3.21,3.21,0,0,1-3.3,3.1h-7.39c-27.06,0-49.2-20.84-49.2-46.3V239.18a26.63,26.63,0,0,1,3.34-12.89A30.29,30.29,0,0,1,97.13,211a30.8,30.8,0,0,1,21.14,8.28A27.29,27.29,0,0,1,127.07,239.18Z"/><path class="cls-7" d="M104.27,249.78c0,13.56-11.68,24.56-26.1,24.56a27.46,27.46,0,0,1-11-2.28V239.18a26.63,26.63,0,0,1,3.34-12.89,27.51,27.51,0,0,1,7.65-1.07C92.59,225.22,104.27,236.21,104.27,249.78Z"/><ellipse cx="82.02" cy="239.44" rx="4.94" ry="4.65"/><ellipse class="cls-8" cx="83.25" cy="237.5" rx="1.24" ry="1.16"/><path class="cls-4" d="M115,258.57h17a75,75,0,0,1,75,75v0a0,0,0,0,1,0,0H115a0,0,0,0,1,0,0v-75A0,0,0,0,1,115,258.57Z"/><path class="cls-7" d="M197.66,329.41H165.31c-30.07,0-54.45-21.87-54.45-48.84V276c0-5.62,5.08-10.18,11.35-10.18h4.55a75.19,75.19,0,0,1,48.89,17.53,68.1,68.1,0,0,1,7.18,7.13,64.75,64.75,0,0,1,5.53,7.43,60.37,60.37,0,0,1,3.91,7.14,58.41,58.41,0,0,1,2.85,7.43,57.83,57.83,0,0,1,2.54,16.94Z"/><path class="cls-4" d="M182.83,290.47H145a3.79,3.79,0,0,1-4-3.56,3.42,3.42,0,0,1,1.16-2.52,4.22,4.22,0,0,1,2.81-1.05h30.67A68.1,68.1,0,0,1,182.83,290.47Z"/><path class="cls-4" d="M192.27,305H145a3.8,3.8,0,0,1-4-3.57,3.42,3.42,0,0,1,1.16-2.52A4.27,4.27,0,0,1,145,297.9h43.38A60.37,60.37,0,0,1,192.27,305Z"/><path class="cls-4" d="M196.82,319.6H146a3.8,3.8,0,0,1-4-3.57,3.4,3.4,0,0,1,1.17-2.52,4.22,4.22,0,0,1,2.81-1h49.14A56.49,56.49,0,0,1,196.82,319.6Z"/><path class="cls-1" d="M127.07,355h-22.8a4.51,4.51,0,0,1,1.45-3.29,5.1,5.1,0,0,1,3.49-1.36h12.91A4.82,4.82,0,0,1,127.07,355Z"/><path class="cls-2" d="M143.27,355h-22.8a4.52,4.52,0,0,1,1.46-3.29,5.08,5.08,0,0,1,3.49-1.36h12.91A4.81,4.81,0,0,1,143.27,355Z"/><path class="cls-9" d="M101,186.5C101,194,94.29,200,86,200S71,194,71,186.5a10.6,10.6,0,0,1,.14-1.78C72.1,178.11,78.39,173,86,173s13.9,5.11,14.86,11.72A10.6,10.6,0,0,1,101,186.5Z"/><ellipse class="cls-10" cx="86" cy="184.72" rx="14.86" ry="11.72"/><path class="cls-9" d="M75,146c0,11-9.4,20-21,20s-21-9-21-20a17.61,17.61,0,0,1,.19-2.63C34.54,133.57,43.34,126,54,126s19.46,7.57,20.81,17.37A17.61,17.61,0,0,1,75,146Z"/><ellipse class="cls-10" cx="54" cy="143.37" rx="20.81" ry="17.37"/><path class="cls-9" d="M106.58,55.88c0,30.85-23.85,55.88-53.29,55.88S0,86.73,0,55.88a54,54,0,0,1,.48-7.35C3.91,21.15,26.24,0,53.29,0s49.38,21.15,52.81,48.53A54,54,0,0,1,106.58,55.88Z"/><path class="cls-9" d="M159.21,55.88c0,30.85-23.85,55.88-53.29,55.88s-53.29-25-53.29-55.88a54,54,0,0,1,.48-7.35C56.54,21.15,78.87,0,105.92,0s49.38,21.15,52.81,48.53A54,54,0,0,1,159.21,55.88Z"/><path class="cls-9" d="M225,56.12C225,87,201.15,112,171.71,112s-53.29-25-53.29-55.88a54,54,0,0,1,.48-7.35C122.33,21.39,144.66.24,171.71.24s49.38,21.15,52.81,48.53A54,54,0,0,1,225,56.12Z"/><ellipse class="cls-10" cx="53.29" cy="48.53" rx="52.81" ry="48.53"/><ellipse class="cls-10" cx="105.92" cy="48.53" rx="52.81" ry="48.53"/><ellipse class="cls-10" cx="171.71" cy="48.77" rx="52.81" ry="48.53"/></svg>