<svg id="Слой_1" data-name="Слой 1" xmlns="http://www.w3.org/2000/svg" viewBox="0 0 195 129"><defs><style>.cls-1{fill:#ffb766;}.cls-2,.cls-3,.cls-4{fill:#593c1b;}.cls-2{opacity:0.5;}.cls-4{font-size:9.24px;font-family:BritannicBold, Britannic Bold;}.cls-5{fill:#c2935e;}.cls-6{fill:#ffd4a3;}</style></defs><title>Открытй лутбокс</title><path class="cls-1" d="M192.94,45.89V129H62.4V45.89a2.41,2.41,0,0,1,2.49-2.34H190.46A2.4,2.4,0,0,1,192.94,45.89Z"/><path class="cls-2" d="M160.77,129H62.4V45.89a2.41,2.41,0,0,1,2.49-2.34h4.44Z"/><path class="cls-3" d="M130.15,74.46l-3.2,5-.47.75-5.79,9.07-8.82-4.62,8.32-13.06.12-.2a2.6,2.6,0,0,1,1.84-1.14l4.15,2.17Z"/><path class="cls-3" d="M137.78,79.48H120.19V71.62l.12-.2a2.6,2.6,0,0,1,1.84-1.14,2.73,2.73,0,0,1,.41,0h7.95a2.64,2.64,0,0,1,2.1,1.13Z"/><path class="cls-3" d="M140.08,83.1l-.7,2.47-5.54,2.9-2.48-.58-1.6-2.51-3.28-5.15-.48-.75-3.29-5.15,3.59-1.88,4.21-2.2a2.64,2.64,0,0,1,2.1,1.13l5.17,8.1.77,1.21Z"/><path class="cls-3" d="M140.42,79.69a.36.36,0,0,1,.53.37l-.87,3-.7,2.47-1.13,3.93h0l-4.41-1-2.48-.58-3.53-.83a.32.32,0,0,1-.1-.6l2-1.08,8.79-4.69Z"/><path class="cls-3" d="M143.71,107.08l-3.19-5-.47-.74-5.77-9.08,8.83-4.6,8.31,13.06.13.2a2.15,2.15,0,0,1,.17,2l-4.15,2.17Z"/><path class="cls-3" d="M135.1,110.54l8.81-13.79,7.51,3.94.13.2a2.26,2.26,0,0,1,0,2.35l-3.93,6.14-.06.09a2.66,2.66,0,0,1-2.14,1.08Z"/><path class="cls-3" d="M130.48,110.53l-2-1.79V103l1.8-1.65h17.29v8.15a2.66,2.66,0,0,1-2.14,1.08H130.48Z"/><path class="cls-3" d="M133.57,112.5a.36.36,0,0,1-.61.24l-2.48-2.21-2-1.79-3.19-2.84h0l3.19-2.94,1.8-1.65L132.84,99a.37.37,0,0,1,.62.22l0,2.13.08,9.24Z"/><path class="cls-3" d="M105.34,101.46l6.41,0h1l11.56-.05,0,9.24-16.64.07h-.25a2.73,2.73,0,0,1-2-.86l0-4.34Z"/><path class="cls-3" d="M106.29,93l8.86,13.75-7.49,4h-.25a2.73,2.73,0,0,1-2-.86,3.5,3.5,0,0,1-.24-.3l-4-6.14,0-.09a2.14,2.14,0,0,1,0-2.21Z"/><path class="cls-3" d="M108.58,89.34l2.71-.7,5.55,2.87.7,2.24L116,96.26l-3.25,5.17-.47.75L109,107.35l-3.6-1.86-4.22-2.19a2.14,2.14,0,0,1,0-2.21L106.29,93l.76-1.22Z"/><path class="cls-3" d="M105.16,90.79a.32.32,0,0,1,.08-.6l3.34-.85,2.71-.7,4.31-1.1h0l1.24,4,.7,2.24,1,3.18a.35.35,0,0,1-.52.37l-2.06-1-8.9-4.51Z"/><text class="cls-4" transform="translate(120.66 97.54) scale(1.07 1)">20</text><text class="cls-4" transform="translate(118.98 120.02) scale(1.07 1)">PAP</text><rect class="cls-1" x="72.66" y="80.89" width="2.46" height="10.01" rx="0.98"/><rect class="cls-5" x="178.58" y="110.52" width="2.46" height="13.09" rx="0.98"/><rect class="cls-1" x="97.71" y="115.53" width="2.46" height="10.01" rx="0.98"/><rect class="cls-5" x="151.89" y="70.11" width="2.46" height="6.16" rx="0.98"/><rect class="cls-5" x="184.33" y="85.51" width="2.46" height="4.62" rx="0.98"/><path class="cls-1" d="M53.43.08,66.36,2.29A4.84,4.84,0,0,1,70.24,5.7a4.21,4.21,0,0,1,.07,2L47.54,124.28a4.41,4.41,0,0,1-.81,1.82A5.11,5.11,0,0,1,41.81,128l-12.92-2.22a4.65,4.65,0,0,1-4-5.37L47.7,3.79A4.92,4.92,0,0,1,53.43.08Z"/><path class="cls-6" d="M50.84,10.27l2,.32c.3.05.51.4.54.86a1.67,1.67,0,0,1,0,.54L47.12,44.8a2.44,2.44,0,0,1-.17.52c-.2.42-.52.69-.82.64l-2-.32c-.41-.07-.64-.7-.51-1.4l6.22-32.81C50,10.72,50.42,10.2,50.84,10.27Z"/><rect class="cls-5" y="127.08" width="195" height="1.92" rx="0.72"/><rect class="cls-5" x="23.57" y="125.53" width="66.43" height="2.15" rx="1"/><rect class="cls-5" x="36.43" y="123.39" width="19.29" height="2.15" rx="1"/></svg>