<svg id="Слой_1" data-name="Слой 1" xmlns="http://www.w3.org/2000/svg" viewBox="0 0 139 109"><defs><style>.cls-1{fill:#ffb766;}.cls-2{fill:#75542d;}.cls-3,.cls-4{fill:#593c1b;}.cls-4{font-size:9.69px;font-family:BritannicBold, Britannic Bold;}.cls-5{fill:#ffd4a3;}.cls-6{fill:#c2935e;}</style></defs><title>Закрытый лутбокс</title><path class="cls-1" d="M134.89,23.56V109H3.09V23.56a4.23,4.23,0,0,1,4.29-4.18H130.6A4.23,4.23,0,0,1,134.89,23.56Z"/><path class="cls-2" d="M134.89,23.56V37.91a5,5,0,0,1-2.08.44H5.16a5,5,0,0,1-2.07-.44V23.56a4.23,4.23,0,0,1,4.29-4.18H130.6A4.23,4.23,0,0,1,134.89,23.56Z"/><path class="cls-3" d="M71.49,51.8l-3.23,5.26-.48.78-5.84,9.51L53,62.51l8.4-13.69.13-.21a2.6,2.6,0,0,1,1.85-1.2l4.2,2.28Z"/><path class="cls-3" d="M79.19,57.06H61.43V48.82l.13-.21a2.6,2.6,0,0,1,1.85-1.2,2.83,2.83,0,0,1,.41,0h8A2.68,2.68,0,0,1,74,48.57Z"/><path class="cls-3" d="M81.51,60.86l-.71,2.59-5.58,3-2.51-.61L71.1,63.25l-3.32-5.41-.48-.78L64,51.66l3.63-2,4.24-2.31A2.68,2.68,0,0,1,74,48.57l5.21,8.49L80,58.33Z"/><path class="cls-3" d="M81.86,57.29a.35.35,0,0,1,.53.38l-.88,3.19-.71,2.59-1.13,4.12h0l-4.44-1.08-2.51-.61L69.14,65a.34.34,0,0,1-.09-.63l2-1.13L80,58.33Z"/><path class="cls-3" d="M85.18,86,82,80.74,81.48,80l-5.82-9.51,8.92-4.84L93,79.31l.13.2a2.33,2.33,0,0,1,.18,2.11l-4.2,2.28Z"/><path class="cls-3" d="M76.48,89.63l8.9-14.45L93,79.31l.13.2a2.33,2.33,0,0,1,.18,2.11,3,3,0,0,1-.18.36l-4,6.44-.07.09a2.65,2.65,0,0,1-2.15,1.14Z"/><path class="cls-3" d="M71.83,89.63l-2-1.88V81.68l1.82-1.74H89.08v8.55a2.65,2.65,0,0,1-2.15,1.14l-10.43,0H71.83Z"/><path class="cls-3" d="M74.94,91.7a.36.36,0,0,1-.62.24l-2.49-2.31-2-1.88-3.22-3h0l3.23-3.08,1.82-1.74,2.58-2.47a.37.37,0,0,1,.62.24l0,2.24.08,9.68Z"/><path class="cls-3" d="M46.45,80.11l6.46,0h1l11.67,0,0,9.68-16.81.08h-.25a2.7,2.7,0,0,1-2-.9l0-4.56Z"/><path class="cls-3" d="M47.4,71.2l9,14.43-7.57,4.16h-.25a2.7,2.7,0,0,1-2-.9,2.35,2.35,0,0,1-.23-.32l-4-6.43-.06-.1a2.32,2.32,0,0,1,0-2.32Z"/><path class="cls-3" d="M49.71,67.4l2.74-.73,5.6,3L58.76,72l-1.6,2.63-3.29,5.42-.48.78L50.1,86.29l-3.63-2L42.21,82a2.32,2.32,0,0,1,0-2.32L47.4,71.2l.77-1.27Z"/><path class="cls-3" d="M46.26,68.92a.33.33,0,0,1,.08-.62l3.37-.9,2.74-.73,4.35-1.15h0l1.25,4.16L58.76,72l1,3.33a.36.36,0,0,1-.53.39l-2.07-1.09-9-4.73Z"/><text class="cls-4" transform="translate(61.91 76) scale(1.03 1)">20</text><text class="cls-4" transform="translate(60.21 99.57) scale(1.03 1)">PAP</text><path class="cls-1" d="M137.79,17.77V30.68a4.85,4.85,0,0,1-2.9,4.4,5,5,0,0,1-2.08.45H5.16a5,5,0,0,1-2.07-.45,4.83,4.83,0,0,1-2.9-4.4V17.77a4.93,4.93,0,0,1,5-4.85H132.81A4.93,4.93,0,0,1,137.79,17.77Z"/><rect class="cls-5" x="91.37" y="14.54" width="38.96" height="3.23" rx="1.47"/><rect class="cls-6" x="13.45" y="58.54" width="2.49" height="10.5" rx="1.09"/><rect class="cls-6" x="120.38" y="89.62" width="2.49" height="13.72" rx="1.09"/><rect class="cls-6" x="38.73" y="94.87" width="2.49" height="10.5" rx="1.09"/><rect class="cls-6" x="93.44" y="47.23" width="2.49" height="6.46" rx="1.09"/><rect class="cls-6" x="126.18" y="63.38" width="2.49" height="4.84" rx="1.09"/><rect class="cls-6" x="69.4" y="11.31" width="1.66" height="97.68" rx="0.72"/><rect class="cls-6" x="64.02" y="9.29" width="12.43" height="3.63" rx="1.66"/><path class="cls-6" d="M3.14,108.78a.21.21,0,0,1-.21.21H2.11a.2.2,0,0,1-.22-.2L0,14.52v-.33H0a.63.63,0,0,1,.29-.37l.15-.09h.59a.22.22,0,0,1,.22.2v.76Z"/><path class="cls-6" d="M139,15.76l-3.43,92.63a.61.61,0,0,1-.65.58h0a.61.61,0,0,1-.56-.6v0l.56-15.12,2.22-60.12.6-16.19.06-1.64,0-1a.61.61,0,0,1,.12-.34l.08,0A1.9,1.9,0,0,1,139,15.76Z"/><path class="cls-6" d="M136.07,12.92H1.89A6.3,6.3,0,0,1,5,12.12H133.06a6,6,0,0,1,2.89.74l0,0h0Z"/><path class="cls-6" d="M5.58,12.12a.57.57,0,0,1-.26.27l-.94.54-3.1,1.74-.34.19a.65.65,0,0,1-.86-.22.61.61,0,0,1,0-.12.57.57,0,0,1,0-.18.77.77,0,0,1,0-.15H0a.63.63,0,0,1,.29-.37l.15-.09,1.43-.79A6.2,6.2,0,0,1,5,12.12Z"/><path class="cls-6" d="M139,15.76l-.18,0a.67.67,0,0,1-.3-.08l-.75-.42-1.19-.67h0L133.73,13h0l-.14-.08-.23-.13a.59.59,0,0,1-.31-.52.39.39,0,0,1,0-.15,6,6,0,0,1,2.89.74l0,0h0l.08,0L137.93,14l.08,0A1.9,1.9,0,0,1,139,15.76Z"/><path class="cls-6" d="M63,2.37C58.45,1,54,2.13,53.1,4.91s1.94,6.15,6.43,7.52,8.9.24,9.85-2.54S67.44,3.75,63,2.37Zm-2.67,8.48c-3.14-1-5.15-3.31-4.49-5.25s3.74-2.73,6.87-1.77,5.14,3.31,4.49,5.25S63.41,11.81,60.28,10.85Z"/><path class="cls-6" d="M80.19,10.7c4-2.46,5.8-6.43,4.12-8.87s-6.25-2.44-10.21,0S68.31,8.27,70,10.71,76.24,13.15,80.19,10.7ZM74.93,3.39c2.76-1.71,5.95-1.72,7.12,0s-.11,4.47-2.87,6.18-6,1.72-7.12,0S72.17,5.1,74.93,3.39Z"/></svg>