<svg id="Слой_1" data-name="Слой 1" xmlns="http://www.w3.org/2000/svg" xmlns:xlink="http://www.w3.org/1999/xlink" viewBox="0 0 750 1334"><defs><style>.cls-1{fill:url(#Безымянный_градиент_19);}.cls-2{opacity:0.7;}.cls-3{fill:#e5ffff;}</style><linearGradient id="Безымянный_градиент_19" x1="375" y1="1334" x2="375" gradientUnits="userSpaceOnUse"><stop offset="0" stop-color="#fff"/><stop offset="0.12" stop-color="#f8fdff"/><stop offset="0.28" stop-color="#e6f9ff"/><stop offset="0.47" stop-color="#c8f1ff"/><stop offset="0.69" stop-color="#9ee7ff"/><stop offset="0.92" stop-color="#69d9ff"/><stop offset="1" stop-color="#54d4ff"/></linearGradient></defs><title>Background2</title><rect class="cls-1" width="750" height="1334"/><g class="cls-2"><path class="cls-3" d="M311,79.5A26.56,26.56,0,0,1,284.5,106H45.5a26.5,26.5,0,0,1,0-53h239A26.57,26.57,0,0,1,311,79.5Z"/><path class="cls-3" d="M289.5,159h-113a26.5,26.5,0,0,0,0-53h113a26.5,26.5,0,0,0,0,53Z"/><path class="cls-3" d="M431,185.5A26.56,26.56,0,0,1,404.5,212h-239a26.5,26.5,0,0,1,0-53h239A26.57,26.57,0,0,1,431,185.5Z"/></g><g class="cls-2"><path class="cls-3" d="M750,199v53H540.5a26.5,26.5,0,0,1,0-53Z"/><path class="cls-3" d="M535.5,305h113a26.5,26.5,0,0,1,0-53h-113a26.5,26.5,0,0,1,0,53Z"/><path class="cls-3" d="M394,331.5A26.56,26.56,0,0,0,420.5,358h239a26.5,26.5,0,0,0,0-53h-239A26.57,26.57,0,0,0,394,331.5Z"/></g><g class="cls-2"><path class="cls-3" d="M232,340.5A26.57,26.57,0,0,1,205.5,367H0V314H205.5A26.56,26.56,0,0,1,232,340.5Z"/><path class="cls-3" d="M55.78,412.22A26.43,26.43,0,0,0,74.5,420H0V367H74.5a26.47,26.47,0,0,0-18.72,45.22Z"/><path class="cls-3" d="M112,446.5A26.57,26.57,0,0,1,85.5,473H0V420H85.5A26.56,26.56,0,0,1,112,446.5Z"/></g></svg>